{
    "asset" : {
        "generator" : "Khronos glTF Blender I/O v3.2.40",
        "version" : "2.0"
    },
    "scene" : 0,
    "scenes" : [
        {
            "name" : "Scene",
            "nodes" : [
                0,
                1,
                2
            ]
        }
    ],
    "nodes" : [
        {
            "mesh" : 0,
            "name" : "Cylinder.001",
            "rotation" : [
                -0.7071068286895752,
                0,
                0,
                0.7071068286895752
            ],
            "scale" : [
                1.377959966659546,
                1.0820084810256958,
                1.4139299392700195
            ],
            "translation" : [
                0.06895306706428528,
                0,
                0
            ]
        },
        {
            "mesh" : 1,
            "name" : "Curve.024",
            "rotation" : [
                0.7071068286895752,
                0,
                0,
                0.7071068286895752
            ],
            "scale" : [
                28.540781021118164,
                0.714741051197052,
                28.540781021118164
            ],
            "translation" : [
                -1.0013394355773926,
                -0.8652029037475586,
                0.07067535072565079
            ]
        },
        {
            "mesh" : 2,
            "name" : "Curve.010",
            "rotation" : [
                0,
                0.7071068286895752,
                -0.7071068286895752,
                3.090862321641907e-08
            ],
            "scale" : [
                28.540781021118164,
                0.714741051197052,
                28.540781021118164
            ],
            "translation" : [
                1.1238783597946167,
                -0.8652029037475586,
                -0.0014379601925611496
            ]
        }
    ],
    "materials" : [
        {
            "doubleSided" : true,
            "name" : "Brushed Metal Material.001",
            "pbrMetallicRoughness" : {
                "roughnessFactor" : 0.10363635420799255
            }
        },
        {
            "doubleSided" : true,
            "name" : "Brushed Metal Material",
            "pbrMetallicRoughness" : {
                "roughnessFactor" : 0.10363635420799255
            }
        },
        {
            "doubleSided" : true,
            "name" : "SVGMat.003",
            "pbrMetallicRoughness" : {
                "baseColorFactor" : [
                    0.18116405606269836,
                    0.004391253925859928,
                    0.38132596015930176,
                    1
                ],
                "roughnessFactor" : 0
            }
        },
        {
            "doubleSided" : true,
            "name" : "SVGMat.004",
            "pbrMetallicRoughness" : {
                "baseColorFactor" : [
                    0.18116405606269836,
                    0.004391253925859928,
                    0.38132596015930176,
                    1
                ],
                "roughnessFactor" : 0
            }
        }
    ],
    "meshes" : [
        {
            "name" : "Cylinder.001",
            "primitives" : [
                {
                    "attributes" : {
                        "POSITION" : 0,
                        "NORMAL" : 1,
                        "TEXCOORD_0" : 2
                    },
                    "indices" : 3,
                    "material" : 0
                },
                {
                    "attributes" : {
                        "POSITION" : 4,
                        "NORMAL" : 5,
                        "TEXCOORD_0" : 6
                    },
                    "indices" : 7,
                    "material" : 1
                }
            ]
        },
        {
            "name" : "Curve.022",
            "primitives" : [
                {
                    "attributes" : {
                        "POSITION" : 8,
                        "NORMAL" : 9,
                        "TEXCOORD_0" : 10
                    },
                    "indices" : 11,
                    "material" : 2
                }
            ]
        },
        {
            "name" : "Curve.023",
            "primitives" : [
                {
                    "attributes" : {
                        "POSITION" : 12,
                        "NORMAL" : 13,
                        "TEXCOORD_0" : 14
                    },
                    "indices" : 11,
                    "material" : 3
                }
            ]
        }
    ],
    "accessors" : [
        {
            "bufferView" : 0,
            "componentType" : 5126,
            "count" : 512,
            "max" : [
                1,
                0.03721396625041962,
                1
            ],
            "min" : [
                -1,
                -0.03721261024475098,
                -1
            ],
            "type" : "VEC3"
        },
        {
            "bufferView" : 1,
            "componentType" : 5126,
            "count" : 512,
            "type" : "VEC3"
        },
        {
            "bufferView" : 2,
            "componentType" : 5126,
            "count" : 512,
            "type" : "VEC2"
        },
        {
            "bufferView" : 3,
            "componentType" : 5123,
            "count" : 948,
            "type" : "SCALAR"
        },
        {
            "bufferView" : 4,
            "componentType" : 5126,
            "count" : 512,
            "max" : [
                0.9986647367477417,
                -0.026491496711969376,
                1
            ],
            "min" : [
                -1.0013351440429688,
                -0.10091829299926758,
                -1
            ],
            "type" : "VEC3"
        },
        {
            "bufferView" : 5,
            "componentType" : 5126,
            "count" : 512,
            "type" : "VEC3"
        },
        {
            "bufferView" : 6,
            "componentType" : 5126,
            "count" : 512,
            "type" : "VEC2"
        },
        {
            "bufferView" : 7,
            "componentType" : 5123,
            "count" : 948,
            "type" : "SCALAR"
        },
        {
            "bufferView" : 8,
            "componentType" : 5126,
            "count" : 8432,
            "max" : [
                0.07637088745832443,
                0.04999999701976776,
                4.0380147142693446e-11
            ],
            "min" : [
                0,
                -0.04999999701976776,
                -0.05289528891444206
            ],
            "type" : "VEC3"
        },
        {
            "bufferView" : 9,
            "componentType" : 5126,
            "count" : 8432,
            "type" : "VEC3"
        },
        {
            "bufferView" : 10,
            "componentType" : 5126,
            "count" : 8432,
            "type" : "VEC2"
        },
        {
            "bufferView" : 11,
            "componentType" : 5123,
            "count" : 13260,
            "type" : "SCALAR"
        },
        {
            "bufferView" : 12,
            "componentType" : 5126,
            "count" : 8432,
            "max" : [
                0.07637088745832443,
                0.04999999701976776,
                4.0380147142693446e-11
            ],
            "min" : [
                0,
                -0.04999999701976776,
                -0.05289528891444206
            ],
            "type" : "VEC3"
        },
        {
            "bufferView" : 13,
            "componentType" : 5126,
            "count" : 8432,
            "type" : "VEC3"
        },
        {
            "bufferView" : 14,
            "componentType" : 5126,
            "count" : 8432,
            "type" : "VEC2"
        }
    ],
    "bufferViews" : [
        {
            "buffer" : 0,
            "byteLength" : 6144,
            "byteOffset" : 0
        },
        {
            "buffer" : 0,
            "byteLength" : 6144,
            "byteOffset" : 6144
        },
        {
            "buffer" : 0,
            "byteLength" : 4096,
            "byteOffset" : 12288
        },
        {
            "buffer" : 0,
            "byteLength" : 1896,
            "byteOffset" : 16384
        },
        {
            "buffer" : 0,
            "byteLength" : 6144,
            "byteOffset" : 18280
        },
        {
            "buffer" : 0,
            "byteLength" : 6144,
            "byteOffset" : 24424
        },
        {
            "buffer" : 0,
            "byteLength" : 4096,
            "byteOffset" : 30568
        },
        {
            "buffer" : 0,
            "byteLength" : 1896,
            "byteOffset" : 34664
        },
        {
            "buffer" : 0,
            "byteLength" : 101184,
            "byteOffset" : 36560
        },
        {
            "buffer" : 0,
            "byteLength" : 101184,
            "byteOffset" : 137744
        },
        {
            "buffer" : 0,
            "byteLength" : 67456,
            "byteOffset" : 238928
        },
        {
            "buffer" : 0,
            "byteLength" : 26520,
            "byteOffset" : 306384
        },
        {
            "buffer" : 0,
            "byteLength" : 101184,
            "byteOffset" : 332904
        },
        {
            "buffer" : 0,
            "byteLength" : 101184,
            "byteOffset" : 434088
        },
        {
            "buffer" : 0,
            "byteLength" : 67456,
            "byteOffset" : 535272
        }
    ],
    "buffers" : [
        {
            "byteLength" : 602728,
            "uri" : "data:application/octet-stream;base64,"
        }
    ]
}
