{
    "asset" : {
        "generator" : "Khronos glTF Blender I/O v3.3.27",
        "version" : "2.0"
    },
    "extensionsUsed" : [
        "KHR_materials_emissive_strength"
    ],
    "scene" : 0,
    "scenes" : [
        {
            "name" : "Scene",
            "nodes" : [
                0
            ]
        }
    ],
    "nodes" : [
        {
            "mesh" : 0,
            "name" : "Plane",
            "rotation" : [
                0,
                0.981292724609375,
                0,
                0.1925220489501953
            ],
            "scale" : [
                6.000000476837158,
                5.5,
                6.000000476837158
            ],
            "translation" : [
                0.10999999940395355,
                0.08999999612569809,
                0
            ]
        }
    ],
    "materials" : [
        {
            "doubleSided" : true,
            "name" : "Material.001",
            "pbrMetallicRoughness" : {
                "baseColorFactor" : [
                    0.06957755982875824,
                    0.004090143367648125,
                    0.13286130130290985,
                    1
                ],
                "roughnessFactor" : 0.5
            }
        },
        {
            "doubleSided" : true,
            "emissiveFactor" : [
                0,
                0.2955540841738133,
                1
            ],
            "extensions" : {
                "KHR_materials_emissive_strength" : {
                    "emissiveStrength" : 1.0599933564662933
                }
            },
            "name" : "Material.002",
            "pbrMetallicRoughness" : {
                "baseColorFactor" : [
                    0,
                    0,
                    0,
                    1
                ]
            }
        }
    ],
    "meshes" : [
        {
            "name" : "Plane",
            "primitives" : [
                {
                    "attributes" : {
                        "POSITION" : 0,
                        "NORMAL" : 1,
                        "TEXCOORD_0" : 2
                    },
                    "indices" : 3,
                    "material" : 0
                },
                {
                    "attributes" : {
                        "POSITION" : 4,
                        "NORMAL" : 5,
                        "TEXCOORD_0" : 6
                    },
                    "indices" : 7,
                    "material" : 1
                }
            ]
        }
    ],
    "accessors" : [
        {
            "bufferView" : 0,
            "componentType" : 5126,
            "count" : 3827,
            "max" : [
                1,
                0.5265804529190063,
                1
            ],
            "min" : [
                -1,
                -0.018107371404767036,
                -1
            ],
            "type" : "VEC3"
        },
        {
            "bufferView" : 1,
            "componentType" : 5126,
            "count" : 3827,
            "type" : "VEC3"
        },
        {
            "bufferView" : 2,
            "componentType" : 5126,
            "count" : 3827,
            "type" : "VEC2"
        },
        {
            "bufferView" : 3,
            "componentType" : 5123,
            "count" : 5766,
            "type" : "SCALAR"
        },
        {
            "bufferView" : 4,
            "componentType" : 5126,
            "count" : 30752,
            "max" : [
                1.0014930963516235,
                0.5280677676200867,
                1.0013723373413086
            ],
            "min" : [
                -1.0014336109161377,
                -0.019604692235589027,
                -1.001291036605835
            ],
            "type" : "VEC3"
        },
        {
            "bufferView" : 5,
            "componentType" : 5126,
            "count" : 30752,
            "type" : "VEC3"
        },
        {
            "bufferView" : 6,
            "componentType" : 5126,
            "count" : 30752,
            "type" : "VEC2"
        },
        {
            "bufferView" : 7,
            "componentType" : 5123,
            "count" : 46128,
            "type" : "SCALAR"
        }
    ],
    "bufferViews" : [
        {
            "buffer" : 0,
            "byteLength" : 45924,
            "byteOffset" : 0,
            "target" : 34962
        },
        {
            "buffer" : 0,
            "byteLength" : 45924,
            "byteOffset" : 45924,
            "target" : 34962
        },
        {
            "buffer" : 0,
            "byteLength" : 30616,
            "byteOffset" : 91848,
            "target" : 34962
        },
        {
            "buffer" : 0,
            "byteLength" : 11532,
            "byteOffset" : 122464,
            "target" : 34963
        },
        {
            "buffer" : 0,
            "byteLength" : 369024,
            "byteOffset" : 133996,
            "target" : 34962
        },
        {
            "buffer" : 0,
            "byteLength" : 369024,
            "byteOffset" : 503020,
            "target" : 34962
        },
        {
            "buffer" : 0,
            "byteLength" : 246016,
            "byteOffset" : 872044,
            "target" : 34962
        },
        {
            "buffer" : 0,
            "byteLength" : 92256,
            "byteOffset" : 1118060,
            "target" : 34963
        }
    ],
    "buffers" : [
        {
            "byteLength" : 1210316,
            "uri" : "data:application/octet-stream;base64,"
        }
    ]
}
