{
    "asset" : {
        "generator" : "Khronos glTF Blender I/O v3.2.40",
        "version" : "2.0"
    },
    "scene" : 0,
    "scenes" : [
        {
            "name" : "Scene",
            "nodes" : [
                0,
                1,
                2
            ]
        }
    ],
    "nodes" : [
        {
            "mesh" : 0,
            "name" : "Cylinder.001",
            "rotation" : [
                -0.5,
                0.5,
                0.5,
                0.5
            ],
            "scale" : [
                1.377959966659546,
                1.0820084810256958,
                1.4139299392700195
            ],
            "translation" : [
                0.06895306706428528,
                0,
                0
            ]
        },
        {
            "mesh" : 1,
            "name" : "Curve.022",
            "rotation" : [
                0.5,
                0.5,
                -0.5,
                0.5
            ],
            "scale" : [
                83.72245025634766,
                1,
                83.72245025634766
            ],
            "translation" : [
                0.1290825605392456,
                -0.6575926542282104,
                0.9909815192222595
            ]
        },
        {
            "mesh" : 2,
            "name" : "Curve.010",
            "rotation" : [
                0.5,
                -0.5,
                0.5,
                0.5
            ],
            "scale" : [
                83.72245025634766,
                1,
                83.72245025634766
            ],
            "translation" : [
                0.07787071168422699,
                -0.6575926542282104,
                -0.9100955724716187
            ]
        }
    ],
    "materials" : [
        {
            "doubleSided" : true,
            "name" : "Brushed Metal Material.001",
            "pbrMetallicRoughness" : {
                "roughnessFactor" : 0.10363635420799255
            }
        },
        {
            "doubleSided" : true,
            "name" : "Brushed Metal Material",
            "pbrMetallicRoughness" : {
                "roughnessFactor" : 0.10363635420799255
            }
        },
        {
            "doubleSided" : true,
            "name" : "SVGMat.006",
            "pbrMetallicRoughness" : {
                "baseColorFactor" : [
                    0.31582555174827576,
                    0.3096858859062195,
                    0.0002047273301286623,
                    1
                ],
                "roughnessFactor" : 0
            }
        },
        {
            "doubleSided" : true,
            "name" : "SVGMat.007",
            "pbrMetallicRoughness" : {
                "baseColorFactor" : [
                    0.31582555174827576,
                    0.3096858859062195,
                    0.0002047273301286623,
                    1
                ],
                "roughnessFactor" : 0
            }
        }
    ],
    "meshes" : [
        {
            "name" : "Cylinder.001",
            "primitives" : [
                {
                    "attributes" : {
                        "POSITION" : 0,
                        "NORMAL" : 1,
                        "TEXCOORD_0" : 2
                    },
                    "indices" : 3,
                    "material" : 0
                },
                {
                    "attributes" : {
                        "POSITION" : 4,
                        "NORMAL" : 5,
                        "TEXCOORD_0" : 6
                    },
                    "indices" : 7,
                    "material" : 1
                }
            ]
        },
        {
            "name" : "Curve.026",
            "primitives" : [
                {
                    "attributes" : {
                        "POSITION" : 8,
                        "NORMAL" : 9,
                        "TEXCOORD_0" : 10
                    },
                    "indices" : 11,
                    "material" : 2
                }
            ]
        },
        {
            "name" : "Curve.027",
            "primitives" : [
                {
                    "attributes" : {
                        "POSITION" : 12,
                        "NORMAL" : 13,
                        "TEXCOORD_0" : 14
                    },
                    "indices" : 11,
                    "material" : 3
                }
            ]
        }
    ],
    "accessors" : [
        {
            "bufferView" : 0,
            "componentType" : 5126,
            "count" : 512,
            "max" : [
                1,
                0.03721396625041962,
                1
            ],
            "min" : [
                -1,
                -0.03721261024475098,
                -1
            ],
            "type" : "VEC3"
        },
        {
            "bufferView" : 1,
            "componentType" : 5126,
            "count" : 512,
            "type" : "VEC3"
        },
        {
            "bufferView" : 2,
            "componentType" : 5126,
            "count" : 512,
            "type" : "VEC2"
        },
        {
            "bufferView" : 3,
            "componentType" : 5123,
            "count" : 948,
            "type" : "SCALAR"
        },
        {
            "bufferView" : 4,
            "componentType" : 5126,
            "count" : 512,
            "max" : [
                0.9986647367477417,
                -0.026491496711969376,
                1
            ],
            "min" : [
                -1.0013351440429688,
                -0.10091829299926758,
                -1
            ],
            "type" : "VEC3"
        },
        {
            "bufferView" : 5,
            "componentType" : 5126,
            "count" : 512,
            "type" : "VEC3"
        },
        {
            "bufferView" : 6,
            "componentType" : 5126,
            "count" : 512,
            "type" : "VEC2"
        },
        {
            "bufferView" : 7,
            "componentType" : 5123,
            "count" : 948,
            "type" : "SCALAR"
        },
        {
            "bufferView" : 8,
            "componentType" : 5126,
            "count" : 1588,
            "max" : [
                0.022171830758452415,
                0.019999999552965164,
                0
            ],
            "min" : [
                0,
                -0.019999999552965164,
                -0.015733709558844566
            ],
            "type" : "VEC3"
        },
        {
            "bufferView" : 9,
            "componentType" : 5126,
            "count" : 1588,
            "type" : "VEC3"
        },
        {
            "bufferView" : 10,
            "componentType" : 5126,
            "count" : 1588,
            "type" : "VEC2"
        },
        {
            "bufferView" : 11,
            "componentType" : 5123,
            "count" : 2904,
            "type" : "SCALAR"
        },
        {
            "bufferView" : 12,
            "componentType" : 5126,
            "count" : 1588,
            "max" : [
                0.022171830758452415,
                0.019999999552965164,
                0
            ],
            "min" : [
                0,
                -0.019999999552965164,
                -0.015733709558844566
            ],
            "type" : "VEC3"
        },
        {
            "bufferView" : 13,
            "componentType" : 5126,
            "count" : 1588,
            "type" : "VEC3"
        },
        {
            "bufferView" : 14,
            "componentType" : 5126,
            "count" : 1588,
            "type" : "VEC2"
        }
    ],
    "bufferViews" : [
        {
            "buffer" : 0,
            "byteLength" : 6144,
            "byteOffset" : 0
        },
        {
            "buffer" : 0,
            "byteLength" : 6144,
            "byteOffset" : 6144
        },
        {
            "buffer" : 0,
            "byteLength" : 4096,
            "byteOffset" : 12288
        },
        {
            "buffer" : 0,
            "byteLength" : 1896,
            "byteOffset" : 16384
        },
        {
            "buffer" : 0,
            "byteLength" : 6144,
            "byteOffset" : 18280
        },
        {
            "buffer" : 0,
            "byteLength" : 6144,
            "byteOffset" : 24424
        },
        {
            "buffer" : 0,
            "byteLength" : 4096,
            "byteOffset" : 30568
        },
        {
            "buffer" : 0,
            "byteLength" : 1896,
            "byteOffset" : 34664
        },
        {
            "buffer" : 0,
            "byteLength" : 19056,
            "byteOffset" : 36560
        },
        {
            "buffer" : 0,
            "byteLength" : 19056,
            "byteOffset" : 55616
        },
        {
            "buffer" : 0,
            "byteLength" : 12704,
            "byteOffset" : 74672
        },
        {
            "buffer" : 0,
            "byteLength" : 5808,
            "byteOffset" : 87376
        },
        {
            "buffer" : 0,
            "byteLength" : 19056,
            "byteOffset" : 93184
        },
        {
            "buffer" : 0,
            "byteLength" : 19056,
            "byteOffset" : 112240
        },
        {
            "buffer" : 0,
            "byteLength" : 12704,
            "byteOffset" : 131296
        }
    ],
    "buffers" : [
        {
            "byteLength" : 144000,
            "uri" : "data:application/octet-stream;base64,"
        }
    ]
}
