{
    "asset" : {
        "generator" : "Khronos glTF Blender I/O v3.2.40",
        "version" : "2.0"
    },
    "scene" : 0,
    "scenes" : [
        {
            "name" : "Scene",
            "nodes" : [
                0,
                1,
                2
            ]
        }
    ],
    "nodes" : [
        {
            "mesh" : 0,
            "name" : "Cylinder.001",
            "rotation" : [
                -0.5,
                0.5,
                0.5,
                0.5
            ],
            "scale" : [
                1.377959966659546,
                1.0820084810256958,
                1.4139299392700195
            ],
            "translation" : [
                0.06895306706428528,
                0,
                0
            ]
        },
        {
            "mesh" : 1,
            "name" : "Curve.021",
            "rotation" : [
                0.5,
                0.5,
                -0.5,
                0.5
            ],
            "scale" : [
                85.1470718383789,
                1,
                85.1470718383789
            ],
            "translation" : [
                0.1374824196100235,
                -0.9818075895309448,
                0.8717957735061646
            ]
        },
        {
            "mesh" : 2,
            "name" : "Curve.010",
            "rotation" : [
                0.5,
                -0.5,
                0.5,
                0.5
            ],
            "scale" : [
                85.1470718383789,
                1,
                85.1470718383789
            ],
            "translation" : [
                0.06871020048856735,
                -0.9818075895309448,
                -0.8659031391143799
            ]
        }
    ],
    "materials" : [
        {
            "doubleSided" : true,
            "name" : "Brushed Metal Material.001",
            "pbrMetallicRoughness" : {
                "roughnessFactor" : 0.10363635420799255
            }
        },
        {
            "doubleSided" : true,
            "name" : "Brushed Metal Material",
            "pbrMetallicRoughness" : {
                "roughnessFactor" : 0.10363635420799255
            }
        },
        {
            "doubleSided" : true,
            "name" : "SVGMat.008",
            "pbrMetallicRoughness" : {
                "baseColorFactor" : [
                    0,
                    0.3813260495662689,
                    0.0033761344384402037,
                    1
                ],
                "roughnessFactor" : 0
            }
        },
        {
            "doubleSided" : true,
            "name" : "SVGMat.009",
            "pbrMetallicRoughness" : {
                "baseColorFactor" : [
                    0,
                    0.3813260495662689,
                    0.0033761344384402037,
                    1
                ],
                "roughnessFactor" : 0
            }
        }
    ],
    "meshes" : [
        {
            "name" : "Cylinder.001",
            "primitives" : [
                {
                    "attributes" : {
                        "POSITION" : 0,
                        "NORMAL" : 1,
                        "TEXCOORD_0" : 2
                    },
                    "indices" : 3,
                    "material" : 0
                },
                {
                    "attributes" : {
                        "POSITION" : 4,
                        "NORMAL" : 5,
                        "TEXCOORD_0" : 6
                    },
                    "indices" : 7,
                    "material" : 1
                }
            ]
        },
        {
            "name" : "Curve.028",
            "primitives" : [
                {
                    "attributes" : {
                        "POSITION" : 8,
                        "NORMAL" : 9,
                        "TEXCOORD_0" : 10
                    },
                    "indices" : 11,
                    "material" : 2
                }
            ]
        },
        {
            "name" : "Curve.029",
            "primitives" : [
                {
                    "attributes" : {
                        "POSITION" : 12,
                        "NORMAL" : 13,
                        "TEXCOORD_0" : 14
                    },
                    "indices" : 11,
                    "material" : 3
                }
            ]
        }
    ],
    "accessors" : [
        {
            "bufferView" : 0,
            "componentType" : 5126,
            "count" : 512,
            "max" : [
                1,
                0.03721396625041962,
                1
            ],
            "min" : [
                -1,
                -0.03721261024475098,
                -1
            ],
            "type" : "VEC3"
        },
        {
            "bufferView" : 1,
            "componentType" : 5126,
            "count" : 512,
            "type" : "VEC3"
        },
        {
            "bufferView" : 2,
            "componentType" : 5126,
            "count" : 512,
            "type" : "VEC2"
        },
        {
            "bufferView" : 3,
            "componentType" : 5123,
            "count" : 948,
            "type" : "SCALAR"
        },
        {
            "bufferView" : 4,
            "componentType" : 5126,
            "count" : 512,
            "max" : [
                0.9986647367477417,
                -0.026491496711969376,
                1
            ],
            "min" : [
                -1.0013351440429688,
                -0.10091829299926758,
                -1
            ],
            "type" : "VEC3"
        },
        {
            "bufferView" : 5,
            "componentType" : 5126,
            "count" : 512,
            "type" : "VEC3"
        },
        {
            "bufferView" : 6,
            "componentType" : 5126,
            "count" : 512,
            "type" : "VEC2"
        },
        {
            "bufferView" : 7,
            "componentType" : 5123,
            "count" : 948,
            "type" : "SCALAR"
        },
        {
            "bufferView" : 8,
            "componentType" : 5126,
            "count" : 5913,
            "max" : [
                0.020475640892982483,
                0.029999999329447746,
                0
            ],
            "min" : [
                -1.9802836988899315e-19,
                -0.029999999329447746,
                -0.023070087656378746
            ],
            "type" : "VEC3"
        },
        {
            "bufferView" : 9,
            "componentType" : 5126,
            "count" : 5913,
            "type" : "VEC3"
        },
        {
            "bufferView" : 10,
            "componentType" : 5126,
            "count" : 5913,
            "type" : "VEC2"
        },
        {
            "bufferView" : 11,
            "componentType" : 5123,
            "count" : 11064,
            "type" : "SCALAR"
        },
        {
            "bufferView" : 12,
            "componentType" : 5126,
            "count" : 5913,
            "max" : [
                0.020475640892982483,
                0.029999999329447746,
                0
            ],
            "min" : [
                -1.9802836988899315e-19,
                -0.029999999329447746,
                -0.023070087656378746
            ],
            "type" : "VEC3"
        },
        {
            "bufferView" : 13,
            "componentType" : 5126,
            "count" : 5913,
            "type" : "VEC3"
        },
        {
            "bufferView" : 14,
            "componentType" : 5126,
            "count" : 5913,
            "type" : "VEC2"
        }
    ],
    "bufferViews" : [
        {
            "buffer" : 0,
            "byteLength" : 6144,
            "byteOffset" : 0
        },
        {
            "buffer" : 0,
            "byteLength" : 6144,
            "byteOffset" : 6144
        },
        {
            "buffer" : 0,
            "byteLength" : 4096,
            "byteOffset" : 12288
        },
        {
            "buffer" : 0,
            "byteLength" : 1896,
            "byteOffset" : 16384
        },
        {
            "buffer" : 0,
            "byteLength" : 6144,
            "byteOffset" : 18280
        },
        {
            "buffer" : 0,
            "byteLength" : 6144,
            "byteOffset" : 24424
        },
        {
            "buffer" : 0,
            "byteLength" : 4096,
            "byteOffset" : 30568
        },
        {
            "buffer" : 0,
            "byteLength" : 1896,
            "byteOffset" : 34664
        },
        {
            "buffer" : 0,
            "byteLength" : 70956,
            "byteOffset" : 36560
        },
        {
            "buffer" : 0,
            "byteLength" : 70956,
            "byteOffset" : 107516
        },
        {
            "buffer" : 0,
            "byteLength" : 47304,
            "byteOffset" : 178472
        },
        {
            "buffer" : 0,
            "byteLength" : 22128,
            "byteOffset" : 225776
        },
        {
            "buffer" : 0,
            "byteLength" : 70956,
            "byteOffset" : 247904
        },
        {
            "buffer" : 0,
            "byteLength" : 70956,
            "byteOffset" : 318860
        },
        {
            "buffer" : 0,
            "byteLength" : 47304,
            "byteOffset" : 389816
        }
    ],
    "buffers" : [
        {
            "byteLength" : 437120,
            "uri" : "data:application/octet-stream;base64,"
        }
    ]
}
