{
    "asset" : {
        "generator" : "Khronos glTF Blender I/O v3.2.40",
        "version" : "2.0"
    },
    "scene" : 0,
    "scenes" : [
        {
            "name" : "Scene",
            "nodes" : [
                0,
                1,
                2,
                3,
                4
            ]
        }
    ],
    "nodes" : [
        {
            "mesh" : 0,
            "name" : "Cylinder.001",
            "rotation" : [
                -0.5,
                0.5,
                0.5,
                0.5
            ],
            "scale" : [
                1.377959966659546,
                1.0820084810256958,
                1.4139299392700195
            ],
            "translation" : [
                0.06895306706428528,
                0,
                0
            ]
        },
        {
            "mesh" : 1,
            "name" : "Curve.023",
            "rotation" : [
                0.5,
                0.5,
                -0.5,
                0.5
            ],
            "scale" : [
                18.085308074951172,
                2,
                18.085308074951172
            ],
            "translation" : [
                0.10473371297121048,
                -0.9535812139511108,
                1.073987364768982
            ]
        },
        {
            "mesh" : 2,
            "name" : "Curve.022",
            "rotation" : [
                0.5,
                0.5,
                -0.5,
                0.5
            ],
            "scale" : [
                18.085308074951172,
                2,
                18.085308074951172
            ],
            "translation" : [
                0.10473371297121048,
                -0.9535812139511108,
                1.073987364768982
            ]
        },
        {
            "mesh" : 3,
            "name" : "Curve.021",
            "rotation" : [
                0.5,
                0.5,
                -0.5,
                0.5
            ],
            "scale" : [
                18.085308074951172,
                2,
                18.085308074951172
            ],
            "translation" : [
                0.10473371297121048,
                -0.9535812139511108,
                1.073987364768982
            ]
        },
        {
            "mesh" : 4,
            "name" : "Curve.010",
            "rotation" : [
                0.5,
                0.5,
                -0.5,
                0.5
            ],
            "scale" : [
                18.085308074951172,
                2,
                18.085308074951172
            ],
            "translation" : [
                0.10473371297121048,
                -0.9535812139511108,
                1.073987364768982
            ]
        }
    ],
    "materials" : [
        {
            "doubleSided" : true,
            "name" : "Brushed Metal Material.001",
            "pbrMetallicRoughness" : {
                "roughnessFactor" : 0.10363635420799255
            }
        },
        {
            "doubleSided" : true,
            "name" : "Brushed Metal Material",
            "pbrMetallicRoughness" : {
                "roughnessFactor" : 0.10363635420799255
            }
        },
        {
            "doubleSided" : true,
            "name" : "SVGMat.002",
            "pbrMetallicRoughness" : {
                "baseColorFactor" : [
                    0,
                    0.12743771076202393,
                    0.3813260495662689,
                    1
                ],
                "roughnessFactor" : 0
            }
        }
    ],
    "meshes" : [
        {
            "name" : "Cylinder.001",
            "primitives" : [
                {
                    "attributes" : {
                        "POSITION" : 0,
                        "NORMAL" : 1,
                        "TEXCOORD_0" : 2
                    },
                    "indices" : 3,
                    "material" : 0
                },
                {
                    "attributes" : {
                        "POSITION" : 4,
                        "NORMAL" : 5,
                        "TEXCOORD_0" : 6
                    },
                    "indices" : 7,
                    "material" : 1
                }
            ]
        },
        {
            "name" : "Curve.028",
            "primitives" : [
                {
                    "attributes" : {
                        "POSITION" : 8,
                        "NORMAL" : 9,
                        "TEXCOORD_0" : 10
                    },
                    "indices" : 11,
                    "material" : 2
                }
            ]
        },
        {
            "name" : "Curve.027",
            "primitives" : [
                {
                    "attributes" : {
                        "POSITION" : 12,
                        "NORMAL" : 13,
                        "TEXCOORD_0" : 14
                    },
                    "indices" : 15,
                    "material" : 2
                }
            ]
        },
        {
            "name" : "Curve.026",
            "primitives" : [
                {
                    "attributes" : {
                        "POSITION" : 16,
                        "NORMAL" : 17,
                        "TEXCOORD_0" : 18
                    },
                    "indices" : 19,
                    "material" : 2
                }
            ]
        },
        {
            "name" : "Curve.025",
            "primitives" : [
                {
                    "attributes" : {
                        "POSITION" : 20,
                        "NORMAL" : 21,
                        "TEXCOORD_0" : 22
                    },
                    "indices" : 23,
                    "material" : 2
                }
            ]
        }
    ],
    "accessors" : [
        {
            "bufferView" : 0,
            "componentType" : 5126,
            "count" : 512,
            "max" : [
                1,
                0.03721396625041962,
                1
            ],
            "min" : [
                -1,
                -0.03721261024475098,
                -1
            ],
            "type" : "VEC3"
        },
        {
            "bufferView" : 1,
            "componentType" : 5126,
            "count" : 512,
            "type" : "VEC3"
        },
        {
            "bufferView" : 2,
            "componentType" : 5126,
            "count" : 512,
            "type" : "VEC2"
        },
        {
            "bufferView" : 3,
            "componentType" : 5123,
            "count" : 948,
            "type" : "SCALAR"
        },
        {
            "bufferView" : 4,
            "componentType" : 5126,
            "count" : 512,
            "max" : [
                0.9986647367477417,
                -0.026491496711969376,
                1
            ],
            "min" : [
                -1.0013351440429688,
                -0.10091829299926758,
                -1
            ],
            "type" : "VEC3"
        },
        {
            "bufferView" : 5,
            "componentType" : 5126,
            "count" : 512,
            "type" : "VEC3"
        },
        {
            "bufferView" : 6,
            "componentType" : 5126,
            "count" : 512,
            "type" : "VEC2"
        },
        {
            "bufferView" : 7,
            "componentType" : 5123,
            "count" : 948,
            "type" : "SCALAR"
        },
        {
            "bufferView" : 8,
            "componentType" : 5126,
            "count" : 1620,
            "max" : [
                0.09606404602527618,
                0.029999999329447746,
                7.92681566963438e-06
            ],
            "min" : [
                0.02302914299070835,
                -0.029999999329447746,
                -0.10568256676197052
            ],
            "type" : "VEC3"
        },
        {
            "bufferView" : 9,
            "componentType" : 5126,
            "count" : 1620,
            "type" : "VEC3"
        },
        {
            "bufferView" : 10,
            "componentType" : 5126,
            "count" : 1620,
            "type" : "VEC2"
        },
        {
            "bufferView" : 11,
            "componentType" : 5123,
            "count" : 2952,
            "type" : "SCALAR"
        },
        {
            "bufferView" : 12,
            "componentType" : 5126,
            "count" : 1760,
            "max" : [
                0.09585998207330704,
                0.029999999329447746,
                -6.445164763135836e-05
            ],
            "min" : [
                0.02300775609910488,
                -0.029999999329447746,
                -0.10578951984643936
            ],
            "type" : "VEC3"
        },
        {
            "bufferView" : 13,
            "componentType" : 5126,
            "count" : 1760,
            "type" : "VEC3"
        },
        {
            "bufferView" : 14,
            "componentType" : 5126,
            "count" : 1760,
            "type" : "VEC2"
        },
        {
            "bufferView" : 15,
            "componentType" : 5123,
            "count" : 3204,
            "type" : "SCALAR"
        },
        {
            "bufferView" : 16,
            "componentType" : 5126,
            "count" : 1502,
            "max" : [
                0.11891676485538483,
                0.029999999329447746,
                -0.028676778078079224
            ],
            "min" : [
                0,
                -0.029999999329447746,
                -0.07715048640966415
            ],
            "type" : "VEC3"
        },
        {
            "bufferView" : 17,
            "componentType" : 5126,
            "count" : 1502,
            "type" : "VEC3"
        },
        {
            "bufferView" : 18,
            "componentType" : 5126,
            "count" : 1502,
            "type" : "VEC2"
        },
        {
            "bufferView" : 19,
            "componentType" : 5123,
            "count" : 2832,
            "type" : "SCALAR"
        },
        {
            "bufferView" : 20,
            "componentType" : 5126,
            "count" : 534,
            "max" : [
                0.07010543346405029,
                0.029999999329447746,
                -0.042401447892189026
            ],
            "min" : [
                0.048853665590286255,
                -0.029999999329447746,
                -0.06364873051643372
            ],
            "type" : "VEC3"
        },
        {
            "bufferView" : 21,
            "componentType" : 5126,
            "count" : 534,
            "type" : "VEC3"
        },
        {
            "bufferView" : 22,
            "componentType" : 5126,
            "count" : 534,
            "type" : "VEC2"
        },
        {
            "bufferView" : 23,
            "componentType" : 5123,
            "count" : 1140,
            "type" : "SCALAR"
        }
    ],
    "bufferViews" : [
        {
            "buffer" : 0,
            "byteLength" : 6144,
            "byteOffset" : 0
        },
        {
            "buffer" : 0,
            "byteLength" : 6144,
            "byteOffset" : 6144
        },
        {
            "buffer" : 0,
            "byteLength" : 4096,
            "byteOffset" : 12288
        },
        {
            "buffer" : 0,
            "byteLength" : 1896,
            "byteOffset" : 16384
        },
        {
            "buffer" : 0,
            "byteLength" : 6144,
            "byteOffset" : 18280
        },
        {
            "buffer" : 0,
            "byteLength" : 6144,
            "byteOffset" : 24424
        },
        {
            "buffer" : 0,
            "byteLength" : 4096,
            "byteOffset" : 30568
        },
        {
            "buffer" : 0,
            "byteLength" : 1896,
            "byteOffset" : 34664
        },
        {
            "buffer" : 0,
            "byteLength" : 19440,
            "byteOffset" : 36560
        },
        {
            "buffer" : 0,
            "byteLength" : 19440,
            "byteOffset" : 56000
        },
        {
            "buffer" : 0,
            "byteLength" : 12960,
            "byteOffset" : 75440
        },
        {
            "buffer" : 0,
            "byteLength" : 5904,
            "byteOffset" : 88400
        },
        {
            "buffer" : 0,
            "byteLength" : 21120,
            "byteOffset" : 94304
        },
        {
            "buffer" : 0,
            "byteLength" : 21120,
            "byteOffset" : 115424
        },
        {
            "buffer" : 0,
            "byteLength" : 14080,
            "byteOffset" : 136544
        },
        {
            "buffer" : 0,
            "byteLength" : 6408,
            "byteOffset" : 150624
        },
        {
            "buffer" : 0,
            "byteLength" : 18024,
            "byteOffset" : 157032
        },
        {
            "buffer" : 0,
            "byteLength" : 18024,
            "byteOffset" : 175056
        },
        {
            "buffer" : 0,
            "byteLength" : 12016,
            "byteOffset" : 193080
        },
        {
            "buffer" : 0,
            "byteLength" : 5664,
            "byteOffset" : 205096
        },
        {
            "buffer" : 0,
            "byteLength" : 6408,
            "byteOffset" : 210760
        },
        {
            "buffer" : 0,
            "byteLength" : 6408,
            "byteOffset" : 217168
        },
        {
            "buffer" : 0,
            "byteLength" : 4272,
            "byteOffset" : 223576
        },
        {
            "buffer" : 0,
            "byteLength" : 2280,
            "byteOffset" : 227848
        }
    ],
    "buffers" : [
        {
            "byteLength" : 230128,
            "uri" : "data:application/octet-stream;base64,"
        }
    ]
}
