<svg xmlns="http://www.w3.org/2000/svg" xmlns:xlink="http://www.w3.org/1999/xlink" viewBox="0 0 179.65 179.65"><defs><style>.cls-1{fill:url(#New_Gradient_Swatch_2);}.cls-2{fill:url(#New_Gradient_Swatch_2-2);}.cls-3{fill:url(#New_Gradient_Swatch_2-3);}.cls-4{fill:url(#New_Gradient_Swatch_2-4);}.cls-5{fill:url(#New_Gradient_Swatch_2-5);}.cls-6{fill:url(#New_Gradient_Swatch_2-6);}.cls-7{fill:url(#New_Gradient_Swatch_2-7);}.cls-8{fill:url(#New_Gradient_Swatch_2-8);}.cls-9{fill:url(#New_Gradient_Swatch_2-9);}.cls-10{fill:url(#New_Gradient_Swatch_2-10);}.cls-11{fill:url(#New_Gradient_Swatch_2-11);}.cls-12{fill:url(#New_Gradient_Swatch_2-12);}.cls-13{fill:url(#New_Gradient_Swatch_2-13);}.cls-14{fill:url(#New_Gradient_Swatch_2-14);}.cls-15{fill:url(#New_Gradient_Swatch_2-15);}.cls-16{fill:url(#New_Gradient_Swatch_2-16);}.cls-17{fill:url(#New_Gradient_Swatch_2-17);}.cls-18{fill:url(#New_Gradient_Swatch_2-18);}.cls-19{fill:url(#New_Gradient_Swatch_2-19);}.cls-20{fill:url(#New_Gradient_Swatch_2-20);}.cls-21{fill:url(#New_Gradient_Swatch_2-21);}</style><linearGradient id="New_Gradient_Swatch_2" x1="46.9" y1="89.82" x2="132.74" y2="89.82" gradientUnits="userSpaceOnUse"><stop offset="0" stop-color="#3ddeed"/><stop offset="1" stop-color="#cb00dd"/></linearGradient><linearGradient id="New_Gradient_Swatch_2-2" x1="45.92" y1="89.82" x2="133.73" y2="89.82" xlink:href="#New_Gradient_Swatch_2"/><linearGradient id="New_Gradient_Swatch_2-3" x1="45.36" y1="89.82" x2="134.29" y2="89.82" xlink:href="#New_Gradient_Swatch_2"/><linearGradient id="New_Gradient_Swatch_2-4" x1="45.17" y1="89.82" x2="134.48" y2="89.82" xlink:href="#New_Gradient_Swatch_2"/><linearGradient id="New_Gradient_Swatch_2-5" x1="45.15" y1="89.82" x2="134.5" y2="89.82" xlink:href="#New_Gradient_Swatch_2"/><linearGradient id="New_Gradient_Swatch_2-6" x1="45.06" y1="89.82" x2="134.59" y2="89.82" xlink:href="#New_Gradient_Swatch_2"/><linearGradient id="New_Gradient_Swatch_2-7" x1="44.6" y1="89.82" x2="135.05" y2="89.82" xlink:href="#New_Gradient_Swatch_2"/><linearGradient id="New_Gradient_Swatch_2-8" x1="43.44" y1="89.82" x2="136.21" y2="89.82" xlink:href="#New_Gradient_Swatch_2"/><linearGradient id="New_Gradient_Swatch_2-9" x1="41.31" y1="89.82" x2="138.34" y2="89.82" xlink:href="#New_Gradient_Swatch_2"/><linearGradient id="New_Gradient_Swatch_2-10" x1="38.16" y1="89.82" x2="141.49" y2="89.82" xlink:href="#New_Gradient_Swatch_2"/><linearGradient id="New_Gradient_Swatch_2-11" x1="34.08" y1="89.82" x2="145.57" y2="89.82" xlink:href="#New_Gradient_Swatch_2"/><linearGradient id="New_Gradient_Swatch_2-12" x1="29.28" y1="89.82" x2="150.37" y2="89.82" xlink:href="#New_Gradient_Swatch_2"/><linearGradient id="New_Gradient_Swatch_2-13" x1="24.1" y1="89.82" x2="155.55" y2="89.82" xlink:href="#New_Gradient_Swatch_2"/><linearGradient id="New_Gradient_Swatch_2-14" x1="18.81" y1="89.82" x2="160.83" y2="89.82" xlink:href="#New_Gradient_Swatch_2"/><linearGradient id="New_Gradient_Swatch_2-15" x1="13.8" y1="89.82" x2="165.85" y2="89.82" xlink:href="#New_Gradient_Swatch_2"/><linearGradient id="New_Gradient_Swatch_2-16" x1="9.37" y1="89.82" x2="170.28" y2="89.82" xlink:href="#New_Gradient_Swatch_2"/><linearGradient id="New_Gradient_Swatch_2-17" x1="5.71" y1="89.82" x2="173.94" y2="89.82" xlink:href="#New_Gradient_Swatch_2"/><linearGradient id="New_Gradient_Swatch_2-18" x1="2.97" y1="89.82" x2="176.68" y2="89.82" xlink:href="#New_Gradient_Swatch_2"/><linearGradient id="New_Gradient_Swatch_2-19" x1="1.18" y1="89.82" x2="178.47" y2="89.82" xlink:href="#New_Gradient_Swatch_2"/><linearGradient id="New_Gradient_Swatch_2-20" x1="0.24" y1="89.82" x2="179.39" y2="89.82" xlink:href="#New_Gradient_Swatch_2"/><linearGradient id="New_Gradient_Swatch_2-21" x1="0" y1="89.82" x2="179.65" y2="89.82" xlink:href="#New_Gradient_Swatch_2"/></defs><g id="Layer_2" data-name="Layer 2"><g id="object"><path class="cls-1" d="M97.64,125.9A55.43,55.43,0,0,1,68,117c-11.33-7.3-18.85-17.83-20.64-28.91a27.23,27.23,0,0,1,5.61-22c12.07-15,38.43-16.48,58.78-3.38C123,70,130.55,80.49,132.34,91.57a27.29,27.29,0,0,1-5.62,22C120.17,121.74,109.38,125.9,97.64,125.9ZM82,54.07c-11.64,0-22.33,4.12-28.82,12.18A26.93,26.93,0,0,0,47.63,88c1.78,11,9.25,21.44,20.5,28.68,20.21,13,46.38,11.53,58.34-3.31A26.94,26.94,0,0,0,132,91.62c-1.78-11-9.25-21.44-20.5-28.69A55.15,55.15,0,0,0,82,54.07Z"/><path class="cls-2" d="M94.39,127.72a52.55,52.55,0,0,1-20.86-4.38c-12.09-5.26-21.36-14.58-25.43-25.58a32.4,32.4,0,0,1,1-25.65c9-18.47,34.58-25.56,57.06-15.8,12.09,5.25,21.36,14.58,25.43,25.58a32.4,32.4,0,0,1-1,25.65C124.34,120.38,110.07,127.72,94.39,127.72ZM49.21,72.18l.15.08a32.08,32.08,0,0,0-.94,25.38c4,10.92,13.24,20.17,25.24,25.38,22.32,9.69,47.72,2.68,56.63-15.63A32.11,32.11,0,0,0,131.23,82C127.19,71.09,118,61.84,106,56.62,83.67,46.93,58.27,54,49.36,72.26Z"/><path class="cls-3" d="M91.72,130.33A49.1,49.1,0,0,1,80.22,129a46.81,46.81,0,0,1-29.07-20.67,37.91,37.91,0,0,1-4.73-28.9l.17.05-.17-.05c5.29-21.57,29.08-34.44,53-28.68a46.76,46.76,0,0,1,29.06,20.67,37.9,37.9,0,0,1,4.74,28.89C128.79,118.35,111.35,130.32,91.72,130.33ZM87.93,49.68c-19.47,0-36.77,11.86-41.17,29.79a37.53,37.53,0,0,0,4.7,28.62A46.45,46.45,0,0,0,80.3,128.61c23.74,5.71,47.34-7,52.59-28.43a37.56,37.56,0,0,0-4.7-28.63A46.46,46.46,0,0,0,99.35,51,49,49,0,0,0,87.93,49.68Z"/><path class="cls-4" d="M90.1,133.61c-.75,0-1.49,0-2.24-.05-24.6-1.18-43.73-21.76-42.65-45.87a43,43,0,0,1,14.13-30,44.63,44.63,0,0,1,32.45-11.6c24.6,1.18,43.73,21.75,42.64,45.87a42.92,42.92,0,0,1-14.12,30A44.57,44.57,0,0,1,90.1,133.61Zm-.55-87.2A44.15,44.15,0,0,0,59.59,58a42.62,42.62,0,0,0-14,29.75c-1.07,23.91,17.9,44.31,42.3,45.48a44.3,44.3,0,0,0,32.18-11.5,42.57,42.57,0,0,0,14-29.75C135.14,68,116.17,47.63,91.77,46.46,91,46.42,90.29,46.41,89.55,46.41Z"/><path class="cls-5" d="M89.64,137.41a42.45,42.45,0,0,1-25.45-8.55A47.41,47.41,0,0,1,45.62,96.79C42.08,70.85,59,46.61,83.4,42.76a42.33,42.33,0,0,1,32.06,8A47.49,47.49,0,0,1,134,82.85c3.54,26-13.41,50.19-37.79,54A43.27,43.27,0,0,1,89.64,137.41ZM90,42.63a42.6,42.6,0,0,0-6.55.51C59.3,47,42.49,71,46,96.74a47.09,47.09,0,0,0,18.42,31.82,41.94,41.94,0,0,0,31.76,7.95c24.17-3.82,41-27.86,37.47-53.6a47.1,47.1,0,0,0-18.42-31.82A42.15,42.15,0,0,0,90,42.63Z"/><path class="cls-6" d="M90.75,141.45a40.16,40.16,0,0,1-17.31-4c-11.94-5.71-21.31-17-25.69-31C39.33,79.48,51.35,50.11,74.53,41a39.3,39.3,0,0,1,31.67,1.24c12,5.71,21.32,17,25.7,31,8.42,26.94-3.6,56.31-26.79,65.47A39.14,39.14,0,0,1,90.75,141.45ZM88.89,38.6a38.74,38.74,0,0,0-14.21,2.72c-23,9.08-34.9,38.23-26.55,65,4.35,13.91,13.64,25.13,25.49,30.8A38.86,38.86,0,0,0,105,138.32c23-9.08,34.9-38.23,26.54-65-4.34-13.91-13.63-25.13-25.48-30.8A39.63,39.63,0,0,0,88.89,38.6Z"/><path class="cls-7" d="M93.1,145.48a37.83,37.83,0,0,1-9.38-1.2c-13.2-3.4-24.88-13.61-32-28-13.4-27-7.21-60.81,13.8-75.39a36.64,36.64,0,0,1,30.45-5.49c13.2,3.4,24.88,13.61,32,28,13.4,27,7.21,60.81-13.8,75.39A36.73,36.73,0,0,1,93.1,145.48Zm-41-29.42c7.1,14.31,18.68,24.45,31.77,27.81a36.24,36.24,0,0,0,30.1-5.42c20.85-14.47,27-48,13.66-74.87-7.1-14.3-18.68-24.44-31.77-27.8a36.24,36.24,0,0,0-30.1,5.42C44.87,55.67,38.74,89.25,52.06,116.06Z"/><path class="cls-8" d="M96.54,149.26c-.7,0-1.39,0-2.09-.06-13.7-.81-27.2-9.3-37-23.28-18.3-26-18.68-63.37-.84-83.28,7.62-8.5,17.78-12.83,28.63-12.19,13.7.81,27.2,9.29,37,23.28,18.3,26,18.67,63.37.84,83.28C116,145,106.6,149.26,96.54,149.26ZM83.11,30.83c-9.93,0-19.17,4.25-26.21,12.1-17.71,19.76-17.32,56.88.87,82.74,9.76,13.87,23.14,22.29,36.7,23.09,10.71.63,20.76-3.65,28.28-12C140.46,117,140.07,79.84,121.88,54c-9.76-13.88-23.14-22.29-36.7-23.09Q84.14,30.83,83.11,30.83Z"/><path class="cls-9" d="M100.69,152.56c-12.17,0-25-6.21-35.81-17.52C42,111.09,34.46,71.32,48.17,46.39c5.95-10.82,15.27-17.57,26.26-19,13.47-1.77,28.17,4.51,40.34,17.22,22.92,24,30.42,63.73,16.71,88.66-5.95,10.82-15.28,17.57-26.27,19A34,34,0,0,1,100.69,152.56ZM79,27.54a33.33,33.33,0,0,0-4.47.29c-10.84,1.42-20,8.09-25.92,18.78C35,71.38,42.41,110.91,65.21,134.73c12.06,12.61,26.62,18.84,40,17.09,10.84-1.42,20-8.09,25.92-18.78,13.62-24.77,6.15-64.3-16.64-88.12C103.71,33.71,91,27.54,79,27.54Z"/><path class="cls-10" d="M105.28,155.23c-10.12,0-21.08-4.12-31.33-12-27.06-20.8-42-61.67-33.32-91.1C44.54,38.9,52.78,29.63,63.83,26c12.67-4.11,27.93-.33,41.86,10.38,27.07,20.8,42,61.67,33.32,91.1-3.91,13.23-12.14,22.5-23.19,26.09A34.06,34.06,0,0,1,105.28,155.23ZM74.37,24.89A33.6,33.6,0,0,0,64,26.49C53.08,30,45,39.18,41.09,52.26c-8.65,29.26,6.23,69.9,33.15,90.6,13.81,10.61,28.91,14.36,41.43,10.3,10.9-3.54,19-12.7,22.89-25.77,8.64-29.26-6.23-69.91-33.16-90.6C95.25,29,84.39,24.89,74.37,24.89Z"/><path class="cls-11" d="M109.74,157.24c-7.95,0-16.56-2.4-25.31-7.15-30.54-16.58-53-57.08-50.1-90.28,1.38-15.65,8.18-27.52,19.15-33.41C65.13,20.15,80,21.27,95.22,29.56c30.54,16.58,53,57.08,50.09,90.28-1.37,15.65-8.17,27.52-19.15,33.41A34.4,34.4,0,0,1,109.74,157.24ZM69.91,22.9a33.8,33.8,0,0,0-16.19,3.94c-10.82,5.81-17.53,17.53-18.89,33-2.91,33,19.45,73.31,49.83,89.8,15.12,8.21,29.78,9.33,41.27,3.16,10.82-5.81,17.53-17.53,18.89-33,2.9-33-19.45-73.31-49.83-89.81C86.3,25.28,77.77,22.9,69.91,22.9Z"/><path class="cls-12" d="M113.89,158.43A55.39,55.39,0,0,1,96,155.23c-33.14-11.36-62.93-49.9-66.39-85.93-1.73-17.89,3.19-32.38,13.84-40.79,10.17-8,24.44-9.49,40.17-4.09,33.15,11.35,62.93,49.9,66.4,85.92,1.72,17.9-3.19,32.39-13.84,40.8C130.05,156,122.43,158.43,113.89,158.43ZM65.76,21.73c-8.42,0-15.94,2.41-22,7.18-10.51,8.3-15.36,22.63-13.65,40.34,3.45,35.84,33.08,74.2,66.05,85.49,15.56,5.34,29.66,3.91,39.69-4,10.51-8.3,15.35-22.63,13.65-40.35C146.07,74.55,116.44,36.2,83.47,24.9A54.89,54.89,0,0,0,65.76,21.73Z"/><path class="cls-13" d="M116.92,159a57.52,57.52,0,0,1-8.54-.66c-34.71-5.25-71.31-40.2-81.59-77.91C21.5,61,24.08,43.52,33.87,32.52,42.39,23,55.68,19,71.27,21.33c34.71,5.25,71.31,40.2,81.58,77.91,5.3,19.43,2.72,36.89-7.07,47.89C138.86,154.9,128.8,159,116.92,159ZM62.73,21.2c-11.73,0-21.65,4-28.46,11.68-9.67,10.86-12.2,28.13-7,47.39,10.23,37.52,46.63,72.3,81.15,77.52,15.41,2.33,28.52-1.59,36.92-11,9.67-10.86,12.2-28.13,7-47.39-10.22-37.53-46.62-72.3-81.14-77.52A56.58,56.58,0,0,0,62.73,21.2Z"/><path class="cls-14" d="M118.37,159.11C83.84,159.11,43,130,26.14,92.83c-9.31-20.52-9.77-40.25-1.26-54.14,6.73-11,18.68-17.4,33.66-18.09,35.07-1.6,77.68,28.1,95,66.21,9.31,20.53,9.76,40.26,1.26,54.15-6.73,11-18.68,17.4-33.66,18.09C120.2,159.09,119.29,159.11,118.37,159.11Zm2.71-.62v0c14.79-.68,26.58-7,33.21-17.82C162.7,126.94,162.23,107.4,153,87,135.8,49.12,93.45,19.57,58.57,21.16,43.78,21.84,32,28.16,25.36,39,17,52.71,17.42,72.25,26.65,92.6,43.85,130.52,86.21,160.08,121.08,158.49Z"/><path class="cls-15" d="M117.93,159.14c-31.79,0-69.38-21.28-90.06-52.91-13.49-20.63-17.51-42.1-11-58.9C21.64,34.8,31.69,26.21,45.9,22.47c34.14-9,81.64,13.87,105.88,51,13.48,20.63,17.51,42.1,11.05,58.9C158,144.84,148,153.44,133.75,157.18A62.23,62.23,0,0,1,117.93,159.14Zm-56.19-138A61.66,61.66,0,0,0,46.05,23C32,26.72,22.11,35.2,17.36,47.54,11,64.16,15,85.44,28.36,105.91c24.11,36.89,71.32,59.63,105.24,50.71,14-3.69,23.94-12.17,28.68-24.51,6.4-16.63,2.39-37.9-11-58.37C130.72,42.27,93.33,21.09,61.74,21.09Z"/><path class="cls-16" d="M115.28,159.48c-28.38,0-61-14.49-83.16-39.32C14.65,100.62,6.66,78.24,10.18,58.78c2.53-14,10.71-24.91,23.66-31.7,31.81-16.67,82.81-2.14,113.69,32.41C165,79,173,101.4,169.46,120.87c-2.53,13.95-10.71,24.91-23.65,31.7l-.14-.27.14.27C136.86,157.26,126.39,159.48,115.28,159.48ZM64.39,20.77c-11,0-21.4,2.2-30.27,6.85-12.77,6.7-20.84,17.51-23.34,31.27-3.49,19.28,4.45,41.46,21.79,60.86,22.08,24.7,54.49,39.13,82.69,39.13,11,0,21.39-2.2,30.27-6.85,12.77-6.7,20.84-17.51,23.33-31.27,3.5-19.28-4.45-41.46-21.79-60.86C125,35.2,92.59,20.77,64.39,20.77Z"/><path class="cls-17" d="M110.35,160.65c-23.93,0-50.27-9.08-71.4-26.51C18.11,116.94,6,94.76,5.71,73.29c-.2-15.43,5.74-28.84,17.17-38.78,28.05-24.4,80.9-19.46,117.82,11,20.84,17.2,33,39.38,33.24,60.85.19,15.43-5.74,28.84-17.17,38.78C144.77,155.58,128.23,160.65,110.35,160.65Zm-41-141c-17.73,0-34.12,5-46,15.36C12,44.8,6.15,58,6.35,73.28c.27,21.28,12.3,43.28,33,60.37,36.69,30.27,89.17,35.21,117,11l.21.24-.21-.24c11.29-9.81,17.15-23,17-38.29C173,85.09,161,63.08,140.29,46,119.28,28.66,93.08,19.63,69.3,19.63Z"/><path class="cls-18" d="M103.93,163.12a110.14,110.14,0,0,1-55.61-15.48C25.06,133.89,9,113.18,4.33,90.8c-3.49-16.6-.22-33,9.2-46.09C36.42,12.85,89.26,7.15,131.32,32c23.27,13.74,39.3,34.46,44,56.83,3.49,16.61.22,33-9.21,46.1l-.27-.19.27.19C152.83,153.44,129.44,163.12,103.93,163.12ZM75.7,17.19c-25.29,0-48.46,9.58-61.63,27.9C4.62,58.25,1.47,74,5,90.67c4.67,22.19,20.59,42.75,43.69,56.4a109.48,109.48,0,0,0,55.28,15.39c25.3,0,48.47-9.58,61.64-27.9C175,121.4,178.17,105.64,174.67,89,170,66.79,154.09,46.23,131,32.58A109.51,109.51,0,0,0,75.7,17.19Z"/><path class="cls-19" d="M97.56,167.16A104.07,104.07,0,0,1,60.1,160.1C35.6,150.63,16.23,132.65,7,110.79-.52,93.13-.75,74.22,6.31,57.52c16.39-38.74,67.18-55.78,113.23-38C144.05,29,163.42,47,172.69,68.86c7.48,17.66,7.71,36.57.65,53.27C161.36,150.44,131,167.16,97.56,167.16Zm-15.48-154C48.91,13.17,18.81,29.73,7,57.79,0,74.31.19,93,7.6,110.52c9.19,21.69,28.42,39.53,52.75,48.94,45.71,17.67,96.11.8,112.35-37.6,7-16.52,6.76-35.25-.65-52.73-9.19-21.69-28.42-39.53-52.76-48.94A103.31,103.31,0,0,0,82.08,13.17Z"/><path class="cls-20" d="M92.63,172.76A97.83,97.83,0,0,1,74.05,171c-23.54-4.58-44-17.32-57.71-35.87S-2.55,94.36,1.67,72.69C10.36,28,57-.76,105.59,8.69S186.68,62.22,178,107l-.35-.07.35.07C170.41,145.94,134,172.76,92.63,172.76ZM87,7.61C46,7.61,9.88,34.18,2.37,72.82c-4.17,21.48,1,43.44,14.55,61.84s33.91,31.05,57.27,35.59A96.29,96.29,0,0,0,92.63,172c41.06,0,77.14-26.57,84.65-65.22,8.62-44.35-23.6-88-71.82-97.42A96.39,96.39,0,0,0,87,7.61Z"/><path class="cls-21" d="M89.82,179.65a89.83,89.83,0,1,1,89.83-89.83A89.93,89.93,0,0,1,89.82,179.65Zm0-178.9A89.08,89.08,0,1,0,178.9,89.82,89.18,89.18,0,0,0,89.82.75Z"/></g></g></svg>