<svg xmlns="http://www.w3.org/2000/svg" xmlns:xlink="http://www.w3.org/1999/xlink" viewBox="0 0 166.98 192.48"><defs><style>.cls-1{fill:url(#New_Gradient_Swatch_2);}.cls-2{fill:url(#New_Gradient_Swatch_2-2);}.cls-3{fill:url(#New_Gradient_Swatch_2-3);}.cls-4{fill:url(#New_Gradient_Swatch_2-4);}.cls-5{fill:url(#New_Gradient_Swatch_2-5);}.cls-6{fill:url(#New_Gradient_Swatch_2-6);}.cls-7{fill:url(#New_Gradient_Swatch_2-7);}.cls-8{fill:url(#New_Gradient_Swatch_2-8);}.cls-9{fill:url(#New_Gradient_Swatch_2-9);}.cls-10{fill:url(#New_Gradient_Swatch_2-10);}.cls-11{fill:url(#New_Gradient_Swatch_2-11);}.cls-12{fill:url(#New_Gradient_Swatch_2-12);}.cls-13{fill:url(#New_Gradient_Swatch_2-13);}.cls-14{fill:url(#New_Gradient_Swatch_2-14);}.cls-15{fill:url(#New_Gradient_Swatch_2-15);}.cls-16{fill:url(#New_Gradient_Swatch_2-16);}.cls-17{fill:url(#New_Gradient_Swatch_2-17);}.cls-18{fill:url(#New_Gradient_Swatch_2-18);}.cls-19{fill:url(#New_Gradient_Swatch_2-19);}.cls-20{fill:url(#New_Gradient_Swatch_2-20);}.cls-21{fill:url(#New_Gradient_Swatch_2-21);}.cls-22{fill:url(#New_Gradient_Swatch_2-22);}.cls-23{fill:url(#New_Gradient_Swatch_2-23);}.cls-24{fill:url(#New_Gradient_Swatch_2-24);}.cls-25{fill:url(#New_Gradient_Swatch_2-25);}.cls-26{fill:url(#New_Gradient_Swatch_2-26);}.cls-27{fill:url(#New_Gradient_Swatch_2-27);}.cls-28{fill:url(#New_Gradient_Swatch_2-28);}.cls-29{fill:url(#New_Gradient_Swatch_2-29);}.cls-30{fill:url(#New_Gradient_Swatch_2-30);}.cls-31{fill:url(#New_Gradient_Swatch_2-31);}.cls-32{fill:url(#New_Gradient_Swatch_2-32);}.cls-33{fill:url(#New_Gradient_Swatch_2-33);}</style><linearGradient id="New_Gradient_Swatch_2" x1="70.17" y1="96.24" x2="96.81" y2="96.24" gradientUnits="userSpaceOnUse"><stop offset="0" stop-color="#3ddeed"/><stop offset="1" stop-color="#cb00dd"/></linearGradient><linearGradient id="New_Gradient_Swatch_2-2" x1="69.18" y1="96.24" x2="97.8" y2="96.24" xlink:href="#New_Gradient_Swatch_2"/><linearGradient id="New_Gradient_Swatch_2-3" x1="68.22" y1="96.24" x2="98.76" y2="96.24" xlink:href="#New_Gradient_Swatch_2"/><linearGradient id="New_Gradient_Swatch_2-4" x1="67.32" y1="96.24" x2="99.66" y2="96.24" xlink:href="#New_Gradient_Swatch_2"/><linearGradient id="New_Gradient_Swatch_2-5" x1="66.5" y1="96.24" x2="100.48" y2="96.24" xlink:href="#New_Gradient_Swatch_2"/><linearGradient id="New_Gradient_Swatch_2-6" x1="65.77" y1="96.24" x2="101.21" y2="96.24" xlink:href="#New_Gradient_Swatch_2"/><linearGradient id="New_Gradient_Swatch_2-7" x1="65.16" y1="96.24" x2="101.82" y2="96.24" xlink:href="#New_Gradient_Swatch_2"/><linearGradient id="New_Gradient_Swatch_2-8" x1="64.69" y1="96.24" x2="102.29" y2="96.24" xlink:href="#New_Gradient_Swatch_2"/><linearGradient id="New_Gradient_Swatch_2-9" x1="64.39" y1="96.24" x2="102.59" y2="96.24" xlink:href="#New_Gradient_Swatch_2"/><linearGradient id="New_Gradient_Swatch_2-10" x1="62.27" y1="96.24" x2="104.71" y2="96.24" xlink:href="#New_Gradient_Swatch_2"/><linearGradient id="New_Gradient_Swatch_2-11" x1="60.11" y1="96.24" x2="106.87" y2="96.24" xlink:href="#New_Gradient_Swatch_2"/><linearGradient id="New_Gradient_Swatch_2-12" x1="57.95" y1="96.24" x2="109.03" y2="96.24" xlink:href="#New_Gradient_Swatch_2"/><linearGradient id="New_Gradient_Swatch_2-13" x1="55.81" y1="96.24" x2="111.17" y2="96.24" xlink:href="#New_Gradient_Swatch_2"/><linearGradient id="New_Gradient_Swatch_2-14" x1="53.73" y1="96.24" x2="113.25" y2="96.24" xlink:href="#New_Gradient_Swatch_2"/><linearGradient id="New_Gradient_Swatch_2-15" x1="51.72" y1="96.24" x2="115.25" y2="96.24" xlink:href="#New_Gradient_Swatch_2"/><linearGradient id="New_Gradient_Swatch_2-16" x1="49.84" y1="96.24" x2="117.14" y2="96.24" xlink:href="#New_Gradient_Swatch_2"/><linearGradient id="New_Gradient_Swatch_2-17" x1="48.12" y1="96.24" x2="118.86" y2="96.24" xlink:href="#New_Gradient_Swatch_2"/><linearGradient id="New_Gradient_Swatch_2-18" x1="46.6" y1="96.24" x2="120.38" y2="96.24" xlink:href="#New_Gradient_Swatch_2"/><linearGradient id="New_Gradient_Swatch_2-19" x1="45.32" y1="96.24" x2="121.66" y2="96.24" xlink:href="#New_Gradient_Swatch_2"/><linearGradient id="New_Gradient_Swatch_2-20" x1="44.34" y1="96.24" x2="122.64" y2="96.24" xlink:href="#New_Gradient_Swatch_2"/><linearGradient id="New_Gradient_Swatch_2-21" x1="43.69" y1="96.24" x2="123.28" y2="96.24" xlink:href="#New_Gradient_Swatch_2"/><linearGradient id="New_Gradient_Swatch_2-22" x1="39.21" y1="96.24" x2="127.77" y2="96.24" xlink:href="#New_Gradient_Swatch_2"/><linearGradient id="New_Gradient_Swatch_2-23" x1="34.67" y1="96.24" x2="132.31" y2="96.24" xlink:href="#New_Gradient_Swatch_2"/><linearGradient id="New_Gradient_Swatch_2-24" x1="30.12" y1="96.24" x2="136.85" y2="96.24" xlink:href="#New_Gradient_Swatch_2"/><linearGradient id="New_Gradient_Swatch_2-25" x1="25.62" y1="96.24" x2="141.35" y2="96.24" xlink:href="#New_Gradient_Swatch_2"/><linearGradient id="New_Gradient_Swatch_2-26" x1="21.23" y1="96.24" x2="145.74" y2="96.24" xlink:href="#New_Gradient_Swatch_2"/><linearGradient id="New_Gradient_Swatch_2-27" x1="17.02" y1="96.24" x2="149.96" y2="96.24" xlink:href="#New_Gradient_Swatch_2"/><linearGradient id="New_Gradient_Swatch_2-28" x1="13.06" y1="96.24" x2="153.92" y2="96.24" xlink:href="#New_Gradient_Swatch_2"/><linearGradient id="New_Gradient_Swatch_2-29" x1="9.43" y1="96.24" x2="157.55" y2="96.24" xlink:href="#New_Gradient_Swatch_2"/><linearGradient id="New_Gradient_Swatch_2-30" x1="6.21" y1="96.24" x2="160.76" y2="96.24" xlink:href="#New_Gradient_Swatch_2"/><linearGradient id="New_Gradient_Swatch_2-31" x1="3.52" y1="96.24" x2="163.46" y2="96.24" xlink:href="#New_Gradient_Swatch_2"/><linearGradient id="New_Gradient_Swatch_2-32" x1="1.43" y1="96.24" x2="165.54" y2="96.24" xlink:href="#New_Gradient_Swatch_2"/><linearGradient id="New_Gradient_Swatch_2-33" x1="0" y1="96.24" x2="166.98" y2="96.24" xlink:href="#New_Gradient_Swatch_2"/></defs><g id="Layer_2" data-name="Layer 2"><g id="object"><path class="cls-1" d="M79,108.94a.22.22,0,0,1-.19-.09L70.23,98.7a.22.22,0,0,1,0-.24L74.73,86a.22.22,0,0,1,.19-.16L88,83.54a.24.24,0,0,1,.23.09l8.53,10.14a.25.25,0,0,1,0,.25l-4.54,12.45a.26.26,0,0,1-.19.16L79,108.93ZM70.7,98.49l8.35,9.93,12.78-2.26L96.27,94l-8.34-9.92L75.15,86.31Z"/><path class="cls-2" d="M77.52,109.26a.23.23,0,0,1-.2-.11l-8.1-11.54a.25.25,0,0,1,0-.25l6-12.77a.22.22,0,0,1,.2-.14l14.07-1.23a.23.23,0,0,1,.22.1l8.1,11.54a.25.25,0,0,1,0,.25l-6,12.78a.25.25,0,0,1-.2.14l-14.07,1.23ZM69.71,97.44l7.93,11.31,13.78-1.21L97.27,95l-7.93-11.3-13.78,1.2Z"/><path class="cls-3" d="M91,109.47H76a.27.27,0,0,1-.22-.12l-7.51-13a.28.28,0,0,1,0-.25l7.51-13A.26.26,0,0,1,76,83H91a.23.23,0,0,1,.21.13l7.51,13a.23.23,0,0,1,0,.25l-7.51,13A.24.24,0,0,1,91,109.47ZM76.12,109H90.85l7.37-12.73L90.85,83.5H76.12L68.76,96.24Z"/><path class="cls-4" d="M90.24,110.94h0l-15.91-1.39a.26.26,0,0,1-.21-.14L67.35,95a.25.25,0,0,1,0-.25l9.16-13.06a.28.28,0,0,1,.23-.11l15.91,1.4a.24.24,0,0,1,.21.14l6.75,14.45a.25.25,0,0,1,0,.25l-9.16,13.07A.28.28,0,0,1,90.24,110.94Zm-15.75-1.88,15.63,1.37,9-12.82-6.63-14.2L76.86,82l-9,12.83Z"/><path class="cls-5" d="M89.31,112.43h0l-16.74-3a.28.28,0,0,1-.19-.16L66.52,93.37a.21.21,0,0,1,0-.24l10.92-13a.23.23,0,0,1,.23-.08l16.74,3a.25.25,0,0,1,.2.16l5.81,15.94a.25.25,0,0,1,0,.25l-10.92,13A.27.27,0,0,1,89.31,112.43ZM72.75,109l16.46,2.9L99.94,99.14,94.22,83.46l-16.45-2.9L67,93.34Z"/><path class="cls-6" d="M88.18,113.93h-.07l-17.46-4.68a.24.24,0,0,1-.18-.18L65.78,91.62a.24.24,0,0,1,.07-.24L78.63,78.62a.23.23,0,0,1,.24-.06l17.46,4.68a.24.24,0,0,1,.18.17l4.69,17.44a.24.24,0,0,1-.07.24L88.35,113.85A.23.23,0,0,1,88.18,113.93Zm-17.27-5.14L88.1,113.4l12.58-12.56L96.06,83.68l-17.18-4.6L66.3,91.63Z"/><path class="cls-7" d="M86.84,115.4h-.09l-18.07-6.58a.22.22,0,0,1-.16-.19L65.17,89.7a.22.22,0,0,1,.08-.23L80,77.13a.24.24,0,0,1,.24,0L98.3,83.67a.24.24,0,0,1,.16.19l3.35,18.91a.27.27,0,0,1-.08.24L87,115.35A.3.3,0,0,1,86.84,115.4Zm-17.86-7,17.81,6.48,14.5-12.15L98,84.09l-17.8-6.48L65.68,89.76Z"/><path class="cls-8" d="M85.29,116.85a.2.2,0,0,1-.11,0l-18.55-8.65a.23.23,0,0,1-.14-.2l-1.8-20.36a.3.3,0,0,1,.11-.23l16.75-11.7a.25.25,0,0,1,.25,0l18.54,8.65a.25.25,0,0,1,.15.21l1.79,20.35a.25.25,0,0,1-.1.23L85.43,116.8A.24.24,0,0,1,85.29,116.85ZM67,107.78l18.28,8.53,16.51-11.55L100,84.69,81.72,76.17,65.2,87.71Z"/><path class="cls-9" d="M83.51,118.23a.28.28,0,0,1-.13,0L64.53,107.31a.25.25,0,0,1-.13-.22V85.35a.22.22,0,0,1,.12-.21L83.35,74.28a.28.28,0,0,1,.25,0l18.85,10.89a.23.23,0,0,1,.13.21v21.74a.24.24,0,0,1-.12.22L83.63,118.2A.27.27,0,0,1,83.51,118.23ZM64.9,107l18.61,10.74L102.09,107V85.53L83.47,74.79,64.89,85.5Z"/><path class="cls-10" d="M81.49,119.53a.23.23,0,0,1-.14,0l-19-13.29a.24.24,0,0,1-.11-.23l2-23a.23.23,0,0,1,.14-.2l21-9.76a.25.25,0,0,1,.25,0l19,13.28a.25.25,0,0,1,.11.23l-2,23a.26.26,0,0,1-.14.21l-21,9.76ZM62.78,105.87,81.52,119l20.7-9.63,2-22.76L85.46,73.48,64.75,83.12Z"/><path class="cls-11" d="M79.24,120.72a.27.27,0,0,1-.17-.06L60.2,104.83a.27.27,0,0,1-.09-.24l4.26-24.23a.24.24,0,0,1,.16-.19l23.13-8.4a.23.23,0,0,1,.24,0l18.88,15.84a.23.23,0,0,1,.08.23l-4.25,24.24a.26.26,0,0,1-.16.19l-23.13,8.4ZM60.63,104.54l18.66,15.65,22.85-8.3,4.21-24L87.69,72.29l-22.85,8.3Z"/><path class="cls-12" d="M76.73,121.78a.23.23,0,0,1-.17-.08L58,103.17a.26.26,0,0,1-.06-.24l6.75-25.29a.27.27,0,0,1,.18-.18l25.29-6.75a.23.23,0,0,1,.24.06L109,89.31a.26.26,0,0,1,.06.24l-6.76,25.29a.24.24,0,0,1-.17.17L76.8,121.77ZM58.48,102.92l18.33,18.33,25-6.68,6.68-25L90.17,71.23l-25,6.68Z"/><path class="cls-13" d="M74,122.66a.25.25,0,0,1-.2-.09L55.87,101.21a.24.24,0,0,1,0-.24l9.5-26.18a.26.26,0,0,1,.19-.16L93,69.82a.22.22,0,0,1,.23.08l17.93,21.36a.25.25,0,0,1,0,.25l-9.5,26.17a.24.24,0,0,1-.19.16L74,122.66ZM56.35,101l17.73,21.14,27.15-4.76,9.4-25.91L92.89,70.33,65.75,75.1Z"/><path class="cls-14" d="M71,123.35a.23.23,0,0,1-.2-.11l-17-24.3a.25.25,0,0,1,0-.25l12.5-26.86a.25.25,0,0,1,.2-.14L96,69.13a.23.23,0,0,1,.22.11l17,24.3a.23.23,0,0,1,0,.24l-12.5,26.86a.28.28,0,0,1-.2.15L71,123.35ZM54.26,98.77l16.85,24.06,29.23-2.53,12.37-26.6L95.87,69.64,66.64,72.18Z"/><path class="cls-15" d="M99.27,123.82h0l-31.52,0a.22.22,0,0,1-.21-.12L51.76,96.34a.23.23,0,0,1,0-.25L67.49,68.78a.27.27,0,0,1,.22-.12h0l31.52,0a.23.23,0,0,1,.21.13l15.78,27.33a.23.23,0,0,1,0,.25l-15.74,27.3A.23.23,0,0,1,99.27,123.82Zm-31.37-.53,31.22,0,15.6-27.06L99.08,69.18l-31.23,0L52.26,96.21Z"/><path class="cls-16" d="M97.68,126.91h0L64.26,124a.27.27,0,0,1-.21-.15L49.87,93.4a.25.25,0,0,1,0-.25L69.1,65.67a.28.28,0,0,1,.22-.11l33.4,3a.23.23,0,0,1,.2.14l14.19,30.43a.25.25,0,0,1,0,.25L97.88,126.81A.25.25,0,0,1,97.68,126.91Zm-33.23-3.43,33.11,2.92,19-27.24L102.53,69,69.42,66.07l-19,27.25Z"/><path class="cls-17" d="M95.7,130.05h0l-35.12-6.22a.22.22,0,0,1-.19-.16L48.13,90.1a.24.24,0,0,1,0-.24l22.9-27.34a.27.27,0,0,1,.24-.09l35.12,6.22a.26.26,0,0,1,.19.16l12.21,33.56a.25.25,0,0,1,0,.25L95.9,130A.25.25,0,0,1,95.7,130.05Zm-34.93-6.69,34.84,6.17,22.72-27.12L106.21,69.12,71.37,63,48.65,90.07Z"/><path class="cls-18" d="M93.32,133.19h-.06l-36.65-9.85a.24.24,0,0,1-.17-.18l-9.83-36.7a.24.24,0,0,1,.06-.24L73.48,59.36a.23.23,0,0,1,.24-.06l36.64,9.85a.24.24,0,0,1,.18.17l9.83,36.7a.23.23,0,0,1-.06.24L93.5,133.11A.25.25,0,0,1,93.32,133.19ZM56.88,122.88l36.37,9.78L119.85,106l-9.76-36.42L73.73,59.82,47.13,86.46Z"/><path class="cls-19" d="M90.51,136.29h-.09L52.5,122.44a.26.26,0,0,1-.16-.19l-7-39.8a.27.27,0,0,1,.09-.24l30.9-26a.25.25,0,0,1,.25,0L114.48,70a.28.28,0,0,1,.16.19l7,39.81a.24.24,0,0,1-.09.23l-30.9,26A.25.25,0,0,1,90.51,136.29ZM52.81,122l37.65,13.74L121.14,110l-7-39.52L76.52,56.72,45.84,82.5Z"/><path class="cls-20" d="M87.24,139.32a.2.2,0,0,1-.11,0l-38.9-18.18a.26.26,0,0,1-.15-.2L44.34,78.08a.23.23,0,0,1,.1-.22L79.6,53.2a.25.25,0,0,1,.25,0l38.9,18.17a.24.24,0,0,1,.14.21l3.75,42.83a.25.25,0,0,1-.1.23L87.38,139.28A.23.23,0,0,1,87.24,139.32ZM48.57,120.73l38.64,18.06,34.92-24.5-3.72-42.54L79.77,53.69,44.85,78.18Z"/><path class="cls-21" d="M83.49,142.23a.31.31,0,0,1-.13,0L43.82,119.33a.26.26,0,0,1-.13-.22V73.37a.25.25,0,0,1,.13-.22L83.36,50.28a.23.23,0,0,1,.25,0l39.55,22.87a.24.24,0,0,1,.12.22v45.74a.25.25,0,0,1-.12.22L83.61,142.2A.24.24,0,0,1,83.49,142.23ZM44.19,119l39.3,22.72L122.78,119V73.51L83.49,50.78,44.19,73.51Z"/><path class="cls-22" d="M79.25,145a.3.3,0,0,1-.15-.05L39.32,117a.25.25,0,0,1-.11-.23l4.24-48.48a.23.23,0,0,1,.15-.2l44-20.58a.27.27,0,0,1,.25,0l39.79,27.91a.24.24,0,0,1,.11.23l-4.24,48.48a.28.28,0,0,1-.15.2l-44,20.57A.19.19,0,0,1,79.25,145ZM39.72,116.69l39.55,27.74L123,124l4.22-48.19L87.71,48.05,43.94,68.5Z"/><path class="cls-23" d="M74.5,147.47a.23.23,0,0,1-.16-.06L34.76,114.15a.27.27,0,0,1-.09-.24l9-51a.26.26,0,0,1,.16-.19L92.39,45a.28.28,0,0,1,.25,0l39.58,33.27a.22.22,0,0,1,.08.23l-9,51a.24.24,0,0,1-.16.2L74.59,147.46ZM35.19,113.86l39.36,33.08,48.3-17.62,8.94-50.7L92.43,45.54,44.13,63.16Z"/><path class="cls-24" d="M69.23,149.69a.25.25,0,0,1-.17-.08L30.2,110.69a.24.24,0,0,1-.07-.24l14.26-53.2a.24.24,0,0,1,.17-.17L97.68,42.8a.26.26,0,0,1,.24.06l38.86,38.93a.26.26,0,0,1,.07.24l-14.26,53.19a.24.24,0,0,1-.17.18L69.3,149.68ZM30.65,110.44l38.66,38.72L122.15,135,136.33,82,97.67,43.32,44.83,57.52Z"/><path class="cls-25" d="M63.45,151.54a.25.25,0,0,1-.19-.09L25.68,106.6a.26.26,0,0,1,0-.24l20-55.06a.26.26,0,0,1,.19-.16l57.61-10.2a.24.24,0,0,1,.24.08L141.3,85.87a.28.28,0,0,1,0,.25l-20,55a.25.25,0,0,1-.19.17l-57.62,10.2ZM26.16,106.39,63.55,151l57.33-10.15,19.94-54.79L103.43,41.45,46.1,51.61Z"/><path class="cls-26" d="M57.15,153a.26.26,0,0,1-.21-.11l-35.66-51a.23.23,0,0,1,0-.24L47.6,45.12a.24.24,0,0,1,.2-.15l62-5.47a.25.25,0,0,1,.23.11l35.66,51a.25.25,0,0,1,0,.25l-26.34,56.49a.24.24,0,0,1-.21.14l-62,5.48ZM21.77,101.69l35.5,50.78L119,147l26.22-56.23L109.71,40,48,45.46Z"/><path class="cls-27" d="M50.34,153.91a.26.26,0,0,1-.22-.12L17.05,96.41a.28.28,0,0,1,0-.25L50.21,38.74a.23.23,0,0,1,.21-.13l66.22,0h0a.25.25,0,0,1,.22.13l33.06,57.37a.23.23,0,0,1,0,.25l-33.15,57.43a.26.26,0,0,1-.22.12l-66.21,0ZM17.56,96.29l32.92,57.12,65.93,0,33-57.17L116.5,39.06l-65.93,0Z"/><path class="cls-28" d="M113.21,160.36h0L43,154.27a.26.26,0,0,1-.21-.14L13.08,90.26a.25.25,0,0,1,0-.25L53.56,32.23a.24.24,0,0,1,.23-.11L124,38.21a.24.24,0,0,1,.21.14l29.72,63.87a.25.25,0,0,1,0,.25l-40.46,57.78A.26.26,0,0,1,113.21,160.36Zm-70-6.58,69.9,6.07,40.29-57.55-29.6-63.61L53.89,32.63,13.59,90.18Z"/><path class="cls-29" d="M109.07,166.93h0L35.21,154a.26.26,0,0,1-.19-.16L9.44,83.37a.28.28,0,0,1,0-.25L57.72,25.63a.27.27,0,0,1,.24-.08l73.81,13a.22.22,0,0,1,.19.16l25.58,70.44a.26.26,0,0,1,0,.25l-48.23,57.48A.25.25,0,0,1,109.07,166.93ZM35.44,153.5,109,166.41,157,109.14,131.54,39,58,26.07,10,83.33Z"/><path class="cls-30" d="M104.06,173.51H104L27,152.93a.24.24,0,0,1-.17-.18l-20.58-77a.24.24,0,0,1,.07-.24L62.74,19A.24.24,0,0,1,63,19l77,20.58a.24.24,0,0,1,.18.17l20.58,77a.27.27,0,0,1-.07.24l-56.45,56.45A.24.24,0,0,1,104.06,173.51Zm-76.82-21L104,173l56.25-56.24L139.74,40,63,19.49,6.74,75.74Z"/><path class="cls-31" d="M98.15,180l-.08,0L18.35,151.06a.25.25,0,0,1-.17-.19L3.52,67.33a.26.26,0,0,1,.09-.23L68.67,12.51a.21.21,0,0,1,.24,0l79.72,28.94a.24.24,0,0,1,.16.19l14.67,83.54a.27.27,0,0,1-.09.24L98.31,180A.23.23,0,0,1,98.15,180Zm-79.5-29.39L98.1,179.49l64.84-54.4L148.33,41.83,68.88,13,4,67.39Z"/><path class="cls-32" d="M91.28,186.38l-.1,0L9.37,148.29a.26.26,0,0,1-.14-.21L1.44,58.19a.26.26,0,0,1,.1-.23l74-51.82a.25.25,0,0,1,.25,0l81.8,38.07a.25.25,0,0,1,.15.2l7.79,89.9a.24.24,0,0,1-.1.22l-74,51.82A.3.3,0,0,1,91.28,186.38ZM9.72,147.89l81.54,38L165,134.18l-7.77-89.6L75.72,6.63,2,58.29Z"/><path class="cls-33" d="M83.42,192.48a.28.28,0,0,1-.13,0L.13,144.51A.23.23,0,0,1,0,144.3l.07-96a.26.26,0,0,1,.13-.22L83.44,0a.28.28,0,0,1,.25,0L166.85,48a.26.26,0,0,1,.13.22l-.08,96a.22.22,0,0,1-.12.21L83.54,192.44A.28.28,0,0,1,83.42,192.48ZM.5,144.15l82.92,47.79,83-47.92.08-95.7L83.56.54.57,48.45Z"/></g></g></svg>