<svg xmlns="http://www.w3.org/2000/svg" viewBox="0 0 191.78 184.49"><defs><style>.cls-1{isolation:isolate;}.cls-2{mix-blend-mode:screen;}.cls-3{opacity:0;}.cls-4{fill:#5f00f0;}.cls-5{opacity:0;}.cls-6{opacity:0.01;}.cls-7{opacity:0.01;}.cls-8{opacity:0.01;}.cls-9{opacity:0.01;}.cls-10{opacity:0.02;}.cls-11{opacity:0.02;}.cls-12{opacity:0.02;}.cls-13{opacity:0.02;}.cls-14{opacity:0.03;}.cls-15{opacity:0.03;}.cls-16{opacity:0.03;}.cls-17{opacity:0.03;}.cls-18{opacity:0.04;}.cls-19{opacity:0.04;}.cls-20{opacity:0.04;}.cls-21{opacity:0.04;}.cls-22{opacity:0.05;}.cls-23{opacity:0.05;}.cls-24{opacity:0.05;}.cls-25{opacity:0.05;}.cls-26{opacity:0.06;}.cls-27{fill:#a067f6;}.cls-28{fill:#e1cffc;}</style></defs><g class="cls-1"><g id="Layer_2" data-name="Layer 2"><g id="Layer_1-2" data-name="Layer 1"><g class="cls-2"><g class="cls-3"><path class="cls-4" d="M131.11,184.49A21.65,21.65,0,0,1,116.72,179L7.27,81.71a21.67,21.67,0,0,1,8.26-37L164,.89a21.67,21.67,0,0,1,27,26.55L152,168.59a21.66,21.66,0,0,1-14.74,15A21.92,21.92,0,0,1,131.11,184.49ZM65.22,75.25,119.5,123.5l19.34-70Z"/></g><g class="cls-5"><path class="cls-4" d="M131.11,183.65a20.85,20.85,0,0,1-13.84-5.26L7.83,81.09a20.84,20.84,0,0,1,7.93-35.55L164.21,1.69a20.83,20.83,0,0,1,26,25.53l-39,141.15a20.82,20.82,0,0,1-20.08,15.28ZM63.54,74.87,119.94,125,140,52.27Z"/></g><g class="cls-6"><path class="cls-4" d="M131.11,182.82a20,20,0,0,1-13.29-5L8.38,80.47A20,20,0,0,1,16,46.34L164.45,2.49A20,20,0,0,1,189.39,27l-39,141.16a20,20,0,0,1-19.28,14.67ZM61.87,74.5l58.52,52,20.86-75.48Z"/></g><g class="cls-7"><path class="cls-4" d="M131.11,182a19.16,19.16,0,0,1-12.73-4.85L8.93,79.84a19.16,19.16,0,0,1,7.31-32.7L164.68,3.29a19.16,19.16,0,0,1,23.91,23.48l-39,141.15A19.2,19.2,0,0,1,131.11,182ZM60.19,74.12,120.84,128l21.61-78.22Z"/></g><g class="cls-8"><path class="cls-4" d="M131.11,181.15a18.35,18.35,0,0,1-12.18-4.63L9.49,79.22a18.32,18.32,0,0,1,7-31.28L164.92,4.08a18.34,18.34,0,0,1,22.86,22.47l-39,141.15a18.31,18.31,0,0,1-12.48,12.7A18.05,18.05,0,0,1,131.11,181.15ZM58.52,73.75l62.76,55.8,22.37-81Z"/></g><g class="cls-9"><path class="cls-4" d="M131.11,180.32a17.54,17.54,0,0,1-11.63-4.42L10,78.6a17.5,17.5,0,0,1,6.67-29.86L165.16,4.88A17.5,17.5,0,0,1,187,26.33L148,167.48a17.52,17.52,0,0,1-16.87,12.84ZM56.84,73.38l64.89,57.68,23.12-83.68Z"/></g><g class="cls-10"><path class="cls-4" d="M131.11,179.49A16.65,16.65,0,0,1,120,175.27L10.59,78A16.67,16.67,0,0,1,17,49.54L165.39,5.68a16.68,16.68,0,0,1,20.79,20.43l-39,141.15a16.72,16.72,0,0,1-16.07,12.23ZM55.17,73l67,59.57,23.88-86.42Z"/></g><g class="cls-11"><path class="cls-4" d="M131.11,178.65a15.84,15.84,0,0,1-10.52-4L11.15,77.35a15.84,15.84,0,0,1,6-27L165.63,6.48a15.84,15.84,0,0,1,19.75,19.4L146.37,167a15.83,15.83,0,0,1-15.26,11.61Zm-77.62-106,69.13,61.46,24.64-89.16Z"/></g><g class="cls-12"><path class="cls-4" d="M131.11,177.82a15.05,15.05,0,0,1-10-3.79L11.7,76.73a15,15,0,0,1,5.72-25.6L165.86,7.28a15,15,0,0,1,18.71,18.38l-39,141.15a15,15,0,0,1-10.21,10.39A14.77,14.77,0,0,1,131.11,177.82ZM51.82,72.25l71.25,63.35,25.39-91.9Z"/></g><g class="cls-13"><path class="cls-4" d="M131.11,177a14.2,14.2,0,0,1-9.41-3.58L12.25,76.11a14.17,14.17,0,0,1,5.4-24.18L166.1,8.08a14.17,14.17,0,0,1,17.67,17.36l-39,141.15A14.18,14.18,0,0,1,131.11,177Zm-81-105.11,73.38,65.23,26.15-94.63Z"/></g><g class="cls-14"><path class="cls-4" d="M131.11,176.15a13.33,13.33,0,0,1-8.86-3.37L12.81,75.48a13.33,13.33,0,0,1,5.08-22.75L166.34,8.88A13.34,13.34,0,0,1,183,25.22L144,166.37a13.34,13.34,0,0,1-9.07,9.24A13.65,13.65,0,0,1,131.11,176.15ZM48.47,71.51,124,138.62l26.91-97.36Z"/></g><g class="cls-15"><path class="cls-4" d="M131.11,175.32a12.52,12.52,0,0,1-8.31-3.16L13.36,74.86a12.5,12.5,0,0,1,4.77-21.33L166.57,9.68A12.5,12.5,0,0,1,182.16,25l-39,141.15a12.49,12.49,0,0,1-12,9.17ZM46.79,71.13l77.62,69L152.07,40Z"/></g><g class="cls-16"><path class="cls-4" d="M131.11,174.49a11.68,11.68,0,0,1-7.75-3L13.92,74.24a11.67,11.67,0,0,1,4.44-19.91L166.81,10.48a11.66,11.66,0,0,1,14.55,14.29l-39,141.16a11.68,11.68,0,0,1-11.25,8.56Zm-86-103.73,79.74,70.89L153.27,38.81Z"/></g><g class="cls-17"><path class="cls-4" d="M131.11,173.65a10.82,10.82,0,0,1-7.2-2.74L14.47,73.62A10.83,10.83,0,0,1,18.6,55.13L167,11.28a10.83,10.83,0,0,1,13.52,13.27l-39,141.15a10.81,10.81,0,0,1-10.44,8ZM43.44,70.38l81.86,72.78L154.48,37.58Z"/></g><g class="cls-18"><path class="cls-4" d="M131.11,172.82a10,10,0,0,1-6.64-2.53L15,73a10,10,0,0,1,3.81-17.06L167.28,12.08a10,10,0,0,1,12.47,12.25l-39,141.15a10,10,0,0,1-6.81,6.93A10.14,10.14,0,0,1,131.11,172.82ZM41.77,70l84,74.66L155.68,36.36Z"/></g><g class="cls-19"><path class="cls-4" d="M131.11,172a9.17,9.17,0,0,1-6.09-2.32L15.58,72.37a9.16,9.16,0,0,1,3.49-15.64L167.52,12.88A9.16,9.16,0,0,1,179,24.11L140,165.26a9.2,9.2,0,0,1-6.24,6.35A9.3,9.3,0,0,1,131.11,172Zm-91-102.36,86.11,76.55,30.68-111Z"/></g><g class="cls-20"><path class="cls-4" d="M131.11,171.15a8.37,8.37,0,0,1-5.54-2.1L16.13,71.75a8.33,8.33,0,0,1,3.18-14.22L167.75,13.68a8.34,8.34,0,0,1,10.4,10.21L139.14,165a8.32,8.32,0,0,1-8,6.11ZM38.42,69.26l88.22,78.44L158.09,33.91Z"/></g><g class="cls-21"><path class="cls-4" d="M131.11,170.32a7.48,7.48,0,0,1-5-1.9L16.68,71.12a7.5,7.5,0,0,1,2.86-12.79L168,14.47a7.5,7.5,0,0,1,9.35,9.19l-39,141.16a7.5,7.5,0,0,1-5.1,5.19A7.42,7.42,0,0,1,131.11,170.32ZM36.74,68.89l90.35,80.32,32.2-116.52Z"/></g><g class="cls-22"><path class="cls-4" d="M131.11,169.49a6.68,6.68,0,0,1-4.43-1.69L17.24,70.5a6.66,6.66,0,0,1,2.54-11.37L168.22,15.27a6.67,6.67,0,0,1,8.32,8.17l-39,141.15a6.68,6.68,0,0,1-4.54,4.62A6.46,6.46,0,0,1,131.11,169.49Zm-96-101,92.47,82.21,33-119.26Z"/></g><g class="cls-23"><path class="cls-4" d="M131.11,168.65a5.86,5.86,0,0,1-3.88-1.47L17.79,69.88A5.83,5.83,0,0,1,20,59.93L168.46,16.07a5.84,5.84,0,0,1,7.28,7.15l-39,141.15a5.84,5.84,0,0,1-5.62,4.28ZM33.39,68.14,128,152.23l33.71-122Z"/></g><g class="cls-24"><path class="cls-4" d="M131.11,167.82a5,5,0,0,1-3.32-1.26L18.34,69.26a5,5,0,0,1,1.91-8.54L168.7,16.87A5,5,0,0,1,174.93,23l-39,141.15a5,5,0,0,1-4.82,3.67ZM31.72,67.76l96.71,86L162.9,29Z"/></g><g class="cls-25"><path class="cls-4" d="M131.11,167a4.17,4.17,0,0,1-2.77-1.06L18.9,68.63a4.16,4.16,0,0,1,1.59-7.11L168.93,17.67a4.17,4.17,0,0,1,5.2,5.11l-39,141.15a4.16,4.16,0,0,1-2.84,2.88A4,4,0,0,1,131.11,167ZM30,67.39l98.84,87.87L164.1,27.79Z"/></g><g class="cls-26"><path class="cls-4" d="M131.11,166.15a3.29,3.29,0,0,1-2.21-.84L19.45,68a3.33,3.33,0,0,1,1.27-5.69L169.17,18.47a3.34,3.34,0,0,1,4.16,4.08l-39,141.16a3.3,3.3,0,0,1-3.21,2.44ZM28.37,67l100.95,89.75,36-130.21Z"/></g><path class="cls-4" d="M131.11,165.32a2.51,2.51,0,0,1-1.66-.63L20,67.39A2.5,2.5,0,0,1,21,63.12L169.41,19.27a2.49,2.49,0,0,1,3.11,3.06l-39,141.15a2.5,2.5,0,0,1-1.7,1.74A2.83,2.83,0,0,1,131.11,165.32ZM26.69,66.64l103.08,91.64L166.51,25.34Z"/><path class="cls-27" d="M131.11,164.32a1.5,1.5,0,0,1-1-.38L20.67,66.64a1.5,1.5,0,0,1-.47-1.45,1.52,1.52,0,0,1,1-1.11L169.69,20.23a1.48,1.48,0,0,1,1.47.37,1.51,1.51,0,0,1,.4,1.47l-39,141.15a1.52,1.52,0,0,1-1,1A1.59,1.59,0,0,1,131.11,164.32ZM24.68,66.19,130.31,160.1,168,23.87Z"/><path class="cls-28" d="M131.11,163.32a.51.51,0,0,1-.33-.13L21.34,65.89a.49.49,0,0,1,.19-.85L170,21.19a.47.47,0,0,1,.49.12.52.52,0,0,1,.14.49L131.59,163a.48.48,0,0,1-.34.35ZM22.67,65.74l108.17,96.17L169.39,22.4Z"/></g></g></g></g></svg>