<svg xmlns="http://www.w3.org/2000/svg" xmlns:xlink="http://www.w3.org/1999/xlink" viewBox="0 0 7815.28 569.61"><defs><style>.cls-1,.cls-12,.cls-2,.cls-3,.cls-4,.cls-5,.cls-6,.cls-66{fill:none;}.cls-1,.cls-2,.cls-3,.cls-4,.cls-5{stroke:#000;}.cls-1,.cls-12,.cls-2,.cls-3,.cls-4,.cls-5,.cls-53,.cls-56,.cls-64,.cls-66{stroke-miterlimit:10;}.cls-1{stroke-width:3px;}.cls-2{stroke-width:4px;}.cls-3{stroke-width:8px;}.cls-4{stroke-width:16px;}.cls-5{stroke-width:2px;}.cls-7{isolation:isolate;}.cls-8{clip-path:url(#clip-path);}.cls-9{mask:url(#mask);}.cls-10{fill:url(#Degradado_sin_nombre_73);}.cls-11{fill:url(#linear-gradient);}.cls-12{stroke:#8300a3;stroke-width:0.5px;}.cls-13,.cls-67,.cls-68{mix-blend-mode:screen;}.cls-14{fill:url(#Degradado_sin_nombre_12);}.cls-15{fill:url(#Degradado_sin_nombre_70);}.cls-16{fill:url(#Degradado_sin_nombre_12-2);}.cls-17{fill:url(#Degradado_sin_nombre_70-2);}.cls-18{fill:url(#Degradado_sin_nombre_12-3);}.cls-19{fill:url(#Degradado_sin_nombre_70-3);}.cls-20{fill:url(#Degradado_sin_nombre_12-4);}.cls-21{fill:url(#Degradado_sin_nombre_70-4);}.cls-22{fill:url(#Degradado_sin_nombre_12-5);}.cls-23{fill:url(#Degradado_sin_nombre_70-5);}.cls-24{fill:url(#Degradado_sin_nombre_12-6);}.cls-25{fill:url(#Degradado_sin_nombre_70-6);}.cls-26{fill:url(#Degradado_sin_nombre_12-7);}.cls-27{fill:url(#Degradado_sin_nombre_70-7);}.cls-28{fill:url(#Degradado_sin_nombre_12-8);}.cls-29{fill:url(#Degradado_sin_nombre_70-8);}.cls-30{fill:url(#Degradado_sin_nombre_12-9);}.cls-31{fill:url(#Degradado_sin_nombre_70-9);}.cls-32{fill:url(#Degradado_sin_nombre_12-10);}.cls-33{fill:url(#Degradado_sin_nombre_70-10);}.cls-34{fill:url(#Degradado_sin_nombre_12-11);}.cls-35{fill:url(#Degradado_sin_nombre_70-11);}.cls-36{fill:url(#Degradado_sin_nombre_12-12);}.cls-37{fill:url(#Degradado_sin_nombre_70-12);}.cls-38{fill:url(#Degradado_sin_nombre_12-13);}.cls-39{fill:url(#Degradado_sin_nombre_70-13);}.cls-40{fill:url(#Degradado_sin_nombre_12-14);}.cls-41{fill:url(#Degradado_sin_nombre_70-14);}.cls-42{fill:url(#Degradado_sin_nombre_12-15);}.cls-43{fill:url(#Degradado_sin_nombre_70-15);}.cls-44{fill:url(#Degradado_sin_nombre_12-16);}.cls-45{fill:url(#Degradado_sin_nombre_70-16);}.cls-46{fill:url(#Degradado_sin_nombre_12-17);}.cls-47{fill:url(#Degradado_sin_nombre_70-17);}.cls-48{fill:url(#Degradado_sin_nombre_12-18);}.cls-49{fill:url(#Degradado_sin_nombre_70-18);}.cls-50{fill:url(#Degradado_sin_nombre_12-19);}.cls-51{fill:url(#Degradado_sin_nombre_70-19);}.cls-52{fill:#fff;}.cls-53,.cls-55,.cls-56,.cls-58,.cls-59,.cls-61,.cls-64,.cls-65{fill:#7a28a5;}.cls-53,.cls-54,.cls-55,.cls-56,.cls-57,.cls-58,.cls-59,.cls-60,.cls-61,.cls-62,.cls-63,.cls-64,.cls-65{stroke:#00fff8;}.cls-53,.cls-54,.cls-55{stroke-width:0.31px;}.cls-54,.cls-57,.cls-60,.cls-62,.cls-63{fill:#541387;}.cls-54,.cls-55,.cls-57,.cls-58,.cls-59,.cls-60,.cls-61,.cls-62,.cls-63,.cls-65{stroke-linecap:round;stroke-linejoin:round;}.cls-56,.cls-57,.cls-58{stroke-width:0.13px;}.cls-59,.cls-60{stroke-width:0.34px;}.cls-61,.cls-62{stroke-width:0.36px;}.cls-63,.cls-64,.cls-65{stroke-width:0.33px;}.cls-66{stroke:#fff;stroke-width:0.61px;}.cls-67{fill:url(#Degradado_sin_nombre_38);}.cls-68{fill:url(#Degradado_sin_nombre_38-2);}.cls-69{filter:url(#luminosity-noclip);}</style><clipPath id="clip-path" transform="translate(3532.64 5.51)"><polygon class="cls-6" points="0 0 0 305.65 0 310.32 0 500 750 500 750 310.32 750 305.65 750 0 0 0"/></clipPath><filter id="luminosity-noclip" x="247.99" y="64.05" width="250.61" height="236.38" filterUnits="userSpaceOnUse" color-interpolation-filters="sRGB"><feFlood flood-color="#fff" result="bg"/><feBlend in="SourceGraphic" in2="bg"/></filter><mask id="mask" x="3780.63" y="69.56" width="250.61" height="236.38" maskUnits="userSpaceOnUse"><g class="cls-69"><g transform="translate(3532.64 5.51)"><line class="cls-1" x1="247.99" y1="184.64" x2="498.6" y2="184.64"/><line class="cls-2" x1="247.99" y1="198.65" x2="498.6" y2="198.65"/><line class="cls-3" x1="247.99" y1="213.66" x2="498.6" y2="213.66"/><line class="cls-4" x1="247.99" y1="234.67" x2="498.6" y2="234.67"/><line class="cls-4" x1="247.99" y1="256.71" x2="498.6" y2="256.71"/><line class="cls-5" x1="247.99" y1="236.68" x2="498.6" y2="236.68"/></g></g></mask><linearGradient id="Degradado_sin_nombre_73" x1="375" y1="300.43" x2="375" y2="64.05" gradientTransform="translate(238.7 -211.79) rotate(45)" gradientUnits="userSpaceOnUse"><stop offset="0" stop-color="#ff0393"/><stop offset="0.09" stop-color="#ff0d8d"/><stop offset="0.23" stop-color="#ff287e"/><stop offset="0.42" stop-color="#ff5364"/><stop offset="0.64" stop-color="#ff9041"/><stop offset="0.89" stop-color="#ffdc14"/><stop offset="1" stop-color="#ff0"/></linearGradient><linearGradient id="linear-gradient" x1="3532.64" y1="394.7" x2="4282.64" y2="394.7" gradientUnits="userSpaceOnUse"><stop offset="0" stop-color="#0c0128"/><stop offset="0.5" stop-color="#1c0051"/><stop offset="1" stop-color="#0c0128"/></linearGradient><radialGradient id="Degradado_sin_nombre_12" cx="327.3" cy="459.38" r="141.7" gradientTransform="translate(3303.3 371.77) scale(1.73 0.03)" gradientUnits="userSpaceOnUse"><stop offset="0" stop-color="#ff0"/><stop offset="0.01" stop-color="#fff605" stop-opacity="0.96"/><stop offset="0.05" stop-color="#ffc920" stop-opacity="0.78"/><stop offset="0.09" stop-color="#ff9e39" stop-opacity="0.61"/><stop offset="0.14" stop-color="#ff794e" stop-opacity="0.47"/><stop offset="0.2" stop-color="#ff5961" stop-opacity="0.34"/><stop offset="0.25" stop-color="#ff3e71" stop-opacity="0.23"/><stop offset="0.32" stop-color="#ff287d" stop-opacity="0.15"/><stop offset="0.4" stop-color="#ff1787" stop-opacity="0.08"/><stop offset="0.49" stop-color="#ff0c8e" stop-opacity="0.03"/><stop offset="0.63" stop-color="#ff0592" stop-opacity="0.01"/><stop offset="1" stop-color="#ff0393" stop-opacity="0"/></radialGradient><radialGradient id="Degradado_sin_nombre_70" cx="327.3" cy="459.38" r="104.76" gradientTransform="translate(3303.3 371.77) scale(1.73 0.03)" gradientUnits="userSpaceOnUse"><stop offset="0" stop-color="#fff"/><stop offset="0" stop-color="#fff6fb" stop-opacity="0.96"/><stop offset="0.03" stop-color="#ffc9e8" stop-opacity="0.78"/><stop offset="0.06" stop-color="#ff9ed5" stop-opacity="0.61"/><stop offset="0.09" stop-color="#ff79c5" stop-opacity="0.47"/><stop offset="0.12" stop-color="#ff59b8" stop-opacity="0.34"/><stop offset="0.15" stop-color="#ff3eac" stop-opacity="0.23"/><stop offset="0.19" stop-color="#ff28a3" stop-opacity="0.15"/><stop offset="0.24" stop-color="#ff179c" stop-opacity="0.08"/><stop offset="0.3" stop-color="#ff0c97" stop-opacity="0.03"/><stop offset="0.38" stop-color="#ff0594" stop-opacity="0.01"/><stop offset="0.61" stop-color="#ff0393" stop-opacity="0"/></radialGradient><radialGradient id="Degradado_sin_nombre_12-2" cx="471.09" cy="4322.86" r="141.7" xlink:href="#Degradado_sin_nombre_12"/><radialGradient id="Degradado_sin_nombre_70-2" cx="471.09" cy="4322.86" r="104.76" xlink:href="#Degradado_sin_nombre_70"/><radialGradient id="Degradado_sin_nombre_12-3" cx="522.58" cy="-2522.08" r="141.7" xlink:href="#Degradado_sin_nombre_12"/><radialGradient id="Degradado_sin_nombre_70-3" cx="522.58" cy="-2522.08" r="104.76" xlink:href="#Degradado_sin_nombre_70"/><radialGradient id="Degradado_sin_nombre_12-4" cx="516.44" cy="-1545.22" r="141.7" xlink:href="#Degradado_sin_nombre_12"/><radialGradient id="Degradado_sin_nombre_70-4" cx="516.44" cy="-1545.22" r="104.76" xlink:href="#Degradado_sin_nombre_70"/><radialGradient id="Degradado_sin_nombre_12-5" cx="522.98" cy="983.48" r="141.7" xlink:href="#Degradado_sin_nombre_12"/><radialGradient id="Degradado_sin_nombre_70-5" cx="522.98" cy="983.48" r="104.76" xlink:href="#Degradado_sin_nombre_70"/><radialGradient id="Degradado_sin_nombre_12-6" cx="384.1" cy="-1836.05" r="141.7" xlink:href="#Degradado_sin_nombre_12"/><radialGradient id="Degradado_sin_nombre_70-6" cx="384.1" cy="-1836.05" r="104.76" xlink:href="#Degradado_sin_nombre_70"/><radialGradient id="Degradado_sin_nombre_12-7" cx="165.05" cy="3552.9" r="141.7" xlink:href="#Degradado_sin_nombre_12"/><radialGradient id="Degradado_sin_nombre_70-7" cx="165.05" cy="3552.9" r="104.76" xlink:href="#Degradado_sin_nombre_70"/><radialGradient id="Degradado_sin_nombre_12-8" cx="228" cy="4322.86" r="141.7" xlink:href="#Degradado_sin_nombre_12"/><radialGradient id="Degradado_sin_nombre_70-8" cx="228" cy="4322.86" r="104.76" xlink:href="#Degradado_sin_nombre_70"/><radialGradient id="Degradado_sin_nombre_12-9" cx="212.27" cy="1553.01" r="141.7" xlink:href="#Degradado_sin_nombre_12"/><radialGradient id="Degradado_sin_nombre_70-9" cx="212.27" cy="1553.01" r="104.76" xlink:href="#Degradado_sin_nombre_70"/><radialGradient id="Degradado_sin_nombre_12-10" cx="482.55" cy="-35.62" r="141.62" gradientTransform="matrix(1.31, 0.84, -0.01, 0.02, -23.56, 0.92)" xlink:href="#Degradado_sin_nombre_12"/><radialGradient id="Degradado_sin_nombre_70-10" cx="482.55" cy="-35.62" r="104.7" gradientTransform="matrix(1.31, 0.84, -0.01, 0.02, -23.56, 0.92)" xlink:href="#Degradado_sin_nombre_70"/><radialGradient id="Degradado_sin_nombre_12-11" cx="155.37" cy="9039.93" r="141.58" gradientTransform="matrix(-1.51, 0.37, -0.01, -0.03, 350.74, 504.32)" xlink:href="#Degradado_sin_nombre_12"/><radialGradient id="Degradado_sin_nombre_70-11" cx="155.37" cy="9039.93" r="104.67" gradientTransform="matrix(-1.51, 0.37, -0.01, -0.03, 350.74, 504.32)" xlink:href="#Degradado_sin_nombre_70"/><radialGradient id="Degradado_sin_nombre_12-12" cx="172.29" cy="6047.07" r="141.47" gradientTransform="matrix(-1.42, 0.64, -0.01, -0.02, 358.75, 438.28)" xlink:href="#Degradado_sin_nombre_12"/><radialGradient id="Degradado_sin_nombre_70-12" cx="172.29" cy="6047.07" r="104.59" gradientTransform="matrix(-1.42, 0.64, -0.01, -0.02, 358.75, 438.28)" xlink:href="#Degradado_sin_nombre_70"/><radialGradient id="Degradado_sin_nombre_12-13" cx="44.39" cy="5256.93" r="141.68" gradientTransform="matrix(-1.32, 0.83, -0.01, -0.02, 371.74, 420.46)" xlink:href="#Degradado_sin_nombre_12"/><radialGradient id="Degradado_sin_nombre_70-13" cx="44.39" cy="5256.92" r="104.75" gradientTransform="matrix(-1.32, 0.83, -0.01, -0.02, 371.74, 420.46)" xlink:href="#Degradado_sin_nombre_70"/><radialGradient id="Degradado_sin_nombre_12-14" cx="464.98" cy="-3469.8" r="141.51" gradientTransform="matrix(1.51, 0.37, -0.01, 0.03, -90.66, 232.67)" xlink:href="#Degradado_sin_nombre_12"/><radialGradient id="Degradado_sin_nombre_70-14" cx="464.98" cy="-3469.8" r="104.63" gradientTransform="matrix(1.51, 0.37, -0.01, 0.03, -90.66, 232.67)" xlink:href="#Degradado_sin_nombre_70"/><radialGradient id="Degradado_sin_nombre_12-15" cx="436.12" cy="319.5" r="141.64" gradientTransform="matrix(0.78, 0.83, -0.01, 0.01, 150.75, 6.67)" xlink:href="#Degradado_sin_nombre_12"/><radialGradient id="Degradado_sin_nombre_70-15" cx="436.12" cy="319.5" r="104.72" gradientTransform="matrix(0, 1.13, -0.02, 0, 490.79, -123.01)" xlink:href="#Degradado_sin_nombre_70"/><radialGradient id="Degradado_sin_nombre_12-16" cx="377.78" cy="6737.28" r="141.47" gradientTransform="matrix(-0.34, 1.08, -0.02, -0.01, 578.26, 40.11)" xlink:href="#Degradado_sin_nombre_12"/><radialGradient id="Degradado_sin_nombre_70-16" cx="377.78" cy="6737.28" r="104.6" gradientTransform="matrix(-0.34, 1.08, -0.02, -0.01, 578.26, 40.11)" xlink:href="#Degradado_sin_nombre_70"/><radialGradient id="Degradado_sin_nombre_12-17" cx="282.23" cy="4365.93" r="141.72" gradientTransform="matrix(0, 1.13, -0.02, 0, 479.5, -0.32)" xlink:href="#Degradado_sin_nombre_12"/><radialGradient id="Degradado_sin_nombre_70-17" cx="282.23" cy="4365.93" r="104.78" gradientTransform="matrix(0.34, 1.08, -0.02, 0.01, 379.94, -10.86)" xlink:href="#Degradado_sin_nombre_70"/><radialGradient id="Degradado_sin_nombre_12-18" cx="260" cy="-460.03" r="141.7" xlink:href="#Degradado_sin_nombre_12"/><radialGradient id="Degradado_sin_nombre_70-18" cx="260" cy="-460.03" r="104.76" xlink:href="#Degradado_sin_nombre_70"/><radialGradient id="Degradado_sin_nombre_12-19" cx="209.63" cy="-2694.83" r="141.7" xlink:href="#Degradado_sin_nombre_12"/><radialGradient id="Degradado_sin_nombre_70-19" cx="209.63" cy="-2694.83" r="104.76" xlink:href="#Degradado_sin_nombre_70"/><radialGradient id="Degradado_sin_nombre_38" cx="375.06" cy="293.66" r="105.02" gradientTransform="translate(1099.03 258.45) scale(7.49 0.09)" gradientUnits="userSpaceOnUse"><stop offset="0" stop-color="#fff"/><stop offset="0.01" stop-color="#fff8fe" stop-opacity="0.96"/><stop offset="0.05" stop-color="#ffd7f7" stop-opacity="0.78"/><stop offset="0.09" stop-color="#ffb7f2" stop-opacity="0.61"/><stop offset="0.14" stop-color="#ff9cec" stop-opacity="0.47"/><stop offset="0.2" stop-color="#ff84e8" stop-opacity="0.34"/><stop offset="0.25" stop-color="#ff70e4" stop-opacity="0.23"/><stop offset="0.32" stop-color="#ff60e1" stop-opacity="0.15"/><stop offset="0.4" stop-color="#ff54df" stop-opacity="0.08"/><stop offset="0.49" stop-color="#ff4bdd" stop-opacity="0.03"/><stop offset="0.63" stop-color="#ff46dc" stop-opacity="0.01"/><stop offset="1" stop-color="#ff45dc" stop-opacity="0"/></radialGradient><radialGradient id="Degradado_sin_nombre_38-2" cx="375.06" cy="311.36" r="105.06" gradientTransform="translate(1099.03 268.22) scale(7.49 0.05)" xlink:href="#Degradado_sin_nombre_38"/></defs><g class="cls-7"><g id="Layer_2" data-name="Layer 2"><g id="BACKGROUND_2" data-name="BACKGROUND 2"><g class="cls-8"><g class="cls-9"><circle class="cls-10" cx="375" cy="182.24" r="118.19" transform="translate(3513.61 324.05) rotate(-45)"/></g><polygon class="cls-11" points="3532.64 283.88 3532.64 419.37 3532.64 421.43 3532.64 505.51 4282.64 505.51 4282.64 421.43 4282.64 419.37 4282.64 283.88 3532.64 283.88"/><line class="cls-12" x1="3532.64" y1="283.88" x2="0.02" y2="505.51"/><line class="cls-12" x1="3547.34" y1="283.88" x2="153.26" y2="505.51"/><line class="cls-12" x1="3562.05" y1="283.88" x2="306.5" y2="505.51"/><line class="cls-12" x1="3576.76" y1="283.88" x2="459.74" y2="505.51"/><line class="cls-12" x1="3591.46" y1="283.88" x2="612.98" y2="505.51"/><line class="cls-12" x1="3606.17" y1="283.88" x2="766.22" y2="505.51"/><line class="cls-12" x1="3620.87" y1="283.88" x2="919.46" y2="505.51"/><line class="cls-12" x1="3635.58" y1="283.88" x2="1072.7" y2="505.51"/><line class="cls-12" x1="3650.29" y1="283.88" x2="1225.94" y2="505.51"/><line class="cls-12" x1="3664.99" y1="283.88" x2="1379.18" y2="505.51"/><line class="cls-12" x1="3679.7" y1="283.88" x2="1532.42" y2="505.51"/><line class="cls-12" x1="3694.4" y1="283.88" x2="1685.66" y2="505.51"/><line class="cls-12" x1="3709.11" y1="283.88" x2="1838.9" y2="505.51"/><line class="cls-12" x1="3723.81" y1="283.88" x2="1992.14" y2="505.51"/><line class="cls-12" x1="3738.52" y1="283.88" x2="2145.38" y2="505.51"/><line class="cls-12" x1="3753.23" y1="283.88" x2="2298.62" y2="505.51"/><line class="cls-12" x1="3767.93" y1="283.88" x2="2451.86" y2="505.51"/><line class="cls-12" x1="3782.64" y1="283.88" x2="2605.1" y2="505.51"/><line class="cls-12" x1="3797.34" y1="283.88" x2="2758.34" y2="505.51"/><line class="cls-12" x1="3812.05" y1="283.88" x2="2911.58" y2="505.51"/><line class="cls-12" x1="3826.76" y1="283.88" x2="3064.82" y2="505.51"/><line class="cls-12" x1="3841.46" y1="283.88" x2="3218.06" y2="505.51"/><line class="cls-12" x1="3856.17" y1="283.88" x2="3371.3" y2="505.51"/><line class="cls-12" x1="3870.87" y1="283.88" x2="3524.54" y2="505.51"/><line class="cls-12" x1="3885.58" y1="283.88" x2="3677.78" y2="505.51"/><line class="cls-12" x1="3900.29" y1="283.88" x2="3831.02" y2="505.51"/><line class="cls-12" x1="3914.99" y1="283.88" x2="3984.26" y2="505.51"/><line class="cls-12" x1="3929.7" y1="283.88" x2="4137.5" y2="505.51"/><line class="cls-12" x1="3944.4" y1="283.88" x2="4290.74" y2="505.51"/><line class="cls-12" x1="3959.11" y1="283.88" x2="4443.98" y2="505.51"/><line class="cls-12" x1="3973.81" y1="283.88" x2="4597.22" y2="505.51"/><line class="cls-12" x1="3988.52" y1="283.88" x2="4750.46" y2="505.51"/><line class="cls-12" x1="4003.23" y1="283.88" x2="4903.7" y2="505.51"/><line class="cls-12" x1="4017.93" y1="283.88" x2="5056.94" y2="505.51"/><line class="cls-12" x1="4032.64" y1="283.88" x2="5210.18" y2="505.51"/><line class="cls-12" x1="4047.34" y1="283.88" x2="5363.42" y2="505.51"/><line class="cls-12" x1="4062.05" y1="283.88" x2="5516.66" y2="505.51"/><line class="cls-12" x1="4076.76" y1="283.88" x2="5669.9" y2="505.51"/><line class="cls-12" x1="4091.46" y1="283.88" x2="5823.14" y2="505.51"/><line class="cls-12" x1="4106.17" y1="283.88" x2="5976.38" y2="505.51"/><line class="cls-12" x1="4120.87" y1="283.88" x2="6129.62" y2="505.51"/><line class="cls-12" x1="4135.58" y1="283.88" x2="6282.86" y2="505.51"/><line class="cls-12" x1="4150.29" y1="283.88" x2="6436.1" y2="505.51"/><line class="cls-12" x1="4164.99" y1="283.88" x2="6589.34" y2="505.51"/><line class="cls-12" x1="4179.7" y1="283.88" x2="6742.58" y2="505.51"/><line class="cls-12" x1="4194.4" y1="283.88" x2="6895.82" y2="505.51"/><line class="cls-12" x1="4209.11" y1="283.88" x2="7049.06" y2="505.51"/><line class="cls-12" x1="4223.81" y1="283.88" x2="7202.3" y2="505.51"/><line class="cls-12" x1="4238.52" y1="283.88" x2="7355.54" y2="505.51"/><line class="cls-12" x1="4253.23" y1="283.88" x2="7508.78" y2="505.51"/><line class="cls-12" x1="4267.93" y1="283.88" x2="7662.02" y2="505.51"/><line class="cls-12" x1="4282.64" y1="283.88" x2="7815.26" y2="505.51"/><line class="cls-12" x1="3532.64" y1="283.88" x2="4282.64" y2="283.88"/><line class="cls-12" x1="3532.64" y1="283.94" x2="4282.64" y2="283.94"/><line class="cls-12" x1="3532.64" y1="284.17" x2="4282.64" y2="284.17"/><line class="cls-12" x1="3532.64" y1="284.6" x2="4282.64" y2="284.6"/><line class="cls-12" x1="3532.64" y1="285.29" x2="4282.64" y2="285.29"/><line class="cls-12" x1="3532.64" y1="286.29" x2="4282.64" y2="286.29"/><line class="cls-12" x1="3532.64" y1="287.64" x2="4282.64" y2="287.64"/><line class="cls-12" x1="3532.64" y1="289.39" x2="4282.64" y2="289.39"/><line class="cls-12" x1="3532.64" y1="291.6" x2="4282.64" y2="291.6"/><line class="cls-12" x1="3532.64" y1="294.31" x2="4282.64" y2="294.31"/><line class="cls-12" x1="3532.64" y1="297.57" x2="4282.64" y2="297.57"/><line class="cls-12" x1="3532.64" y1="301.43" x2="4282.64" y2="301.43"/><line class="cls-12" x1="3532.64" y1="305.94" x2="4282.64" y2="305.94"/><line class="cls-12" x1="3532.64" y1="311.15" x2="4282.64" y2="311.15"/><line class="cls-12" x1="3532.64" y1="317.1" x2="4282.64" y2="317.1"/><line class="cls-12" x1="3532.64" y1="323.85" x2="4282.64" y2="323.85"/><line class="cls-12" x1="3532.64" y1="331.44" x2="4282.64" y2="331.44"/><line class="cls-12" x1="3532.64" y1="339.92" x2="4282.64" y2="339.92"/><line class="cls-12" x1="3532.64" y1="349.35" x2="4282.64" y2="349.35"/><line class="cls-12" x1="3532.64" y1="359.76" x2="4282.64" y2="359.76"/><line class="cls-12" x1="3532.64" y1="371.22" x2="4282.64" y2="371.22"/><line class="cls-12" x1="3532.64" y1="383.76" x2="4282.64" y2="383.76"/><line class="cls-12" x1="3532.64" y1="397.44" x2="4282.64" y2="397.44"/><line class="cls-12" x1="3532.64" y1="412.3" x2="4282.64" y2="412.3"/><line class="cls-12" x1="3532.64" y1="428.4" x2="4282.64" y2="428.4"/><line class="cls-12" x1="3532.64" y1="445.78" x2="4282.64" y2="445.78"/><line class="cls-12" x1="3532.64" y1="464.5" x2="4282.64" y2="464.5"/><line class="cls-12" x1="3532.64" y1="484.6" x2="4282.64" y2="484.6"/><line class="cls-12" x1="3532.64" y1="506.12" x2="4282.64" y2="506.12"/><line class="cls-12" x1="3532.64" y1="529.13" x2="4282.64" y2="529.13"/><line class="cls-12" x1="3532.64" y1="553.66" x2="4282.64" y2="553.66"/><g class="cls-13"><ellipse class="cls-14" cx="3869.17" cy="383.76" rx="244.8" ry="3.7"/><ellipse class="cls-15" cx="3869.17" cy="383.76" rx="180.99" ry="2.74"/></g><g class="cls-13"><ellipse class="cls-16" cx="4117.76" cy="484.6" rx="244.8" ry="3.7"/><ellipse class="cls-17" cx="4117.76" cy="484.6" rx="180.99" ry="2.74"/></g><g class="cls-13"><ellipse class="cls-18" cx="4206.79" cy="305.94" rx="244.8" ry="3.7"/><ellipse class="cls-19" cx="4206.79" cy="305.94" rx="180.99" ry="2.74"/></g><g class="cls-13"><ellipse class="cls-20" cx="4196.17" cy="331.44" rx="244.8" ry="3.7"/><ellipse class="cls-21" cx="4196.17" cy="331.44" rx="180.99" ry="2.74"/></g><g class="cls-13"><ellipse class="cls-22" cx="4207.48" cy="397.44" rx="244.8" ry="3.7"/><ellipse class="cls-23" cx="4207.48" cy="397.44" rx="180.99" ry="2.74"/></g><g class="cls-13"><ellipse class="cls-24" cx="3967.38" cy="323.85" rx="244.8" ry="3.7"/><ellipse class="cls-25" cx="3967.38" cy="323.85" rx="180.99" ry="2.74"/></g><g class="cls-13"><ellipse class="cls-26" cx="3588.66" cy="464.5" rx="244.8" ry="3.7"/><ellipse class="cls-27" cx="3588.66" cy="464.5" rx="180.99" ry="2.74"/></g><g class="cls-13"><ellipse class="cls-28" cx="3697.49" cy="484.6" rx="244.8" ry="3.7"/><ellipse class="cls-29" cx="3697.49" cy="484.6" rx="180.99" ry="2.74"/></g><g class="cls-13"><ellipse class="cls-30" cx="3670.29" cy="412.3" rx="244.8" ry="3.7"/><ellipse class="cls-31" cx="3670.29" cy="412.3" rx="180.99" ry="2.74"/></g><g class="cls-13"><path class="cls-32" d="M795.38,523.73c-1.1,1.72-85.12-50.07-187.67-115.67S422.92,287.88,424,286.16s85.13,50.06,187.68,115.66S796.48,522,795.38,523.73Z" transform="translate(3532.64 5.51)"/><path class="cls-33" d="M747,492.76c-.81,1.28-62.93-37-138.75-85.51s-136.62-88.86-135.8-90.13,62.93,37,138.75,85.52S747.8,491.49,747,492.76Z" transform="translate(3532.64 5.51)"/></g><g class="cls-13"><path class="cls-34" d="M-154.32,384.72c-.48-2,95-27.08,213.21-56.05s214.49-50.84,215-48.86-95,27.08-213.21,56.05S-153.83,386.71-154.32,384.72Z" transform="translate(3532.64 5.51)"/><path class="cls-35" d="M-98.51,371.05c-.36-1.47,70.21-20,157.63-41.44S217.7,292,218.06,293.49s-70.22,20-157.64,41.44S-98.15,372.52-98.51,371.05Z" transform="translate(3532.64 5.51)"/></g><g class="cls-13"><path class="cls-36" d="M-152,493.32c-.83-1.86,88.57-43.68,199.7-93.4s201.88-88.51,202.71-86.64S161.86,357,50.74,406.68-151.14,495.19-152,493.32Z" transform="translate(3532.64 5.51)"/><path class="cls-37" d="M-99.53,469.86c-.62-1.38,65.48-32.3,147.64-69.06S197.37,335.37,198,336.75,132.5,369,50.34,405.8-98.91,471.24-99.53,469.86Z" transform="translate(3532.64 5.51)"/></g><g class="cls-13"><path class="cls-38" d="M53.43,458.18c-1.09-1.73,81.62-55.59,184.74-120.3s187.58-115.76,188.67-114-81.62,55.59-184.74,120.3S54.52,459.91,53.43,458.18Z" transform="translate(3532.64 5.51)"/><path class="cls-39" d="M102.1,427.64c-.81-1.28,60.34-41.1,136.58-88.94s138.69-85.59,139.49-84.31-60.34,41.1-136.58,88.94S102.9,428.92,102.1,427.64Z" transform="translate(3532.64 5.51)"/></g><g class="cls-13"><path class="cls-40" d="M847.85,371.2c-.49,2-96.69-20.09-214.86-49.31s-213.59-54.52-213.1-56.5,96.7,20.09,214.87,49.31S848.35,369.22,847.85,371.2Z" transform="translate(3532.64 5.51)"/><path class="cls-41" d="M792.08,357.41c-.37,1.47-71.49-14.85-158.86-36.46s-157.91-40.31-157.55-41.77S547.16,294,634.53,315.64,792.44,356,792.08,357.41Z" transform="translate(3532.64 5.51)"/></g><g class="cls-13"><path class="cls-42" d="M594.49,488.61c-1.1,1-51.18-50.55-111.85-115.22s-109-117.93-107.86-119S426,305,486.63,369.64,595.6,487.57,594.49,488.61Z" transform="translate(3532.64 5.51)"/><ellipse class="cls-43" cx="484.64" cy="371.52" rx="2.02" ry="118.71" transform="translate(3409.64 437.7) rotate(-43.18)"/></g><g class="cls-13"><path class="cls-44" d="M278.75,564.09c-1.44-.45,18.73-69.45,45.06-154.13S372.65,257,374.09,257.46,355.36,326.91,329,411.59,280.19,564.54,278.75,564.09Z" transform="translate(3532.64 5.51)"/><path class="cls-45" d="M291.18,524.13c-1.07-.34,13.84-51.35,33.31-114s36.11-113.08,37.18-112.75-13.85,51.35-33.32,114S292.24,524.46,291.18,524.13Z" transform="translate(3532.64 5.51)"/></g><g class="cls-13"><ellipse class="cls-46" cx="395.26" cy="319.86" rx="2.74" ry="160.56" transform="translate(3455.1 138.28) rotate(-17.39)"/><path class="cls-47" d="M430.74,433.14c-1.07.34-17.82-50.11-37.41-112.67s-34.62-113.55-33.55-113.89,17.81,50.12,37.41,112.68S431.81,432.81,430.74,433.14Z" transform="translate(3532.64 5.51)"/></g><g class="cls-13"><ellipse class="cls-48" cx="3752.81" cy="359.76" rx="244.8" ry="3.7"/><ellipse class="cls-49" cx="3752.81" cy="359.76" rx="180.99" ry="2.74"/></g><g class="cls-13"><ellipse class="cls-50" cx="3665.73" cy="301.43" rx="244.8" ry="3.7"/><ellipse class="cls-51" cx="3665.73" cy="301.43" rx="180.99" ry="2.74"/></g><circle class="cls-52" cx="3667.81" cy="97.8" r="0.62"/><circle class="cls-52" cx="3592.8" cy="103.77" r="0.62"/><circle class="cls-52" cx="3734.68" cy="210.07" r="0.62"/><circle class="cls-52" cx="3704.08" cy="178.03" r="0.62"/><path class="cls-52" d="M284.48,25.23a.62.62,0,0,1-.62.62.61.61,0,0,1-.61-.62.61.61,0,0,1,.61-.61A.61.61,0,0,1,284.48,25.23Z" transform="translate(3532.64 5.51)"/><circle class="cls-52" cx="3760.81" cy="117.29" r="0.62"/><circle class="cls-52" cx="3704.08" cy="25.33" r="0.62"/><path class="cls-52" d="M64.29,177.06a.61.61,0,0,1-.61.62.62.62,0,0,1-.62-.62.61.61,0,0,1,.62-.61A.61.61,0,0,1,64.29,177.06Z" transform="translate(3532.64 5.51)"/><path class="cls-52" d="M658.31,203.94a.61.61,0,0,1-.61.62.62.62,0,0,1,0-1.24A.61.61,0,0,1,658.31,203.94Z" transform="translate(3532.64 5.51)"/><path class="cls-52" d="M687.41,130a.13.13,0,0,1-.13.13.13.13,0,0,1,0-.26A.13.13,0,0,1,687.41,130Z" transform="translate(3532.64 5.51)"/><circle class="cls-52" cx="4179.91" cy="35.54" r="0.13"/><circle class="cls-52" cx="4232.96" cy="128.64" r="0.13"/><circle class="cls-52" cx="4233.09" cy="110.2" r="0.13"/><path class="cls-52" d="M710.62,29.91a.13.13,0,0,1-.26,0,.13.13,0,0,1,.26,0Z" transform="translate(3532.64 5.51)"/><circle class="cls-52" cx="4199.05" cy="66.24" r="0.13"/><path class="cls-52" d="M729.63,23.75a.12.12,0,0,1-.13.12.12.12,0,0,1-.12-.12.12.12,0,0,1,.12-.13A.13.13,0,0,1,729.63,23.75Z" transform="translate(3532.64 5.51)"/><circle class="cls-52" cx="4232.84" cy="106.03" r="0.13"/><path class="cls-52" d="M732.79,208.89a.13.13,0,0,1-.13.13.12.12,0,0,1-.12-.13.12.12,0,0,1,.12-.12A.12.12,0,0,1,732.79,208.89Z" transform="translate(3532.64 5.51)"/><path class="cls-52" d="M683.43,172.26a.13.13,0,0,1-.13.13.13.13,0,0,1-.12-.13.12.12,0,0,1,.12-.12A.12.12,0,0,1,683.43,172.26Z" transform="translate(3532.64 5.51)"/><circle class="cls-52" cx="4251.55" cy="29.51" r="0.13"/><circle class="cls-52" cx="4139.36" cy="177.9" r="0.13"/><circle class="cls-52" cx="4086.69" cy="209.45" r="0.13"/><circle class="cls-52" cx="4209.97" cy="246.24" r="0.13"/><path class="cls-52" d="M524,135a.13.13,0,0,1-.13.13.13.13,0,0,1,0-.26A.13.13,0,0,1,524,135Z" transform="translate(3532.64 5.51)"/><circle class="cls-52" cx="4035.53" cy="79.88" r="0.13"/><path class="cls-52" d="M430.14,39.51a.13.13,0,0,1-.26,0,.13.13,0,1,1,.26,0Z" transform="translate(3532.64 5.51)"/><path class="cls-52" d="M464.37,52.26a.13.13,0,0,1-.13.13.12.12,0,0,1-.12-.13.12.12,0,0,1,.12-.12A.12.12,0,0,1,464.37,52.26Z" transform="translate(3532.64 5.51)"/><circle class="cls-52" cx="4241.93" cy="240.3" r="0.13"/><path class="cls-52" d="M698,203.32a.13.13,0,0,1-.13.13.12.12,0,0,1-.12-.13.12.12,0,0,1,.12-.12A.12.12,0,0,1,698,203.32Z" transform="translate(3532.64 5.51)"/><path class="cls-52" d="M633.76,64.05a.13.13,0,0,1-.26,0,.13.13,0,1,1,.26,0Z" transform="translate(3532.64 5.51)"/><path class="cls-52" d="M572.18,44.92a.13.13,0,0,1-.13.13.13.13,0,0,1,0-.26A.13.13,0,0,1,572.18,44.92Z" transform="translate(3532.64 5.51)"/><circle class="cls-52" cx="4044.75" cy="26.56" r="0.13"/><circle class="cls-52" cx="3992.33" cy="49.56" r="0.13"/><path class="cls-52" d="M583,78.54a.12.12,0,0,1-.13.12.12.12,0,0,1-.12-.12.12.12,0,0,1,.12-.13A.13.13,0,0,1,583,78.54Z" transform="translate(3532.64 5.51)"/><path class="cls-52" d="M364.7,39.63a.12.12,0,0,1-.12.13.13.13,0,0,1-.13-.13.12.12,0,0,1,.13-.12A.12.12,0,0,1,364.7,39.63Z" transform="translate(3532.64 5.51)"/><circle class="cls-52" cx="3870.98" cy="26.69" r="0.13"/><path class="cls-52" d="M409.42,23.87a.13.13,0,0,1-.12.13.13.13,0,0,1-.13-.13.12.12,0,0,1,.13-.12A.12.12,0,0,1,409.42,23.87Z" transform="translate(3532.64 5.51)"/><path class="cls-52" d="M714.47,100.39a.12.12,0,0,1-.12.13.13.13,0,0,1,0-.26A.12.12,0,0,1,714.47,100.39Z" transform="translate(3532.64 5.51)"/><circle class="cls-52" cx="3685.13" cy="181.96" r="0.13"/><circle class="cls-52" cx="3648.88" cy="224.39" r="0.13"/><path class="cls-52" d="M211.23,153.19a.13.13,0,0,1-.13.13.13.13,0,0,1,0-.26A.13.13,0,0,1,211.23,153.19Z" transform="translate(3532.64 5.51)"/><circle class="cls-52" cx="3596.93" cy="115.12" r="0.13"/><path class="cls-52" d="M128.15,24.62a.12.12,0,0,1-.13.12.12.12,0,0,1-.12-.12.12.12,0,0,1,.12-.13A.13.13,0,0,1,128.15,24.62Z" transform="translate(3532.64 5.51)"/><path class="cls-52" d="M146.43,137.78a.12.12,0,0,1-.12.13.13.13,0,0,1,0-.26A.12.12,0,0,1,146.43,137.78Z" transform="translate(3532.64 5.51)"/><path class="cls-52" d="M98.31,137.91a.13.13,0,0,1-.26,0,.13.13,0,1,1,.26,0Z" transform="translate(3532.64 5.51)"/><circle class="cls-52" cx="3633.97" cy="153.14" r="0.13"/><circle class="cls-52" cx="3649.01" cy="158.7" r="0.13"/><circle class="cls-52" cx="3636.88" cy="165.9" r="0.13"/><circle class="cls-52" cx="3705.47" cy="135.71" r="0.13"/><path class="cls-52" d="M184.83,97.52a.12.12,0,0,1-.13.12.12.12,0,0,1-.12-.12.13.13,0,0,1,.12-.13A.13.13,0,0,1,184.83,97.52Z" transform="translate(3532.64 5.51)"/><circle class="cls-52" cx="3550.61" cy="75.96" r="0.13"/><path class="cls-52" d="M207.57,44.18a.13.13,0,0,1-.13.13.13.13,0,0,1,0-.26A.13.13,0,0,1,207.57,44.18Z" transform="translate(3532.64 5.51)"/><path class="cls-52" d="M288,78.66a.13.13,0,0,1-.13.13.12.12,0,0,1-.12-.13.12.12,0,0,1,.12-.12A.12.12,0,0,1,288,78.66Z" transform="translate(3532.64 5.51)"/><path class="cls-52" d="M252.16,74.49a.13.13,0,1,1-.26,0,.13.13,0,0,1,.26,0Z" transform="translate(3532.64 5.51)"/><circle class="cls-52" cx="3641.9" cy="63.71" r="0.13"/><path class="cls-52" d="M18,208.89a.13.13,0,0,1-.13.13.12.12,0,0,1-.12-.13.12.12,0,0,1,.12-.12A.12.12,0,0,1,18,208.89Z" transform="translate(3532.64 5.51)"/><path class="cls-52" d="M56,243.13a.12.12,0,0,1-.13.12.12.12,0,0,1-.12-.12.12.12,0,0,1,.12-.13A.13.13,0,0,1,56,243.13Z" transform="translate(3532.64 5.51)"/><path class="cls-52" d="M184.7,63.92a.12.12,0,0,1-.12.13.13.13,0,1,1,0-.26A.12.12,0,0,1,184.7,63.92Z" transform="translate(3532.64 5.51)"/><circle class="cls-52" cx="3732.25" cy="146.32" r="0.13"/><path class="cls-52" d="M58.33,234.66a.13.13,0,0,1-.26,0,.13.13,0,0,1,.26,0Z" transform="translate(3532.64 5.51)"/><path class="cls-52" d="M622.1,213.69a.12.12,0,0,1-.12.13.13.13,0,0,1-.13-.13.13.13,0,0,1,.13-.12A.12.12,0,0,1,622.1,213.69Z" transform="translate(3532.64 5.51)"/><circle class="cls-52" cx="4111.2" cy="234.62" r="0.62"/><path class="cls-52" d="M639.55,115.42a.61.61,0,0,1-.61.62.62.62,0,0,1-.62-.62.61.61,0,0,1,.62-.61A.61.61,0,0,1,639.55,115.42Z" transform="translate(3532.64 5.51)"/><path class="cls-52" d="M684.54,52.26a.62.62,0,0,1-1.24,0,.62.62,0,0,1,1.24,0Z" transform="translate(3532.64 5.51)"/><path class="cls-52" d="M720.27,177.68a.61.61,0,0,1-.62.61.61.61,0,0,1-.61-.61.61.61,0,0,1,.61-.62A.62.62,0,0,1,720.27,177.68Z" transform="translate(3532.64 5.51)"/><path class="cls-52" d="M558.08,20.43a.62.62,0,0,1-.62.62.61.61,0,0,1-.61-.62.61.61,0,0,1,.61-.61A.61.61,0,0,1,558.08,20.43Z" transform="translate(3532.64 5.51)"/><circle class="cls-52" cx="3779.74" cy="49.82" r="0.62"/><circle class="cls-52" cx="4010.63" cy="57.16" r="0.62"/><circle class="cls-52" cx="4003.07" cy="20.39" r="0.62"/><circle class="cls-52" cx="3572.15" cy="30.13" r="0.62"/><circle class="cls-52" cx="3616.23" cy="16.74" r="0.62"/><polygon class="cls-52" points="3690.28 82.53 3693.06 82.88 3690.28 83.23 3689.93 86.01 3689.59 83.23 3686.81 82.88 3689.59 82.53 3689.93 79.76 3690.28 82.53"/><polygon class="cls-52" points="3559 210.34 3561.78 210.68 3559 211.03 3558.66 213.81 3558.31 211.03 3555.53 210.68 3558.31 210.34 3558.66 207.56 3559 210.34"/><polygon class="cls-52" points="3609.22 223.91 3611.99 224.26 3609.22 224.6 3608.87 227.38 3608.52 224.6 3605.74 224.26 3608.52 223.91 3608.87 221.13 3609.22 223.91"/><polygon class="cls-52" points="3553.82 44.92 3556.6 45.27 3553.82 45.62 3553.48 48.4 3553.13 45.62 3550.35 45.27 3553.13 44.92 3553.48 42.15 3553.82 44.92"/><polygon class="cls-52" points="4224.78 79.53 4227.56 79.88 4224.78 80.23 4224.44 83 4224.09 80.23 4221.31 79.88 4224.09 79.53 4224.44 76.76 4224.78 79.53"/><polygon class="cls-52" points="3760.54 76.41 3763.32 76.76 3760.54 77.1 3760.2 79.88 3759.85 77.1 3757.07 76.76 3759.85 76.41 3760.2 73.63 3760.54 76.41"/><polygon class="cls-52" points="4136.71 31.01 4139.49 31.36 4136.71 31.7 4136.37 34.48 4136.02 31.7 4133.24 31.36 4136.02 31.01 4136.37 28.23 4136.71 31.01"/><polygon class="cls-52" points="4145.21 169 4146.47 169.15 4145.21 169.31 4145.05 170.57 4144.89 169.31 4143.63 169.15 4144.89 169 4145.05 167.73 4145.21 169"/><polygon class="cls-52" points="4111.97 137.1 4113.23 137.26 4111.97 137.42 4111.81 138.68 4111.65 137.42 4110.39 137.26 4111.65 137.1 4111.81 135.84 4111.97 137.1"/><polygon class="cls-52" points="3625.01 49.05 3626.27 49.2 3625.01 49.36 3624.85 50.62 3624.69 49.36 3623.43 49.2 3624.69 49.05 3624.85 47.78 3625.01 49.05"/><polygon class="cls-52" points="3709.45 76.6 3710.71 76.76 3709.45 76.91 3709.29 78.18 3709.13 76.91 3707.87 76.76 3709.13 76.6 3709.29 75.34 3709.45 76.6"/><polygon class="cls-52" points="3660.94 193.38 3662.21 193.53 3660.94 193.69 3660.79 194.95 3660.63 193.69 3659.37 193.53 3660.63 193.38 3660.79 192.11 3660.94 193.38"/><polygon class="cls-52" points="3561.94 137.1 3563.2 137.26 3561.94 137.42 3561.78 138.68 3561.62 137.42 3560.36 137.26 3561.62 137.1 3561.78 135.84 3561.94 137.1"/><polygon class="cls-52" points="4080.25 164.2 4081.51 164.35 4080.25 164.51 4080.09 165.78 4079.93 164.51 4078.67 164.35 4079.93 164.2 4080.09 162.94 4080.25 164.2"/><polygon class="cls-52" points="3831.06 56.39 3832.32 56.54 3831.06 56.7 3830.9 57.96 3830.74 56.7 3829.48 56.54 3830.74 56.39 3830.9 55.12 3831.06 56.39"/><path class="cls-52" d="M569.75,99.5a.13.13,0,0,1-.13.13.13.13,0,0,1-.12-.13.12.12,0,0,1,.12-.12A.12.12,0,0,1,569.75,99.5Z" transform="translate(3532.64 5.51)"/><path class="cls-52" d="M567.9,105.84a.12.12,0,0,1-.12.13.13.13,0,0,1-.13-.13.12.12,0,0,1,.13-.12A.12.12,0,0,1,567.9,105.84Z" transform="translate(3532.64 5.51)"/><path class="cls-52" d="M553.58,112.21a.13.13,0,0,1-.26,0,.13.13,0,0,1,.26,0Z" transform="translate(3532.64 5.51)"/><path class="cls-52" d="M546.28,109a.12.12,0,0,1-.13.12A.12.12,0,0,1,546,109a.13.13,0,0,1,.12-.13A.13.13,0,0,1,546.28,109Z" transform="translate(3532.64 5.51)"/><path class="cls-52" d="M537,99.25a.12.12,0,0,1-.12.12.12.12,0,0,1-.13-.12.13.13,0,0,1,.13-.13A.12.12,0,0,1,537,99.25Z" transform="translate(3532.64 5.51)"/><path class="cls-52" d="M565.75,153.57a.12.12,0,0,1-.12.12.12.12,0,0,1-.13-.12.13.13,0,0,1,.13-.13A.12.12,0,0,1,565.75,153.57Z" transform="translate(3532.64 5.51)"/><path class="cls-52" d="M578.78,151.65a.12.12,0,0,1-.12.12.12.12,0,0,1-.13-.12.13.13,0,0,1,.13-.13A.12.12,0,0,1,578.78,151.65Z" transform="translate(3532.64 5.51)"/><path class="cls-52" d="M595.53,144.67a.13.13,0,0,1-.13.13.12.12,0,0,1-.12-.13.12.12,0,0,1,.12-.12A.12.12,0,0,1,595.53,144.67Z" transform="translate(3532.64 5.51)"/><path class="cls-52" d="M600.75,136.15a.12.12,0,0,1-.12.13.13.13,0,0,1,0-.26A.12.12,0,0,1,600.75,136.15Z" transform="translate(3532.64 5.51)"/><path class="cls-52" d="M596.63,126.83a.13.13,0,0,1-.26,0,.13.13,0,0,1,.26,0Z" transform="translate(3532.64 5.51)"/><path class="cls-52" d="M596.73,96a.13.13,0,0,1-.13.13.12.12,0,0,1-.12-.13.12.12,0,0,1,.12-.12A.12.12,0,0,1,596.73,96Z" transform="translate(3532.64 5.51)"/><path class="cls-52" d="M598.66,80.82a.12.12,0,0,1-.13.12.12.12,0,0,1-.12-.12.12.12,0,0,1,.12-.13A.13.13,0,0,1,598.66,80.82Z" transform="translate(3532.64 5.51)"/><path class="cls-52" d="M585.27,65.71a.12.12,0,0,1-.12.13.13.13,0,0,1-.13-.13.12.12,0,0,1,.13-.12A.12.12,0,0,1,585.27,65.71Z" transform="translate(3532.64 5.51)"/><path class="cls-52" d="M145.55,115.49a.12.12,0,0,1-.12.13.13.13,0,0,1-.13-.13.12.12,0,0,1,.13-.12A.12.12,0,0,1,145.55,115.49Z" transform="translate(3532.64 5.51)"/><path class="cls-52" d="M140.15,121.88a.12.12,0,0,1-.12.12.13.13,0,0,1-.13-.12.13.13,0,0,1,.13-.13A.12.12,0,0,1,140.15,121.88Z" transform="translate(3532.64 5.51)"/><path class="cls-52" d="M123.92,135.56a.12.12,0,0,1-.12.13.13.13,0,0,1-.13-.13.12.12,0,0,1,.13-.12A.12.12,0,0,1,123.92,135.56Z" transform="translate(3532.64 5.51)"/><path class="cls-52" d="M120.34,136.38a.13.13,0,0,1-.13.13.12.12,0,0,1-.12-.13.12.12,0,0,1,.12-.12A.12.12,0,0,1,120.34,136.38Z" transform="translate(3532.64 5.51)"/><path class="cls-52" d="M120.4,110.15a.12.12,0,0,1-.12.13.13.13,0,0,1-.13-.13.12.12,0,0,1,.13-.12A.12.12,0,0,1,120.4,110.15Z" transform="translate(3532.64 5.51)"/><path class="cls-52" d="M103,99.59a.13.13,0,0,1-.13.13.13.13,0,0,1,0-.26A.13.13,0,0,1,103,99.59Z" transform="translate(3532.64 5.51)"/><path class="cls-52" d="M95.88,97.28a.13.13,0,0,1-.13.13.13.13,0,0,1,0-.26A.13.13,0,0,1,95.88,97.28Z" transform="translate(3532.64 5.51)"/><path class="cls-52" d="M86.05,124.73a.13.13,0,0,1-.13.13.13.13,0,0,1,0-.26A.13.13,0,0,1,86.05,124.73Z" transform="translate(3532.64 5.51)"/><path class="cls-52" d="M82.89,131.13a.12.12,0,0,1-.13.12.12.12,0,0,1-.12-.12.12.12,0,0,1,.12-.13A.13.13,0,0,1,82.89,131.13Z" transform="translate(3532.64 5.51)"/><path class="cls-52" d="M63.09,134a.12.12,0,0,1-.12.13.13.13,0,1,1,0-.26A.12.12,0,0,1,63.09,134Z" transform="translate(3532.64 5.51)"/><path class="cls-52" d="M53.74,129.36a.12.12,0,0,1-.12.12.12.12,0,0,1-.13-.12.13.13,0,0,1,.13-.13A.12.12,0,0,1,53.74,129.36Z" transform="translate(3532.64 5.51)"/><path class="cls-52" d="M48.72,189.73a.12.12,0,0,1-.12.12.12.12,0,0,1-.13-.12.13.13,0,0,1,.13-.13A.12.12,0,0,1,48.72,189.73Z" transform="translate(3532.64 5.51)"/><path class="cls-52" d="M51.82,200.54a.12.12,0,0,1-.13.12.12.12,0,0,1-.12-.12.12.12,0,0,1,.12-.13A.13.13,0,0,1,51.82,200.54Z" transform="translate(3532.64 5.51)"/><path class="cls-52" d="M47.94,219.42a.13.13,0,0,1-.26,0,.13.13,0,0,1,.26,0Z" transform="translate(3532.64 5.51)"/><path class="cls-52" d="M47.87,228.78a.12.12,0,0,1-.12.13.13.13,0,0,1-.13-.13.12.12,0,0,1,.13-.12A.12.12,0,0,1,47.87,228.78Z" transform="translate(3532.64 5.51)"/><path class="cls-52" d="M58.05,231a.13.13,0,0,1-.13.13.12.12,0,0,1-.12-.13.12.12,0,0,1,.12-.12A.12.12,0,0,1,58.05,231Z" transform="translate(3532.64 5.51)"/><path class="cls-52" d="M133.32,199.79a.12.12,0,0,1-.12.12.13.13,0,0,1-.13-.12.13.13,0,0,1,.13-.13A.12.12,0,0,1,133.32,199.79Z" transform="translate(3532.64 5.51)"/><path class="cls-52" d="M130.26,189.71a.13.13,0,0,1-.13.13.13.13,0,0,1,0-.26A.13.13,0,0,1,130.26,189.71Z" transform="translate(3532.64 5.51)"/><path class="cls-52" d="M118.93,160.85a.12.12,0,0,1-.12.13.13.13,0,0,1-.13-.13.12.12,0,0,1,.13-.12A.12.12,0,0,1,118.93,160.85Z" transform="translate(3532.64 5.51)"/><path class="cls-52" d="M108.9,168.5a.13.13,0,0,1-.26,0,.13.13,0,0,1,.26,0Z" transform="translate(3532.64 5.51)"/><path class="cls-52" d="M96,193a.12.12,0,0,1-.13.12.12.12,0,0,1-.12-.12.12.12,0,0,1,.12-.13A.13.13,0,0,1,96,193Z" transform="translate(3532.64 5.51)"/><path class="cls-52" d="M89.1,177.58a.12.12,0,0,1-.12.12.12.12,0,0,1-.13-.12.13.13,0,0,1,.13-.13A.12.12,0,0,1,89.1,177.58Z" transform="translate(3532.64 5.51)"/><path class="cls-52" d="M59.92,107.29a.12.12,0,0,1-.13.12.12.12,0,0,1-.12-.12.12.12,0,0,1,.12-.13A.13.13,0,0,1,59.92,107.29Z" transform="translate(3532.64 5.51)"/><path class="cls-52" d="M71.29,84.78a.13.13,0,1,1-.26,0,.13.13,0,0,1,.26,0Z" transform="translate(3532.64 5.51)"/><path class="cls-52" d="M66.44,66.89a.12.12,0,0,1-.12.13.13.13,0,0,1-.13-.13.12.12,0,0,1,.13-.12A.12.12,0,0,1,66.44,66.89Z" transform="translate(3532.64 5.51)"/><path class="cls-52" d="M63.33,43.52a.12.12,0,0,1-.13.12.12.12,0,0,1-.12-.12.12.12,0,0,1,.12-.13A.13.13,0,0,1,63.33,43.52Z" transform="translate(3532.64 5.51)"/><path class="cls-52" d="M33.28,109.45a.13.13,0,0,1-.13.13.13.13,0,0,1,0-.26A.13.13,0,0,1,33.28,109.45Z" transform="translate(3532.64 5.51)"/><path class="cls-52" d="M30,133.21a.13.13,0,0,1-.13.13.13.13,0,0,1,0-.26A.13.13,0,0,1,30,133.21Z" transform="translate(3532.64 5.51)"/><path class="cls-52" d="M30.35,67.46a.13.13,0,0,1-.13.13.12.12,0,0,1-.12-.13.12.12,0,0,1,.12-.12A.12.12,0,0,1,30.35,67.46Z" transform="translate(3532.64 5.51)"/><path class="cls-52" d="M32.13,37.19a.13.13,0,1,1-.13-.13A.13.13,0,0,1,32.13,37.19Z" transform="translate(3532.64 5.51)"/><path class="cls-52" d="M47.75,34.24a.12.12,0,0,1-.12.13.13.13,0,1,1,0-.26A.12.12,0,0,1,47.75,34.24Z" transform="translate(3532.64 5.51)"/><path class="cls-52" d="M139.44,55a.13.13,0,0,1-.26,0,.13.13,0,0,1,.26,0Z" transform="translate(3532.64 5.51)"/><path class="cls-52" d="M195.8,20.16a.13.13,0,0,1-.12.13.13.13,0,0,1-.13-.13.12.12,0,0,1,.13-.12A.12.12,0,0,1,195.8,20.16Z" transform="translate(3532.64 5.51)"/><path class="cls-52" d="M200.13,19.28a.12.12,0,0,1-.12.13.13.13,0,0,1-.13-.13.12.12,0,0,1,.13-.12A.12.12,0,0,1,200.13,19.28Z" transform="translate(3532.64 5.51)"/><path class="cls-52" d="M134.06,67.3a.12.12,0,0,1-.13.12.12.12,0,0,1-.12-.12.12.12,0,0,1,.12-.13A.13.13,0,0,1,134.06,67.3Z" transform="translate(3532.64 5.51)"/><path class="cls-52" d="M129.51,84.21a.12.12,0,0,1-.12.12.12.12,0,0,1-.13-.12.13.13,0,0,1,.13-.13A.12.12,0,0,1,129.51,84.21Z" transform="translate(3532.64 5.51)"/><path class="cls-52" d="M144.12,78.09a.12.12,0,0,1-.13.12.12.12,0,0,1-.12-.12A.13.13,0,0,1,144,78,.13.13,0,0,1,144.12,78.09Z" transform="translate(3532.64 5.51)"/><path class="cls-52" d="M158.61,110.81a.13.13,0,0,1-.13.13.12.12,0,0,1-.12-.13.12.12,0,0,1,.12-.12A.12.12,0,0,1,158.61,110.81Z" transform="translate(3532.64 5.51)"/><path class="cls-52" d="M158.62,119.49a.13.13,0,1,1-.26,0,.13.13,0,0,1,.26,0Z" transform="translate(3532.64 5.51)"/><path class="cls-52" d="M160.15,127.4a.12.12,0,0,1-.13.12.12.12,0,0,1-.12-.12.12.12,0,0,1,.12-.13A.13.13,0,0,1,160.15,127.4Z" transform="translate(3532.64 5.51)"/><path class="cls-52" d="M192.06,89.63a.13.13,0,0,1-.13.13.12.12,0,0,1-.12-.13.12.12,0,0,1,.12-.12A.12.12,0,0,1,192.06,89.63Z" transform="translate(3532.64 5.51)"/><path class="cls-52" d="M194.57,89.64a.13.13,0,0,1-.13.13.12.12,0,0,1-.12-.13.12.12,0,0,1,.12-.12A.12.12,0,0,1,194.57,89.64Z" transform="translate(3532.64 5.51)"/><path class="cls-52" d="M13.57,113.59a.13.13,0,0,1-.13.13.13.13,0,0,1,0-.26A.13.13,0,0,1,13.57,113.59Z" transform="translate(3532.64 5.51)"/><path class="cls-52" d="M13.63,99.24a.13.13,0,0,1-.26,0,.13.13,0,1,1,.26,0Z" transform="translate(3532.64 5.51)"/><path class="cls-52" d="M13.52,105.66a.13.13,0,1,1-.13-.13A.13.13,0,0,1,13.52,105.66Z" transform="translate(3532.64 5.51)"/><path class="cls-52" d="M8.19,162.44a.13.13,0,0,1-.13.13.12.12,0,0,1-.12-.13.12.12,0,0,1,.12-.12A.12.12,0,0,1,8.19,162.44Z" transform="translate(3532.64 5.51)"/><path class="cls-52" d="M8.86,169.19a.12.12,0,0,1-.12.12.12.12,0,0,1-.13-.12.13.13,0,0,1,.13-.13A.12.12,0,0,1,8.86,169.19Z" transform="translate(3532.64 5.51)"/><path class="cls-52" d="M20.84,107.15a.12.12,0,0,1-.12.12.12.12,0,0,1-.13-.12.13.13,0,0,1,.13-.13A.12.12,0,0,1,20.84,107.15Z" transform="translate(3532.64 5.51)"/><path class="cls-52" d="M39.1,48.42a.13.13,0,1,1-.13-.13A.13.13,0,0,1,39.1,48.42Z" transform="translate(3532.64 5.51)"/><path class="cls-52" d="M53.31,38.15a.13.13,0,0,1-.13.13.13.13,0,0,1-.12-.13.12.12,0,0,1,.12-.12A.12.12,0,0,1,53.31,38.15Z" transform="translate(3532.64 5.51)"/><path class="cls-52" d="M91.53,28.25a.13.13,0,1,1-.13-.13A.13.13,0,0,1,91.53,28.25Z" transform="translate(3532.64 5.51)"/><path class="cls-52" d="M153.09,20a.12.12,0,0,1-.12.13.13.13,0,0,1,0-.26A.12.12,0,0,1,153.09,20Z" transform="translate(3532.64 5.51)"/><path class="cls-52" d="M155.1,20a.13.13,0,0,1-.13.12.12.12,0,0,1-.12-.12.12.12,0,0,1,.12-.13A.13.13,0,0,1,155.1,20Z" transform="translate(3532.64 5.51)"/><path class="cls-52" d="M103,20.55a.12.12,0,0,1-.12.13.13.13,0,1,1,0-.26A.12.12,0,0,1,103,20.55Z" transform="translate(3532.64 5.51)"/><path class="cls-52" d="M73.21,20.61a.12.12,0,0,1-.12.13.13.13,0,1,1,0-.26A.12.12,0,0,1,73.21,20.61Z" transform="translate(3532.64 5.51)"/><path class="cls-52" d="M62.14,14.32a.12.12,0,0,1-.12.12.12.12,0,0,1-.13-.12.13.13,0,0,1,.13-.13A.12.12,0,0,1,62.14,14.32Z" transform="translate(3532.64 5.51)"/><path class="cls-52" d="M67,10.24a.12.12,0,0,1-.12.13.13.13,0,0,1-.13-.13.12.12,0,0,1,.13-.12A.12.12,0,0,1,67,10.24Z" transform="translate(3532.64 5.51)"/><path class="cls-52" d="M76.35,10.37a.13.13,0,1,1-.13-.13A.13.13,0,0,1,76.35,10.37Z" transform="translate(3532.64 5.51)"/><path class="cls-52" d="M130.13,11.5a.13.13,0,0,1-.13.13.12.12,0,0,1-.12-.13.12.12,0,0,1,.12-.12A.12.12,0,0,1,130.13,11.5Z" transform="translate(3532.64 5.51)"/><path class="cls-52" d="M232.33,16.45a.12.12,0,0,1-.12.12.12.12,0,0,1-.13-.12.13.13,0,0,1,.13-.13A.13.13,0,0,1,232.33,16.45Z" transform="translate(3532.64 5.51)"/><path class="cls-52" d="M297.79,18.69a.12.12,0,0,1-.12.12.12.12,0,0,1-.13-.12.13.13,0,0,1,.13-.13A.13.13,0,0,1,297.79,18.69Z" transform="translate(3532.64 5.51)"/><path class="cls-52" d="M398.36,15.84a.12.12,0,0,1-.12.12.12.12,0,0,1-.13-.12.13.13,0,0,1,.13-.13A.12.12,0,0,1,398.36,15.84Z" transform="translate(3532.64 5.51)"/><path class="cls-52" d="M351.25,17.79a.12.12,0,0,1-.12.12.12.12,0,0,1-.13-.12.13.13,0,0,1,.13-.13A.12.12,0,0,1,351.25,17.79Z" transform="translate(3532.64 5.51)"/><path class="cls-52" d="M268.77,28a.12.12,0,0,1-.12.12.12.12,0,0,1-.13-.12.13.13,0,0,1,.13-.13A.12.12,0,0,1,268.77,28Z" transform="translate(3532.64 5.51)"/><path class="cls-52" d="M206.05,32.55a.12.12,0,0,1-.12.13.13.13,0,0,1-.13-.13.12.12,0,0,1,.13-.12A.12.12,0,0,1,206.05,32.55Z" transform="translate(3532.64 5.51)"/><path class="cls-52" d="M240.15,14.88A.13.13,0,0,1,240,15a.12.12,0,0,1-.12-.13.12.12,0,0,1,.12-.12A.12.12,0,0,1,240.15,14.88Z" transform="translate(3532.64 5.51)"/><path class="cls-52" d="M276-2.69a.13.13,0,0,1-.13.13.13.13,0,0,1-.12-.13.12.12,0,0,1,.12-.12A.12.12,0,0,1,276-2.69Z" transform="translate(3532.64 5.51)"/><path class="cls-52" d="M278.9-5.39a.13.13,0,0,1-.13.13.12.12,0,0,1-.12-.13.12.12,0,0,1,.12-.12A.12.12,0,0,1,278.9-5.39Z" transform="translate(3532.64 5.51)"/><path class="cls-52" d="M278.84.77a.13.13,0,1,1-.26,0,.13.13,0,0,1,.26,0Z" transform="translate(3532.64 5.51)"/><path class="cls-52" d="M480,20.81a.13.13,0,0,1-.13.13.13.13,0,0,1,0-.26A.13.13,0,0,1,480,20.81Z" transform="translate(3532.64 5.51)"/><path class="cls-52" d="M569.79,29.22a.13.13,0,0,1-.13.12.12.12,0,0,1-.12-.12.12.12,0,0,1,.12-.13A.13.13,0,0,1,569.79,29.22Z" transform="translate(3532.64 5.51)"/><path class="cls-52" d="M672.42,28.42a.13.13,0,0,1-.26,0,.13.13,0,0,1,.26,0Z" transform="translate(3532.64 5.51)"/><path class="cls-52" d="M553,40.82a.12.12,0,0,1-.12.13.13.13,0,0,1-.13-.13.12.12,0,0,1,.13-.12A.12.12,0,0,1,553,40.82Z" transform="translate(3532.64 5.51)"/><path class="cls-52" d="M522.64,41a.13.13,0,0,1-.13.13.12.12,0,0,1-.12-.13.12.12,0,0,1,.12-.12A.12.12,0,0,1,522.64,41Z" transform="translate(3532.64 5.51)"/><path class="cls-52" d="M685.38,22.48a.13.13,0,0,1-.13.13.12.12,0,0,1-.12-.13.12.12,0,0,1,.12-.12A.12.12,0,0,1,685.38,22.48Z" transform="translate(3532.64 5.51)"/><path class="cls-52" d="M700.23,20.75a.12.12,0,0,1-.12.12.12.12,0,0,1-.13-.12.13.13,0,0,1,.13-.13A.12.12,0,0,1,700.23,20.75Z" transform="translate(3532.64 5.51)"/><path class="cls-52" d="M701.13,14.94a.12.12,0,0,1-.12.12.12.12,0,0,1-.13-.12.13.13,0,0,1,.13-.13A.12.12,0,0,1,701.13,14.94Z" transform="translate(3532.64 5.51)"/><path class="cls-52" d="M610.2,12.88a.13.13,0,0,1-.13.13.12.12,0,0,1-.12-.13.12.12,0,0,1,.12-.12A.12.12,0,0,1,610.2,12.88Z" transform="translate(3532.64 5.51)"/><path class="cls-52" d="M603,11.35a.13.13,0,0,1-.13.13.12.12,0,0,1-.12-.13.12.12,0,0,1,.12-.12A.12.12,0,0,1,603,11.35Z" transform="translate(3532.64 5.51)"/><path class="cls-52" d="M641.68,13a.12.12,0,0,1-.12.12.12.12,0,0,1-.13-.12.13.13,0,0,1,.13-.13A.12.12,0,0,1,641.68,13Z" transform="translate(3532.64 5.51)"/><path class="cls-52" d="M691.82,15.16a.12.12,0,0,1-.12.13.13.13,0,0,1-.13-.13.12.12,0,0,1,.13-.12A.12.12,0,0,1,691.82,15.16Z" transform="translate(3532.64 5.51)"/><path class="cls-52" d="M701.75,27.14a.13.13,0,0,1-.13.13.12.12,0,0,1-.12-.13.12.12,0,0,1,.12-.12A.12.12,0,0,1,701.75,27.14Z" transform="translate(3532.64 5.51)"/><path class="cls-52" d="M702.83,69.53a.13.13,0,0,1-.13.13.13.13,0,0,1,0-.26A.13.13,0,0,1,702.83,69.53Z" transform="translate(3532.64 5.51)"/><path class="cls-52" d="M733.74,8.37a.13.13,0,0,1-.26,0,.13.13,0,1,1,.26,0Z" transform="translate(3532.64 5.51)"/><path class="cls-52" d="M733.76,24.32a.12.12,0,0,1-.12.13.13.13,0,1,1,0-.26A.12.12,0,0,1,733.76,24.32Z" transform="translate(3532.64 5.51)"/><path class="cls-52" d="M736.18,30.66a.13.13,0,0,1-.13.13.13.13,0,0,1,0-.26A.13.13,0,0,1,736.18,30.66Z" transform="translate(3532.64 5.51)"/><path class="cls-52" d="M714.85,114.46a.12.12,0,0,1-.13.12.12.12,0,0,1-.12-.12.12.12,0,0,1,.12-.13A.13.13,0,0,1,714.85,114.46Z" transform="translate(3532.64 5.51)"/><path class="cls-52" d="M707,74.59a.12.12,0,0,1-.12.13.13.13,0,0,1-.13-.13.12.12,0,0,1,.13-.12A.12.12,0,0,1,707,74.59Z" transform="translate(3532.64 5.51)"/><path class="cls-52" d="M681.06,62a.12.12,0,0,1-.13.12.12.12,0,0,1-.12-.12.13.13,0,0,1,.12-.13A.13.13,0,0,1,681.06,62Z" transform="translate(3532.64 5.51)"/><path class="cls-52" d="M668.76,61.94a.13.13,0,0,1-.13.13.12.12,0,0,1-.12-.13.12.12,0,0,1,.12-.12A.13.13,0,0,1,668.76,61.94Z" transform="translate(3532.64 5.51)"/><path class="cls-52" d="M698.58,87.56a.12.12,0,0,1-.12.13.13.13,0,0,1,0-.26A.12.12,0,0,1,698.58,87.56Z" transform="translate(3532.64 5.51)"/><path class="cls-52" d="M708,69.4a.13.13,0,0,1-.13.13.12.12,0,0,1-.12-.13.12.12,0,0,1,.12-.12A.12.12,0,0,1,708,69.4Z" transform="translate(3532.64 5.51)"/><path class="cls-52" d="M716.94,33a.12.12,0,0,1-.12.13.13.13,0,1,1,0-.26A.12.12,0,0,1,716.94,33Z" transform="translate(3532.64 5.51)"/><path class="cls-52" d="M716.85,157.57a.12.12,0,0,1-.13.12.12.12,0,0,1-.12-.12.12.12,0,0,1,.12-.13A.13.13,0,0,1,716.85,157.57Z" transform="translate(3532.64 5.51)"/><path class="cls-52" d="M711.07,199.24a.12.12,0,0,1-.12.12.12.12,0,0,1-.13-.12.13.13,0,0,1,.13-.13A.12.12,0,0,1,711.07,199.24Z" transform="translate(3532.64 5.51)"/><path class="cls-52" d="M708.29,172.1a.12.12,0,0,1-.12.12.12.12,0,0,1-.13-.12.13.13,0,0,1,.13-.13A.12.12,0,0,1,708.29,172.1Z" transform="translate(3532.64 5.51)"/><path class="cls-52" d="M705.53,125.15a.12.12,0,0,1-.12.12.12.12,0,0,1-.13-.12.13.13,0,0,1,.13-.13A.12.12,0,0,1,705.53,125.15Z" transform="translate(3532.64 5.51)"/><path class="cls-52" d="M693.31,112.92a.13.13,0,0,1-.13.13.13.13,0,0,1,0-.26A.13.13,0,0,1,693.31,112.92Z" transform="translate(3532.64 5.51)"/><path class="cls-52" d="M669.7,106.15a.12.12,0,0,1-.13.12.12.12,0,0,1-.12-.12.12.12,0,0,1,.12-.13A.13.13,0,0,1,669.7,106.15Z" transform="translate(3532.64 5.51)"/><path class="cls-52" d="M661.41,100.63a.13.13,0,1,1-.13-.13A.13.13,0,0,1,661.41,100.63Z" transform="translate(3532.64 5.51)"/><path class="cls-52" d="M672.39,176.06a.13.13,0,0,1-.26,0,.13.13,0,0,1,.26,0Z" transform="translate(3532.64 5.51)"/><path class="cls-52" d="M685.23,203.44a.12.12,0,0,1-.12.13.13.13,0,0,1-.13-.13.12.12,0,0,1,.13-.12A.12.12,0,0,1,685.23,203.44Z" transform="translate(3532.64 5.51)"/><path class="cls-52" d="M630.5,177a.13.13,0,0,1-.26,0,.13.13,0,1,1,.26,0Z" transform="translate(3532.64 5.51)"/><path class="cls-52" d="M588.49,124.28a.12.12,0,0,1-.12.13.13.13,0,0,1-.13-.13.12.12,0,0,1,.13-.12A.12.12,0,0,1,588.49,124.28Z" transform="translate(3532.64 5.51)"/><path class="cls-52" d="M576.63,103.64a.13.13,0,0,1-.13.13.13.13,0,0,1,0-.26A.13.13,0,0,1,576.63,103.64Z" transform="translate(3532.64 5.51)"/><path class="cls-52" d="M555.94,163.18a.12.12,0,0,1-.13.12.12.12,0,0,1-.12-.12.12.12,0,0,1,.12-.13A.13.13,0,0,1,555.94,163.18Z" transform="translate(3532.64 5.51)"/><path class="cls-52" d="M551.17,168a.12.12,0,0,1-.12.13.13.13,0,0,1,0-.26A.12.12,0,0,1,551.17,168Z" transform="translate(3532.64 5.51)"/><path class="cls-52" d="M505.73,119.75a.12.12,0,0,1-.12.13.13.13,0,0,1-.13-.13.12.12,0,0,1,.13-.12A.12.12,0,0,1,505.73,119.75Z" transform="translate(3532.64 5.51)"/><path class="cls-52" d="M477.7,77.87a.12.12,0,0,1-.12.12.12.12,0,0,1-.13-.12.13.13,0,0,1,.13-.13A.12.12,0,0,1,477.7,77.87Z" transform="translate(3532.64 5.51)"/><path class="cls-52" d="M442.85,63.22a.12.12,0,0,1-.12.12.12.12,0,0,1-.13-.12.13.13,0,0,1,.13-.13A.13.13,0,0,1,442.85,63.22Z" transform="translate(3532.64 5.51)"/><path class="cls-52" d="M385.51,49.5a.12.12,0,0,1-.12.12.13.13,0,0,1-.13-.12.13.13,0,0,1,.13-.13A.12.12,0,0,1,385.51,49.5Z" transform="translate(3532.64 5.51)"/><path class="cls-52" d="M326.49,52.55a.13.13,0,1,1-.13-.13A.13.13,0,0,1,326.49,52.55Z" transform="translate(3532.64 5.51)"/><path class="cls-52" d="M304.52,67.82a.12.12,0,0,1-.13.12.12.12,0,0,1-.12-.12.12.12,0,0,1,.12-.13A.13.13,0,0,1,304.52,67.82Z" transform="translate(3532.64 5.51)"/><path class="cls-52" d="M272,95.13a.13.13,0,1,1-.13-.13A.13.13,0,0,1,272,95.13Z" transform="translate(3532.64 5.51)"/><path class="cls-52" d="M245.61,115.55a.13.13,0,0,1-.26,0,.13.13,0,1,1,.26,0Z" transform="translate(3532.64 5.51)"/><path class="cls-52" d="M234.7,128a.13.13,0,0,1-.26,0,.13.13,0,0,1,.26,0Z" transform="translate(3532.64 5.51)"/><path class="cls-52" d="M722.67,200.18a.13.13,0,0,1-.13.13.12.12,0,0,1-.12-.13.12.12,0,0,1,.12-.12A.12.12,0,0,1,722.67,200.18Z" transform="translate(3532.64 5.51)"/><path class="cls-52" d="M727,200.22a.13.13,0,0,1-.13.13.13.13,0,0,1-.12-.13.12.12,0,0,1,.12-.12A.12.12,0,0,1,727,200.22Z" transform="translate(3532.64 5.51)"/><path class="cls-52" d="M740.59,196.4a.13.13,0,0,1-.13.13.12.12,0,0,1-.12-.13.12.12,0,0,1,.12-.12A.13.13,0,0,1,740.59,196.4Z" transform="translate(3532.64 5.51)"/><path class="cls-52" d="M741.31,181.8a.13.13,0,0,1-.26,0,.13.13,0,1,1,.26,0Z" transform="translate(3532.64 5.51)"/><path class="cls-52" d="M738.29,160.51a.13.13,0,0,1-.13.13.12.12,0,0,1-.12-.13.12.12,0,0,1,.12-.12A.12.12,0,0,1,738.29,160.51Z" transform="translate(3532.64 5.51)"/><path class="cls-52" d="M738.44,53.53a.12.12,0,0,1-.12.13.13.13,0,1,1,0-.26A.12.12,0,0,1,738.44,53.53Z" transform="translate(3532.64 5.51)"/><path class="cls-52" d="M738.34,43.24a.12.12,0,0,1-.12.13.13.13,0,1,1,0-.26A.12.12,0,0,1,738.34,43.24Z" transform="translate(3532.64 5.51)"/><path class="cls-52" d="M716.42,105.88a.12.12,0,0,1-.12.13.13.13,0,0,1-.13-.13.12.12,0,0,1,.13-.12A.12.12,0,0,1,716.42,105.88Z" transform="translate(3532.64 5.51)"/><path class="cls-52" d="M716.25,80.45a.13.13,0,0,1-.13.13.13.13,0,0,1,0-.26A.13.13,0,0,1,716.25,80.45Z" transform="translate(3532.64 5.51)"/><path class="cls-52" d="M717.08,85.64a.12.12,0,0,1-.12.12.12.12,0,0,1-.13-.12.13.13,0,0,1,.13-.13A.12.12,0,0,1,717.08,85.64Z" transform="translate(3532.64 5.51)"/><path class="cls-52" d="M722.84,82.28a.13.13,0,0,1-.26,0,.13.13,0,0,1,.26,0Z" transform="translate(3532.64 5.51)"/><path class="cls-52" d="M726.65,76.59a.12.12,0,0,1-.13.12.12.12,0,0,1-.12-.12.12.12,0,0,1,.12-.13A.13.13,0,0,1,726.65,76.59Z" transform="translate(3532.64 5.51)"/><path class="cls-52" d="M739.4,50a.12.12,0,0,1-.13.12.12.12,0,0,1-.12-.12.12.12,0,0,1,.12-.13A.13.13,0,0,1,739.4,50Z" transform="translate(3532.64 5.51)"/><path class="cls-52" d="M739.44,40.31a.12.12,0,0,1-.12.13.13.13,0,1,1,0-.26A.12.12,0,0,1,739.44,40.31Z" transform="translate(3532.64 5.51)"/><path class="cls-52" d="M646.3,22.87a.12.12,0,0,1-.13.12.12.12,0,0,1-.12-.12.12.12,0,0,1,.12-.13A.13.13,0,0,1,646.3,22.87Z" transform="translate(3532.64 5.51)"/><path class="cls-52" d="M643.9,24.05a.12.12,0,0,1-.13.12.12.12,0,0,1-.12-.12.12.12,0,0,1,.12-.13A.13.13,0,0,1,643.9,24.05Z" transform="translate(3532.64 5.51)"/><path class="cls-52" d="M683.48,14.4a.13.13,0,1,1-.13-.13A.13.13,0,0,1,683.48,14.4Z" transform="translate(3532.64 5.51)"/><path class="cls-52" d="M687,12.48a.12.12,0,0,1-.12.13.13.13,0,0,1-.13-.13.12.12,0,0,1,.13-.12A.12.12,0,0,1,687,12.48Z" transform="translate(3532.64 5.51)"/><path class="cls-52" d="M610.87,22.34a.12.12,0,0,1-.12.13.13.13,0,0,1-.13-.13.12.12,0,0,1,.13-.12A.12.12,0,0,1,610.87,22.34Z" transform="translate(3532.64 5.51)"/><path class="cls-52" d="M553.19,16.93a.12.12,0,0,1-.13.12.12.12,0,0,1-.12-.12.12.12,0,0,1,.12-.13A.13.13,0,0,1,553.19,16.93Z" transform="translate(3532.64 5.51)"/><path class="cls-52" d="M521.06,12.34a.13.13,0,0,1-.26,0,.13.13,0,1,1,.26,0Z" transform="translate(3532.64 5.51)"/><path class="cls-52" d="M499.52,12.41a.12.12,0,0,1-.13.12.12.12,0,0,1-.12-.12.12.12,0,0,1,.12-.13A.13.13,0,0,1,499.52,12.41Z" transform="translate(3532.64 5.51)"/><path class="cls-52" d="M503.17,11.49a.12.12,0,0,1-.13.12.12.12,0,0,1-.12-.12.12.12,0,0,1,.12-.13A.13.13,0,0,1,503.17,11.49Z" transform="translate(3532.64 5.51)"/><path class="cls-52" d="M536.4,8.26a.13.13,0,0,1-.13.13.13.13,0,0,1,0-.26A.13.13,0,0,1,536.4,8.26Z" transform="translate(3532.64 5.51)"/><path class="cls-52" d="M580.4,3.83a.12.12,0,0,1-.12.12.12.12,0,0,1-.13-.12.13.13,0,0,1,.13-.13A.12.12,0,0,1,580.4,3.83Z" transform="translate(3532.64 5.51)"/><path class="cls-52" d="M538.11,17a.13.13,0,0,1-.26,0,.13.13,0,0,1,.26,0Z" transform="translate(3532.64 5.51)"/><path class="cls-52" d="M533.11,18.72a.13.13,0,0,1-.26,0,.13.13,0,0,1,.26,0Z" transform="translate(3532.64 5.51)"/><path class="cls-52" d="M644.61,11a.12.12,0,0,1-.13.12.12.12,0,0,1-.12-.12.12.12,0,0,1,.12-.13A.13.13,0,0,1,644.61,11Z" transform="translate(3532.64 5.51)"/><path class="cls-52" d="M639.68,46.68a.12.12,0,0,1-.12.13.13.13,0,1,1,0-.26A.12.12,0,0,1,639.68,46.68Z" transform="translate(3532.64 5.51)"/><path class="cls-52" d="M642.06,68.64a.12.12,0,0,1-.13.12.12.12,0,0,1-.12-.12.13.13,0,0,1,.12-.13A.13.13,0,0,1,642.06,68.64Z" transform="translate(3532.64 5.51)"/><path class="cls-52" d="M651.92,77.05a.13.13,0,0,1-.26,0,.13.13,0,0,1,.26,0Z" transform="translate(3532.64 5.51)"/><path class="cls-52" d="M645.58,90.69a.13.13,0,1,1-.13-.13A.13.13,0,0,1,645.58,90.69Z" transform="translate(3532.64 5.51)"/><path class="cls-52" d="M642.51,108.44a.13.13,0,1,1-.26,0,.13.13,0,0,1,.26,0Z" transform="translate(3532.64 5.51)"/><path class="cls-52" d="M667.28,117a.13.13,0,0,1-.13.13A.12.12,0,0,1,667,117a.12.12,0,0,1,.12-.12A.12.12,0,0,1,667.28,117Z" transform="translate(3532.64 5.51)"/><path class="cls-52" d="M711.88,204.3a.13.13,0,0,1-.26,0,.13.13,0,0,1,.26,0Z" transform="translate(3532.64 5.51)"/><path class="cls-52" d="M719.67,241a.12.12,0,0,1-.13.12.12.12,0,0,1-.12-.12.12.12,0,0,1,.12-.13A.13.13,0,0,1,719.67,241Z" transform="translate(3532.64 5.51)"/><path class="cls-52" d="M718.14,240.17a.12.12,0,0,1-.13.12.12.12,0,0,1-.12-.12A.12.12,0,0,1,718,240,.13.13,0,0,1,718.14,240.17Z" transform="translate(3532.64 5.51)"/><path class="cls-52" d="M711,249.11a.13.13,0,1,1-.26,0,.13.13,0,0,1,.26,0Z" transform="translate(3532.64 5.51)"/><path class="cls-52" d="M717.4,213.46a.13.13,0,0,1-.26,0,.13.13,0,0,1,.26,0Z" transform="translate(3532.64 5.51)"/><path class="cls-52" d="M664.65,199.69a.13.13,0,0,1-.13.13.12.12,0,0,1-.12-.13.12.12,0,0,1,.12-.12A.12.12,0,0,1,664.65,199.69Z" transform="translate(3532.64 5.51)"/><path class="cls-52" d="M656.44,151.08a.12.12,0,0,1-.12.12.12.12,0,0,1-.13-.12.13.13,0,0,1,.13-.13A.12.12,0,0,1,656.44,151.08Z" transform="translate(3532.64 5.51)"/><path class="cls-52" d="M652.58,109.33a.12.12,0,0,1-.12.13.13.13,0,0,1-.13-.13.12.12,0,0,1,.13-.12A.12.12,0,0,1,652.58,109.33Z" transform="translate(3532.64 5.51)"/><path class="cls-52" d="M627.51,128.27a.13.13,0,1,1-.26,0,.13.13,0,0,1,.26,0Z" transform="translate(3532.64 5.51)"/><path class="cls-52" d="M616,93a.13.13,0,1,1-.26,0,.13.13,0,0,1,.26,0Z" transform="translate(3532.64 5.51)"/><path class="cls-52" d="M605.47,75.78a.13.13,0,0,1-.13.13.12.12,0,0,1-.12-.13.12.12,0,0,1,.12-.12A.12.12,0,0,1,605.47,75.78Z" transform="translate(3532.64 5.51)"/><path class="cls-52" d="M495.92,93.06a.12.12,0,0,1-.13.12.12.12,0,0,1-.12-.12.12.12,0,0,1,.12-.13A.13.13,0,0,1,495.92,93.06Z" transform="translate(3532.64 5.51)"/><path class="cls-52" d="M472.31,67.77a.13.13,0,0,1-.13.13.13.13,0,0,1,0-.26A.13.13,0,0,1,472.31,67.77Z" transform="translate(3532.64 5.51)"/><path class="cls-52" d="M371.76,50.28a.13.13,0,0,1-.13.13.12.12,0,0,1-.12-.13.12.12,0,0,1,.12-.12A.12.12,0,0,1,371.76,50.28Z" transform="translate(3532.64 5.51)"/><path class="cls-52" d="M285.51,50.22a.13.13,0,0,1-.13.13.12.12,0,0,1-.12-.13.12.12,0,0,1,.12-.12A.12.12,0,0,1,285.51,50.22Z" transform="translate(3532.64 5.51)"/><path class="cls-52" d="M240.4,126.38a.12.12,0,0,1-.13.12.12.12,0,0,1-.12-.12.12.12,0,0,1,.12-.13A.13.13,0,0,1,240.4,126.38Z" transform="translate(3532.64 5.51)"/><path class="cls-52" d="M230.38,172.74a.13.13,0,0,1-.13.13.12.12,0,0,1-.12-.13.12.12,0,0,1,.12-.12A.12.12,0,0,1,230.38,172.74Z" transform="translate(3532.64 5.51)"/><path class="cls-52" d="M229.6,184.35a.13.13,0,0,1-.26,0,.13.13,0,0,1,.26,0Z" transform="translate(3532.64 5.51)"/><path class="cls-52" d="M177.34,181.29a.13.13,0,1,1-.13-.13A.13.13,0,0,1,177.34,181.29Z" transform="translate(3532.64 5.51)"/><path class="cls-52" d="M116.89,138.17a.13.13,0,0,1-.26,0,.13.13,0,0,1,.26,0Z" transform="translate(3532.64 5.51)"/><path class="cls-52" d="M115.69,123.22a.12.12,0,0,1-.12.13.13.13,0,0,1-.13-.13.12.12,0,0,1,.13-.12A.12.12,0,0,1,115.69,123.22Z" transform="translate(3532.64 5.51)"/><path class="cls-52" d="M65.57,184.42a.13.13,0,0,1-.13.13.13.13,0,0,1,0-.26A.13.13,0,0,1,65.57,184.42Z" transform="translate(3532.64 5.51)"/><path class="cls-52" d="M67.07,156.2a.13.13,0,0,1-.26,0,.13.13,0,0,1,.26,0Z" transform="translate(3532.64 5.51)"/><path class="cls-52" d="M57.66,154.59a.13.13,0,0,1-.13.13.12.12,0,0,1-.12-.13.12.12,0,0,1,.12-.12A.12.12,0,0,1,57.66,154.59Z" transform="translate(3532.64 5.51)"/><path class="cls-52" d="M36.55,179.57a.12.12,0,0,1-.12.12.12.12,0,0,1-.13-.12.13.13,0,0,1,.13-.13A.12.12,0,0,1,36.55,179.57Z" transform="translate(3532.64 5.51)"/><path class="cls-52" d="M33.91,183.06a.13.13,0,0,1-.26,0,.13.13,0,0,1,.26,0Z" transform="translate(3532.64 5.51)"/><path class="cls-52" d="M34.17,163.58a.12.12,0,0,1-.12.12.13.13,0,0,1-.13-.12.13.13,0,0,1,.13-.13A.12.12,0,0,1,34.17,163.58Z" transform="translate(3532.64 5.51)"/><path class="cls-52" d="M20.41,228.12a.12.12,0,0,1-.13.12.12.12,0,0,1-.12-.12.12.12,0,0,1,.12-.13A.13.13,0,0,1,20.41,228.12Z" transform="translate(3532.64 5.51)"/><path class="cls-52" d="M18.9,218.61a.13.13,0,0,1-.13.13.12.12,0,0,1-.12-.13.12.12,0,0,1,.12-.12A.12.12,0,0,1,18.9,218.61Z" transform="translate(3532.64 5.51)"/><path class="cls-52" d="M18,195.82a.12.12,0,0,1-.12.12.12.12,0,0,1-.13-.12.13.13,0,0,1,.13-.13A.12.12,0,0,1,18,195.82Z" transform="translate(3532.64 5.51)"/><path class="cls-52" d="M13.88,222.65a.13.13,0,1,1-.13-.13A.13.13,0,0,1,13.88,222.65Z" transform="translate(3532.64 5.51)"/><path class="cls-52" d="M12.41,211a.13.13,0,1,1-.13-.13A.13.13,0,0,1,12.41,211Z" transform="translate(3532.64 5.51)"/><path class="cls-52" d="M10.71,195.79a.13.13,0,0,1-.26,0,.13.13,0,1,1,.26,0Z" transform="translate(3532.64 5.51)"/><path class="cls-52" d="M10.77,182.79a.13.13,0,1,1-.26,0,.13.13,0,0,1,.26,0Z" transform="translate(3532.64 5.51)"/><path class="cls-52" d="M12.54,167.41a.12.12,0,0,1-.13.12.12.12,0,0,1-.12-.12.12.12,0,0,1,.12-.13A.13.13,0,0,1,12.54,167.41Z" transform="translate(3532.64 5.51)"/><path class="cls-52" d="M21.22,161.9a.13.13,0,0,1-.26,0,.13.13,0,0,1,.26,0Z" transform="translate(3532.64 5.51)"/><path class="cls-52" d="M23.71,162a.13.13,0,0,1-.13.13.12.12,0,0,1-.12-.13.12.12,0,0,1,.12-.12A.12.12,0,0,1,23.71,162Z" transform="translate(3532.64 5.51)"/><path class="cls-52" d="M27,115.06a.13.13,0,0,1-.12.13.13.13,0,1,1,0-.26A.13.13,0,0,1,27,115.06Z" transform="translate(3532.64 5.51)"/><path class="cls-52" d="M34,65.76a.13.13,0,1,1-.13-.13A.13.13,0,0,1,34,65.76Z" transform="translate(3532.64 5.51)"/><path class="cls-52" d="M32.19,33.51a.12.12,0,0,1-.12.12.12.12,0,0,1-.13-.12.13.13,0,0,1,.13-.13A.12.12,0,0,1,32.19,33.51Z" transform="translate(3532.64 5.51)"/><path class="cls-52" d="M27.73,23.48a.13.13,0,0,1-.26,0,.13.13,0,0,1,.26,0Z" transform="translate(3532.64 5.51)"/><path class="cls-52" d="M6.77,54.43a.13.13,0,0,1-.13.13.12.12,0,0,1-.12-.13.12.12,0,0,1,.12-.12A.12.12,0,0,1,6.77,54.43Z" transform="translate(3532.64 5.51)"/><path class="cls-52" d="M2.11,64.51a.12.12,0,0,1-.12.13.13.13,0,0,1-.13-.13A.12.12,0,0,1,2,64.39.12.12,0,0,1,2.11,64.51Z" transform="translate(3532.64 5.51)"/><path class="cls-52" d="M5.94,36.87a.13.13,0,1,1-.26,0,.13.13,0,0,1,.26,0Z" transform="translate(3532.64 5.51)"/><path class="cls-52" d="M12.76,21.65a.13.13,0,1,1-.13-.13A.13.13,0,0,1,12.76,21.65Z" transform="translate(3532.64 5.51)"/><path class="cls-52" d="M12.85,15.71a.12.12,0,0,1-.12.13.13.13,0,1,1,0-.26A.12.12,0,0,1,12.85,15.71Z" transform="translate(3532.64 5.51)"/><path class="cls-52" d="M14.59,15.56a.13.13,0,0,1-.13.13.12.12,0,0,1-.12-.13.12.12,0,0,1,.12-.12A.12.12,0,0,1,14.59,15.56Z" transform="translate(3532.64 5.51)"/><path class="cls-52" d="M22.84,22.79a.12.12,0,0,1-.13.12.12.12,0,0,1-.12-.12.12.12,0,0,1,.12-.13A.13.13,0,0,1,22.84,22.79Z" transform="translate(3532.64 5.51)"/><path class="cls-52" d="M34,23.3a.12.12,0,0,1-.12.12.12.12,0,0,1-.13-.12.13.13,0,0,1,.13-.13A.12.12,0,0,1,34,23.3Z" transform="translate(3532.64 5.51)"/><path class="cls-52" d="M42.53,25.63a.12.12,0,0,1-.12.13.13.13,0,0,1-.13-.13.12.12,0,0,1,.13-.12A.12.12,0,0,1,42.53,25.63Z" transform="translate(3532.64 5.51)"/><path class="cls-52" d="M52.32,47.62a.12.12,0,0,1-.12.13.13.13,0,0,1,0-.26A.12.12,0,0,1,52.32,47.62Z" transform="translate(3532.64 5.51)"/><path class="cls-52" d="M21.2,73.73a.13.13,0,0,1-.13.13.13.13,0,0,1,0-.26A.13.13,0,0,1,21.2,73.73Z" transform="translate(3532.64 5.51)"/><path class="cls-52" d="M32.29,73.24a.13.13,0,0,1-.26,0,.13.13,0,1,1,.26,0Z" transform="translate(3532.64 5.51)"/><path class="cls-52" d="M73.61,78.32a.13.13,0,0,1-.26,0,.13.13,0,0,1,.26,0Z" transform="translate(3532.64 5.51)"/><path class="cls-52" d="M88,67.31a.12.12,0,0,1-.12.13.13.13,0,0,1-.13-.13.12.12,0,0,1,.13-.12A.12.12,0,0,1,88,67.31Z" transform="translate(3532.64 5.51)"/><path class="cls-52" d="M89.43,57.16a.13.13,0,1,1-.26,0,.13.13,0,0,1,.26,0Z" transform="translate(3532.64 5.51)"/><path class="cls-52" d="M80.21,76.76a.12.12,0,0,1-.13.12.12.12,0,0,1-.12-.12.12.12,0,0,1,.12-.13A.13.13,0,0,1,80.21,76.76Z" transform="translate(3532.64 5.51)"/><path class="cls-52" d="M80.33,78.24a.12.12,0,0,1-.13.12.12.12,0,0,1-.12-.12.12.12,0,0,1,.12-.13A.13.13,0,0,1,80.33,78.24Z" transform="translate(3532.64 5.51)"/><path class="cls-52" d="M63.54,68.62a.13.13,0,0,1-.13.13.13.13,0,0,1,0-.26A.13.13,0,0,1,63.54,68.62Z" transform="translate(3532.64 5.51)"/><path class="cls-52" d="M64.71,69.8a.13.13,0,0,1-.13.13.13.13,0,0,1,0-.26A.13.13,0,0,1,64.71,69.8Z" transform="translate(3532.64 5.51)"/><path class="cls-52" d="M74.73,58.68a.12.12,0,0,1-.12.12.12.12,0,0,1-.13-.12.13.13,0,0,1,.13-.13A.13.13,0,0,1,74.73,58.68Z" transform="translate(3532.64 5.51)"/><path class="cls-52" d="M637.81,71.24a.12.12,0,0,1-.12.12.12.12,0,0,1-.13-.12.13.13,0,0,1,.13-.13A.12.12,0,0,1,637.81,71.24Z" transform="translate(3532.64 5.51)"/><path class="cls-52" d="M649.5,83.65a.12.12,0,0,1-.13.12.12.12,0,0,1-.12-.12.12.12,0,0,1,.12-.13A.13.13,0,0,1,649.5,83.65Z" transform="translate(3532.64 5.51)"/><path class="cls-52" d="M656.15,80.45a.13.13,0,0,1-.26,0,.13.13,0,0,1,.26,0Z" transform="translate(3532.64 5.51)"/><path class="cls-52" d="M592.5,54.37a.13.13,0,1,1-.26,0,.13.13,0,0,1,.26,0Z" transform="translate(3532.64 5.51)"/><path class="cls-52" d="M486.81,29.39a.13.13,0,0,1-.13.12.13.13,0,0,1-.12-.12.13.13,0,0,1,.12-.13A.13.13,0,0,1,486.81,29.39Z" transform="translate(3532.64 5.51)"/><path class="cls-52" d="M398.36,17.09a.13.13,0,0,1-.26,0,.13.13,0,0,1,.26,0Z" transform="translate(3532.64 5.51)"/><path class="cls-52" d="M374.87,18a.13.13,0,0,1-.13.13.13.13,0,0,1,0-.26A.13.13,0,0,1,374.87,18Z" transform="translate(3532.64 5.51)"/><path class="cls-52" d="M421.84,19.53a.13.13,0,0,1-.12.13.13.13,0,0,1-.13-.13.12.12,0,0,1,.13-.12A.12.12,0,0,1,421.84,19.53Z" transform="translate(3532.64 5.51)"/><path class="cls-52" d="M467.06,19.26a.13.13,0,0,1-.26,0,.13.13,0,0,1,.26,0Z" transform="translate(3532.64 5.51)"/><path class="cls-52" d="M408.91,61.73a.13.13,0,0,1-.13.12.13.13,0,0,1-.12-.12.13.13,0,0,1,.12-.13A.13.13,0,0,1,408.91,61.73Z" transform="translate(3532.64 5.51)"/><path class="cls-52" d="M462.37,25.7a.13.13,0,1,1-.13-.13A.13.13,0,0,1,462.37,25.7Z" transform="translate(3532.64 5.51)"/><path class="cls-52" d="M488.2,44.06a.13.13,0,0,1-.13.13.12.12,0,0,1-.12-.13.12.12,0,0,1,.12-.12A.12.12,0,0,1,488.2,44.06Z" transform="translate(3532.64 5.51)"/><path class="cls-52" d="M555.33,66.65a.13.13,0,0,1-.26,0,.13.13,0,0,1,.26,0Z" transform="translate(3532.64 5.51)"/><path class="cls-52" d="M600.07,31.53a.12.12,0,0,1-.12.12.12.12,0,0,1-.13-.12.13.13,0,0,1,.13-.13A.12.12,0,0,1,600.07,31.53Z" transform="translate(3532.64 5.51)"/><path class="cls-52" d="M624.42,89a.12.12,0,0,1-.13.12.12.12,0,0,1-.12-.12.12.12,0,0,1,.12-.13A.13.13,0,0,1,624.42,89Z" transform="translate(3532.64 5.51)"/><path class="cls-52" d="M657.76,99.73a.13.13,0,1,1-.26,0,.13.13,0,0,1,.26,0Z" transform="translate(3532.64 5.51)"/><path class="cls-52" d="M675,98.18a.12.12,0,0,1-.12.12.12.12,0,0,1-.13-.12.13.13,0,0,1,.13-.13A.12.12,0,0,1,675,98.18Z" transform="translate(3532.64 5.51)"/><path class="cls-52" d="M689.32,146.41a.12.12,0,0,1-.12.12.12.12,0,0,1-.13-.12.13.13,0,0,1,.13-.13A.12.12,0,0,1,689.32,146.41Z" transform="translate(3532.64 5.51)"/><path class="cls-52" d="M683.52,95.88a.12.12,0,0,1-.12.13.13.13,0,0,1-.13-.13.12.12,0,0,1,.13-.12A.12.12,0,0,1,683.52,95.88Z" transform="translate(3532.64 5.51)"/><path class="cls-52" d="M551.92,70.08a.13.13,0,0,1-.26,0,.13.13,0,0,1,.26,0Z" transform="translate(3532.64 5.51)"/><path class="cls-52" d="M502.88,61.76a.13.13,0,0,1-.13.13.13.13,0,0,1,0-.26A.13.13,0,0,1,502.88,61.76Z" transform="translate(3532.64 5.51)"/><path class="cls-52" d="M494.55,48.78a.13.13,0,0,1-.26,0,.13.13,0,1,1,.26,0Z" transform="translate(3532.64 5.51)"/><path class="cls-52" d="M497.65,34a.12.12,0,0,1-.12.13.13.13,0,0,1,0-.26A.12.12,0,0,1,497.65,34Z" transform="translate(3532.64 5.51)"/><path class="cls-52" d="M322.68,30.28a.13.13,0,0,1-.26,0,.13.13,0,1,1,.26,0Z" transform="translate(3532.64 5.51)"/><path class="cls-52" d="M293.06,25.06a.12.12,0,0,1-.13.12.12.12,0,0,1-.12-.12.12.12,0,0,1,.12-.13A.13.13,0,0,1,293.06,25.06Z" transform="translate(3532.64 5.51)"/><path class="cls-52" d="M353.76,22.08a.12.12,0,0,1-.12.13.13.13,0,0,1-.13-.13.12.12,0,0,1,.13-.12A.12.12,0,0,1,353.76,22.08Z" transform="translate(3532.64 5.51)"/><polygon class="cls-53" points="3907.36 271.49 3959.1 216.35 3985.97 236.41 4010.71 229.43 4049.73 241.4 4103.88 227.43 4126.88 234.08 4150.46 221.78 4192.97 271.49 3907.36 271.49"/><polygon class="cls-54" points="4150.46 221.78 4152.79 252.82 4126.88 234.08 4150.46 221.78"/><polygon class="cls-55" points="4152.79 252.82 4178.17 254.18 4150.46 221.78 4152.79 252.82"/><polygon class="cls-54" points="4178.17 254.18 4176.45 271.49 4152.79 252.82 4178.17 254.18"/><polygon class="cls-55" points="4152.79 252.82 4141.18 271.49 4176.45 271.49 4152.79 252.82"/><polygon class="cls-55" points="4152.79 252.82 4135.07 253.53 4126.88 234.08 4152.79 252.82"/><polygon class="cls-54" points="4135.07 253.53 4109.96 263.13 4126.88 234.08 4135.07 253.53"/><polygon class="cls-54" points="4141.18 271.49 4135.07 253.53 4152.79 252.82 4141.18 271.49"/><polygon class="cls-54" points="4109.96 263.13 4088.45 247.55 4064.57 263.84 4109.96 263.13"/><polygon class="cls-54" points="4109.96 263.13 4096.16 271.49 4117.85 271.49 4109.96 263.13"/><polygon class="cls-55" points="4141.18 271.49 4109.96 263.13 4135.07 253.53 4141.18 271.49"/><polygon class="cls-55" points="4064.57 263.84 4066.9 248.61 4088.45 247.55 4064.57 263.84"/><polygon class="cls-55" points="4088.45 247.55 4108.25 243.81 4109.96 263.13 4088.45 247.55"/><polygon class="cls-55" points="4126.88 234.08 4103.88 227.43 4108.25 243.81 4126.88 234.08"/><polygon class="cls-54" points="4103.88 227.43 4088.45 247.55 4108.25 243.81 4103.88 227.43"/><polygon class="cls-55" points="4066.9 248.61 4103.88 227.43 4088.45 247.55 4066.9 248.61"/><polygon class="cls-54" points="4066.9 248.61 4049.73 241.4 4103.88 227.43 4066.9 248.61"/><polygon class="cls-55" points="4096.16 271.49 4083.93 263.54 4109.96 263.13 4096.16 271.49"/><polygon class="cls-55" points="4083.93 263.54 4064.57 263.84 4074.26 271.49 4083.93 263.54"/><polygon class="cls-54" points="4064.57 263.84 4035.28 271.49 4074.26 271.49 4064.57 263.84"/><polygon class="cls-55" points="4064.57 263.84 4049.73 241.4 4066.9 248.61 4064.57 263.84"/><polygon class="cls-55" points="4049.73 241.4 4035.28 271.49 4064.57 263.84 4049.73 241.4"/><polygon class="cls-55" points="4035.28 271.49 4005.03 255.69 3988.88 271.49 4035.28 271.49"/><polygon class="cls-55" points="4005.03 255.69 4026.58 251.2 4035.28 271.49 4005.03 255.69"/><polygon class="cls-54" points="4026.58 251.2 4049.73 241.4 4035.28 271.49 4026.58 251.2"/><polygon class="cls-55" points="4026.58 251.2 4010.71 229.43 4049.73 241.4 4026.58 251.2"/><polygon class="cls-54" points="4010.71 229.43 4005.03 255.69 4026.58 251.2 4010.71 229.43"/><polygon class="cls-55" points="4005.03 255.69 3985.97 236.41 4010.71 229.43 4005.03 255.69"/><polygon class="cls-55" points="3985.97 236.41 3953.94 252.62 3959.1 216.35 3985.97 236.41"/><polygon class="cls-54" points="4005.03 255.69 3977.09 252.62 3985.97 236.41 4005.03 255.69"/><polygon class="cls-55" points="3988.88 271.49 3977.09 252.62 4005.03 255.69 3988.88 271.49"/><polygon class="cls-55" points="3977.09 252.62 3953.94 252.62 3985.97 236.41 3977.09 252.62"/><polygon class="cls-54" points="3977.09 252.62 3959.76 271.49 3988.88 271.49 3977.09 252.62"/><polygon class="cls-55" points="3959.76 271.49 3953.94 252.62 3977.09 252.62 3959.76 271.49"/><polygon class="cls-55" points="3953.94 252.62 3907.36 271.49 3959.76 271.49 3953.94 252.62"/><polygon class="cls-54" points="3908.3 270.74 3959.1 216.35 3953.94 252.62 3908.3 270.74"/><polygon class="cls-56" points="3507.94 283.79 3532.64 267.8 3542.38 268.42 3553.82 258.74 3570.31 270.6 3594.03 260.71 3604.11 267.4 3618.1 268.07 3633.06 283.79 3507.94 283.79"/><polygon class="cls-57" points="3618.1 268.07 3615.46 275.61 3604.11 267.4 3618.1 268.07"/><polygon class="cls-58" points="3615.46 275.61 3626.58 276.21 3618.1 268.07 3615.46 275.61"/><polygon class="cls-57" points="3626.58 276.21 3625.82 283.79 3615.46 275.61 3626.58 276.21"/><polygon class="cls-58" points="3615.46 275.61 3610.37 283.79 3625.82 283.79 3615.46 275.61"/><polygon class="cls-58" points="3615.46 275.61 3607.69 275.92 3604.11 267.4 3615.46 275.61"/><polygon class="cls-57" points="3607.69 275.92 3596.69 280.13 3604.11 267.4 3607.69 275.92"/><polygon class="cls-57" points="3610.37 283.79 3607.69 275.92 3615.46 275.61 3610.37 283.79"/><polygon class="cls-57" points="3596.69 280.13 3587.27 273.3 3576.81 280.44 3596.69 280.13"/><polygon class="cls-57" points="3596.69 280.13 3590.65 283.79 3600.15 283.79 3596.69 280.13"/><polygon class="cls-58" points="3610.37 283.79 3596.69 280.13 3607.69 275.92 3610.37 283.79"/><polygon class="cls-58" points="3576.81 280.44 3577.83 273.76 3587.27 273.3 3576.81 280.44"/><polygon class="cls-58" points="3587.27 273.3 3595.94 271.66 3596.69 280.13 3587.27 273.3"/><polygon class="cls-58" points="3604.11 267.4 3594.03 260.71 3595.94 271.66 3604.11 267.4"/><polygon class="cls-57" points="3594.03 260.71 3587.27 273.3 3595.94 271.66 3594.03 260.71"/><polygon class="cls-58" points="3577.83 273.76 3594.03 260.71 3587.27 273.3 3577.83 273.76"/><polygon class="cls-57" points="3577.83 273.76 3570.31 270.6 3594.03 260.71 3577.83 273.76"/><polygon class="cls-58" points="3590.65 283.79 3585.29 280.3 3596.69 280.13 3590.65 283.79"/><polygon class="cls-58" points="3585.29 280.3 3576.81 280.44 3581.05 283.79 3585.29 280.3"/><polygon class="cls-57" points="3576.81 280.44 3563.98 283.79 3581.05 283.79 3576.81 280.44"/><polygon class="cls-58" points="3576.81 280.44 3570.31 270.6 3577.83 273.76 3576.81 280.44"/><polygon class="cls-58" points="3570.31 270.6 3563.98 283.79 3576.81 280.44 3570.31 270.6"/><polygon class="cls-58" points="3563.98 283.79 3550.73 276.87 3543.65 283.79 3563.98 283.79"/><polygon class="cls-58" points="3550.73 276.87 3560.17 274.9 3563.98 283.79 3550.73 276.87"/><polygon class="cls-57" points="3560.17 274.9 3570.31 270.6 3563.98 283.79 3560.17 274.9"/><polygon class="cls-58" points="3560.17 274.9 3553.82 258.74 3570.31 270.6 3560.17 274.9"/><polygon class="cls-57" points="3553.82 258.74 3550.73 276.87 3560.17 274.9 3553.82 258.74"/><polygon class="cls-58" points="3550.73 276.87 3542.38 268.42 3553.82 258.74 3550.73 276.87"/><polygon class="cls-58" points="3542.38 268.42 3528.35 275.52 3532.64 267.8 3542.38 268.42"/><polygon class="cls-57" points="3550.73 276.87 3538.49 275.52 3542.38 268.42 3550.73 276.87"/><polygon class="cls-58" points="3543.65 283.79 3538.49 275.52 3550.73 276.87 3543.65 283.79"/><polygon class="cls-58" points="3538.49 275.52 3528.35 275.52 3542.38 268.42 3538.49 275.52"/><polygon class="cls-57" points="3538.49 275.52 3530.9 283.79 3543.65 283.79 3538.49 275.52"/><polygon class="cls-58" points="3530.9 283.79 3528.35 275.52 3538.49 275.52 3530.9 283.79"/><polygon class="cls-58" points="3528.35 275.52 3507.94 283.79 3530.9 283.79 3528.35 275.52"/><polygon class="cls-57" points="3508.35 283.46 3532.64 267.8 3528.35 275.52 3508.35 283.46"/><polygon class="cls-59" points="4293.78 283.22 4275.23 272.13 4285.14 270.6 4293.78 283.22"/><polygon class="cls-60" points="4275.23 272.13 4272.76 283.22 4293.78 283.22 4275.23 272.13"/><polygon class="cls-59" points="4272.76 283.22 4261.96 272.13 4275.23 272.13 4272.76 283.22"/><polygon class="cls-59" points="4261.96 272.13 4257.71 259.43 4275.23 272.13 4261.96 272.13"/><polygon class="cls-60" points="4261.96 272.13 4251.67 283.22 4272.76 283.22 4261.96 272.13"/><polygon class="cls-59" points="4261.96 272.13 4249.7 273.02 4251.67 283.22 4261.96 272.13"/><polygon class="cls-60" points="4249.7 273.02 4257.71 259.43 4261.96 272.13 4249.7 273.02"/><polygon class="cls-59" points="4249.7 273.02 4239.16 264.41 4257.71 259.43 4249.7 273.02"/><polygon class="cls-59" points="4249.7 273.02 4237.32 275.17 4239.16 264.41 4249.7 273.02"/><polygon class="cls-59" points="4251.67 283.22 4237.32 275.17 4249.7 273.02 4251.67 283.22"/><polygon class="cls-60" points="4237.32 275.17 4228.24 254.6 4239.16 264.41 4237.32 275.17"/><polygon class="cls-59" points="4237.32 275.17 4229.19 283.22 4251.67 283.22 4237.32 275.17"/><polygon class="cls-59" points="4237.32 275.17 4216.3 258.21 4228.24 254.6 4237.32 275.17"/><polygon class="cls-60" points="4229.19 283.22 4216.3 258.21 4237.32 275.17 4229.19 283.22"/><polygon class="cls-59" points="4216.3 258.21 4214.02 270.71 4229.19 283.22 4216.3 258.21"/><polygon class="cls-59" points="4214.02 270.71 4205.97 283.22 4229.19 283.22 4214.02 270.71"/><polygon class="cls-59" points="4201.82 246.63 4203.81 262.58 4190.13 257.05 4201.82 246.63"/><polygon class="cls-59" points="4203.81 262.58 4216.3 258.21 4201.82 246.63 4203.81 262.58"/><polygon class="cls-60" points="4214.02 270.71 4203.81 262.58 4216.3 258.21 4214.02 270.71"/><polygon class="cls-59" points="4203.81 262.58 4205.97 283.22 4214.02 270.71 4203.81 262.58"/><polygon class="cls-60" points="4203.81 262.58 4187.09 283.22 4205.97 283.22 4203.81 262.58"/><polygon class="cls-59" points="4190.13 257.05 4179.39 265.33 4176.84 253.63 4190.13 257.05"/><polygon class="cls-59" points="4187.09 283.22 4189.72 266.23 4203.81 262.58 4187.09 283.22"/><polygon class="cls-59" points="4189.72 266.23 4190.13 257.05 4203.81 262.58 4189.72 266.23"/><polygon class="cls-59" points="4189.72 266.23 4179.39 265.33 4190.13 257.05 4189.72 266.23"/><polygon class="cls-59" points="4179.39 265.33 4165.84 269.79 4176.84 253.63 4179.39 265.33"/><polygon class="cls-59" points="4179.39 265.33 4187.09 283.22 4189.72 266.23 4179.39 265.33"/><polygon class="cls-60" points="4187.09 283.22 4168.29 283.22 4179.39 265.33 4187.09 283.22"/><polygon class="cls-59" points="4165.84 269.79 4168.29 283.22 4179.39 265.33 4165.84 269.79"/><polygon class="cls-60" points="4165.84 269.79 4159.4 249.14 4176.84 253.63 4165.84 269.79"/><polygon class="cls-59" points="4165.84 269.79 4154.64 264.3 4159.4 249.14 4165.84 269.79"/><polygon class="cls-60" points="4154.64 264.3 4142.19 261.85 4159.4 249.14 4154.64 264.3"/><polygon class="cls-59" points="4142.19 261.85 4144.8 271.62 4131.97 269.39 4142.19 261.85"/><polygon class="cls-59" points="4144.8 271.62 4154.64 264.3 4142.19 261.85 4144.8 271.62"/><polygon class="cls-59" points="4165.84 269.79 4153.81 274.28 4154.64 264.3 4165.84 269.79"/><polygon class="cls-60" points="4153.81 274.28 4144.8 271.62 4154.64 264.3 4153.81 274.28"/><polygon class="cls-60" points="4153.81 274.28 4161.31 279.04 4165.84 269.79 4153.81 274.28"/><polygon class="cls-59" points="4168.29 283.22 4161.31 279.04 4165.84 269.79 4168.29 283.22"/><polygon class="cls-59" points="4161.31 279.04 4153.56 283.22 4168.29 283.22 4161.31 279.04"/><polygon class="cls-59" points="4153.81 274.28 4153.56 283.22 4161.31 279.04 4153.81 274.28"/><polygon class="cls-59" points="4131.97 269.39 4140.16 276.26 4144.8 271.62 4131.97 269.39"/><polygon class="cls-59" points="4140.16 276.26 4153.81 274.28 4144.8 271.62 4140.16 276.26"/><polygon class="cls-59" points="4153.56 283.22 4140.16 276.26 4153.81 274.28 4153.56 283.22"/><polygon class="cls-59" points="4140.16 276.26 4130.7 283.22 4153.56 283.22 4140.16 276.26"/><polygon class="cls-59" points="4131.97 269.39 4122.06 273.94 4118.95 264.41 4131.97 269.39"/><polygon class="cls-59" points="4122.06 273.94 4140.16 276.26 4131.97 269.39 4122.06 273.94"/><polygon class="cls-59" points="4130.97 283.22 4122.06 273.94 4140.16 276.26 4130.97 283.22"/><polygon class="cls-59" points="4122.06 273.94 4094.85 282.92 4118.95 264.41 4122.06 273.94"/><polygon class="cls-59" points="4122.06 273.94 4115.62 283.22 4131.11 282.92 4122.06 273.94"/><polygon class="cls-59" points="4115.62 283.22 4122.06 273.94 4094.31 283.22 4115.62 283.22"/><polygon class="cls-61" points="3626.79 283.88 3647.97 272.79 3636.65 271.26 3626.79 283.88"/><polygon class="cls-62" points="3647.97 272.79 3650.8 283.88 3626.79 283.88 3647.97 272.79"/><polygon class="cls-61" points="3650.8 283.88 3663.12 272.79 3647.97 272.79 3650.8 283.88"/><polygon class="cls-61" points="3663.12 272.79 3668.43 251.2 3647.97 272.79 3663.12 272.79"/><polygon class="cls-62" points="3663.12 272.79 3674.87 283.88 3650.8 283.88 3663.12 272.79"/><polygon class="cls-61" points="3663.12 272.79 3677.12 273.68 3674.87 283.88 3663.12 272.79"/><polygon class="cls-62" points="3677.12 273.68 3668.43 251.2 3663.12 272.79 3677.12 273.68"/><polygon class="cls-61" points="3677.12 273.68 3689.16 265.07 3668.43 251.2 3677.12 273.68"/><polygon class="cls-61" points="3677.12 273.68 3691.26 275.83 3689.16 265.07 3677.12 273.68"/><polygon class="cls-61" points="3674.87 283.88 3691.26 275.83 3677.12 273.68 3674.87 283.88"/><polygon class="cls-62" points="3691.26 275.83 3701.64 255.26 3689.16 265.07 3691.26 275.83"/><polygon class="cls-61" points="3691.26 275.83 3700.55 283.88 3674.87 283.88 3691.26 275.83"/><polygon class="cls-61" points="3691.26 275.83 3715.27 258.87 3701.64 255.26 3691.26 275.83"/><polygon class="cls-62" points="3700.55 283.88 3715.27 258.87 3691.26 275.83 3700.55 283.88"/><polygon class="cls-61" points="3715.27 258.87 3717.88 271.37 3700.55 283.88 3715.27 258.87"/><polygon class="cls-61" points="3717.88 271.37 3727.07 283.88 3700.55 283.88 3717.88 271.37"/><polygon class="cls-61" points="3731.81 247.29 3729.54 263.24 3745.16 257.71 3731.81 247.29"/><polygon class="cls-61" points="3729.54 263.24 3715.27 258.87 3731.81 247.29 3729.54 263.24"/><polygon class="cls-62" points="3717.88 271.37 3729.54 263.24 3715.27 258.87 3717.88 271.37"/><polygon class="cls-61" points="3729.54 263.24 3727.07 283.88 3717.88 271.37 3729.54 263.24"/><polygon class="cls-62" points="3729.54 263.24 3748.63 283.88 3727.07 283.88 3729.54 263.24"/><polygon class="cls-61" points="3745.16 257.71 3757.43 265.99 3760.33 254.29 3745.16 257.71"/><polygon class="cls-61" points="3748.63 283.88 3745.63 266.88 3729.54 263.24 3748.63 283.88"/><polygon class="cls-61" points="3745.63 266.88 3745.16 257.71 3729.54 263.24 3745.63 266.88"/><polygon class="cls-61" points="3745.63 266.88 3757.43 265.99 3745.16 257.71 3745.63 266.88"/><polygon class="cls-61" points="3757.43 265.99 3772.9 270.45 3760.33 254.29 3757.43 265.99"/><polygon class="cls-61" points="3757.43 265.99 3748.63 283.88 3745.63 266.88 3757.43 265.99"/><polygon class="cls-62" points="3748.63 283.88 3770.1 283.88 3757.43 265.99 3748.63 283.88"/><polygon class="cls-61" points="3772.9 270.45 3770.1 283.88 3757.43 265.99 3772.9 270.45"/><polygon class="cls-62" points="3772.9 270.45 3780.25 249.8 3760.33 254.29 3772.9 270.45"/><polygon class="cls-61" points="3772.9 270.45 3785.69 264.96 3780.25 249.8 3772.9 270.45"/><polygon class="cls-62" points="3785.69 264.96 3799.91 262.51 3780.25 249.8 3785.69 264.96"/><polygon class="cls-61" points="3799.91 262.51 3796.93 272.28 3811.58 270.05 3799.91 262.51"/><polygon class="cls-61" points="3796.93 272.28 3785.69 264.96 3799.91 262.51 3796.93 272.28"/><polygon class="cls-61" points="3772.9 270.45 3786.64 274.94 3785.69 264.96 3772.9 270.45"/><polygon class="cls-62" points="3786.64 274.94 3796.93 272.28 3785.69 264.96 3786.64 274.94"/><polygon class="cls-62" points="3786.64 274.94 3778.08 279.7 3772.9 270.45 3786.64 274.94"/><polygon class="cls-61" points="3770.1 283.88 3778.08 279.7 3772.9 270.45 3770.1 283.88"/><polygon class="cls-61" points="3778.08 279.7 3786.93 283.88 3770.1 283.88 3778.08 279.7"/><polygon class="cls-61" points="3786.64 274.94 3786.93 283.88 3778.08 279.7 3786.64 274.94"/><polygon class="cls-61" points="3811.58 270.05 3802.23 276.92 3796.93 272.28 3811.58 270.05"/><polygon class="cls-61" points="3802.23 276.92 3786.64 274.94 3796.93 272.28 3802.23 276.92"/><polygon class="cls-61" points="3786.93 283.88 3802.23 276.92 3786.64 274.94 3786.93 283.88"/><polygon class="cls-61" points="3802.23 276.92 3813.03 283.88 3786.93 283.88 3802.23 276.92"/><polygon class="cls-61" points="3811.58 270.05 3822.9 274.6 3826.46 265.07 3811.58 270.05"/><polygon class="cls-61" points="3822.9 274.6 3802.23 276.92 3811.58 270.05 3822.9 274.6"/><polygon class="cls-61" points="3812.72 283.88 3822.9 274.6 3802.23 276.92 3812.72 283.88"/><polygon class="cls-61" points="3822.9 274.6 3853.98 283.58 3826.46 265.07 3822.9 274.6"/><polygon class="cls-61" points="3822.9 274.6 3830.25 283.88 3812.56 283.58 3822.9 274.6"/><polygon class="cls-61" points="3830.25 283.88 3822.9 274.6 3854.59 283.88 3830.25 283.88"/><polygon class="cls-61" points="4031 264.93 4028.1 277.6 4008.95 283.88 4031 264.93"/><polygon class="cls-61" points="4028.1 277.6 4033.28 283.88 4008.95 283.88 4028.1 277.6"/><polygon class="cls-61" points="4052.08 255.26 4045.21 266.61 4031 264.93 4052.08 255.26"/><polygon class="cls-61" points="4028.1 277.6 4045.21 266.61 4031 264.93 4028.1 277.6"/><polygon class="cls-61" points="4033.28 283.88 4045.21 266.61 4028.1 277.6 4033.28 283.88"/><polygon class="cls-61" points="4045.21 266.61 4062.52 260.09 4052.08 255.26 4045.21 266.61"/><polygon class="cls-61" points="4045.21 266.61 4051.5 283.88 4033.28 283.88 4045.21 266.61"/><polygon class="cls-61" points="4062.52 260.09 4063.01 270.05 4045.21 266.61 4062.52 260.09"/><polygon class="cls-63" points="4063.01 270.05 4051.5 283.88 4045.21 266.61 4063.01 270.05"/><polygon class="cls-63" points="4063.01 270.05 4069.68 258.74 4062.52 260.09 4063.01 270.05"/><polygon class="cls-61" points="4063.01 270.05 4071.42 283.88 4051.5 283.88 4063.01 270.05"/><polygon class="cls-61" points="4063.01 270.05 4082.15 265.07 4069.68 258.74 4063.01 270.05"/><polygon class="cls-61" points="4082.15 265.07 4071.42 283.88 4063.01 270.05 4082.15 265.07"/><polygon class="cls-61" points="4082.15 265.07 4095.01 268.12 4104.68 254.39 4082.15 265.07"/><polygon class="cls-61" points="4095.01 268.12 4082.15 265.07 4084.57 275.25 4095.01 268.12"/><polygon class="cls-63" points="4084.57 275.25 4071.42 283.88 4082.15 265.07 4084.57 275.25"/><polygon class="cls-61" points="4084.57 275.25 4094.24 283.88 4071.42 283.88 4084.57 275.25"/><polygon class="cls-61" points="4095.01 268.12 4094.24 283.88 4084.57 275.25 4095.01 268.12"/><polygon class="cls-61" points="4095.01 268.12 4117.45 268.99 4104.68 254.39 4095.01 268.12"/><polygon class="cls-63" points="4094.24 283.88 4104.68 276.97 4095.01 268.12 4094.24 283.88"/><polygon class="cls-61" points="4095.01 268.12 4117.45 268.99 4104.68 276.97 4095.01 268.12"/><polygon class="cls-61" points="4104.68 276.97 4113.97 283.88 4094.24 283.88 4104.68 276.97"/><polygon class="cls-63" points="4126.92 268.99 4118.61 275.25 4117.45 268.99 4126.92 268.99"/><polygon class="cls-61" points="4118.61 275.25 4104.68 276.97 4117.45 268.99 4118.61 275.25"/><polygon class="cls-61" points="4118.61 275.25 4113.97 283.88 4104.68 276.97 4118.61 275.25"/><polygon class="cls-61" points="4118.61 275.25 4144.52 280.17 4126.92 268.99 4118.61 275.25"/><polygon class="cls-63" points="4144.52 280.17 4128.57 283.88 4118.61 275.25 4144.52 280.17"/><polygon class="cls-61" points="4113.97 283.88 4128.57 283.88 4118.61 275.25 4113.97 283.88"/><polygon class="cls-61" points="4144.52 280.17 4148.88 283.88 4128.57 283.88 4144.52 280.17"/><polygon class="cls-61" points="4158.84 274.4 4155.84 282.02 4144.52 280.17 4158.84 274.4"/><polygon class="cls-63" points="4155.84 282.02 4169.66 283.88 4158.84 274.4 4155.84 282.02"/><polygon class="cls-63" points="4155.84 282.02 4148.88 283.88 4144.52 280.17 4155.84 282.02"/><polygon class="cls-61" points="4169.66 283.88 4148.88 283.88 4155.84 282.02 4169.66 283.88"/><polygon class="cls-64" points="4063.01 283.88 4002.49 241.82 3973.23 248.8 3944.96 241.82 3900.41 253.79 3837.16 229.43 3812.29 246.47 3765.17 245.55 3736.81 283.88 4063.01 283.88"/><polygon class="cls-63" points="3765.17 245.55 3782.7 265.21 3812.29 246.47 3765.17 245.55"/><polygon class="cls-65" points="3782.7 265.21 3753.71 266.58 3765.17 245.55 3782.7 265.21"/><polygon class="cls-63" points="3753.71 266.58 3755.68 283.88 3782.7 265.21 3753.71 266.58"/><polygon class="cls-65" points="3782.7 265.21 3795.96 283.88 3755.68 283.88 3782.7 265.21"/><polygon class="cls-65" points="3782.7 265.21 3802.94 265.93 3812.29 246.47 3782.7 265.21"/><polygon class="cls-63" points="3802.94 265.93 3831.62 275.53 3812.29 246.47 3802.94 265.93"/><polygon class="cls-63" points="3795.96 283.88 3802.94 265.93 3782.7 265.21 3795.96 283.88"/><polygon class="cls-63" points="3831.62 275.53 3856.18 259.94 3883.45 276.23 3831.62 275.53"/><polygon class="cls-63" points="3831.62 275.53 3847.37 283.88 3822.6 283.88 3831.62 275.53"/><polygon class="cls-65" points="3795.96 283.88 3831.62 275.53 3802.94 265.93 3795.96 283.88"/><polygon class="cls-65" points="3883.45 276.23 3880.79 261 3856.18 259.94 3883.45 276.23"/><polygon class="cls-65" points="3856.18 259.94 3833.57 256.2 3831.62 275.53 3856.18 259.94"/><polygon class="cls-65" points="3812.29 246.47 3837.16 229.43 3833.57 256.2 3812.29 246.47"/><polygon class="cls-63" points="3837.16 229.43 3856.18 259.94 3833.57 256.2 3837.16 229.43"/><polygon class="cls-65" points="3880.79 261 3837.16 229.43 3856.18 259.94 3880.79 261"/><polygon class="cls-63" points="3880.79 261 3900.41 253.79 3837.16 229.43 3880.79 261"/><polygon class="cls-65" points="3847.37 283.88 3861.34 275.93 3831.62 275.53 3847.37 283.88"/><polygon class="cls-65" points="3861.34 275.93 3883.45 276.23 3872.39 283.88 3861.34 275.93"/><polygon class="cls-63" points="3883.45 276.23 3916.91 283.88 3872.39 283.88 3883.45 276.23"/><polygon class="cls-65" points="3883.45 276.23 3900.41 253.79 3880.79 261 3883.45 276.23"/><polygon class="cls-65" points="3900.41 253.79 3916.91 283.88 3883.45 276.23 3900.41 253.79"/><polygon class="cls-65" points="3916.91 283.88 3951.45 268.09 3969.9 283.88 3916.91 283.88"/><polygon class="cls-65" points="3951.45 268.09 3926.84 263.6 3916.91 283.88 3951.45 268.09"/><polygon class="cls-63" points="3926.84 263.6 3900.41 253.79 3916.91 283.88 3926.84 263.6"/><polygon class="cls-65" points="3926.84 263.6 3944.96 241.82 3900.41 253.79 3926.84 263.6"/><polygon class="cls-63" points="3944.96 241.82 3951.45 268.09 3926.84 263.6 3944.96 241.82"/><polygon class="cls-65" points="3951.45 268.09 3973.23 248.8 3944.96 241.82 3951.45 268.09"/><polygon class="cls-65" points="3973.23 248.8 4009.8 265.01 4002.49 241.82 3973.23 248.8"/><polygon class="cls-63" points="3951.45 268.09 3983.37 265.01 3973.23 248.8 3951.45 268.09"/><polygon class="cls-65" points="3969.9 283.88 3983.37 265.01 3951.45 268.09 3969.9 283.88"/><polygon class="cls-65" points="3983.37 265.01 4009.8 265.01 3973.23 248.8 3983.37 265.01"/><polygon class="cls-63" points="3983.37 265.01 4003.15 283.88 3969.9 283.88 3983.37 265.01"/><polygon class="cls-65" points="4003.15 283.88 4009.8 265.01 3983.37 265.01 4003.15 283.88"/><polygon class="cls-65" points="4009.8 265.01 4063.01 283.88 4003.15 283.88 4009.8 265.01"/><polygon class="cls-63" points="4061.92 283.13 4002.49 241.82 4009.8 265.01 4061.92 283.13"/><polygon class="cls-59" points="3664.82 264.63 3667.36 277.29 3684.13 283.58 3664.82 264.63"/><polygon class="cls-59" points="3667.36 277.29 3662.83 283.58 3684.13 283.58 3667.36 277.29"/><polygon class="cls-59" points="3646.36 254.96 3652.38 266.31 3664.82 264.63 3646.36 254.96"/><polygon class="cls-59" points="3667.36 277.29 3652.38 266.31 3664.82 264.63 3667.36 277.29"/><polygon class="cls-59" points="3662.83 283.58 3652.38 266.31 3667.36 277.29 3662.83 283.58"/><polygon class="cls-59" points="3652.38 266.31 3637.22 259.79 3646.36 254.96 3652.38 266.31"/><polygon class="cls-59" points="3652.38 266.31 3646.87 283.58 3662.83 283.58 3652.38 266.31"/><polygon class="cls-59" points="3637.22 259.79 3636.8 269.75 3652.38 266.31 3637.22 259.79"/><polygon class="cls-54" points="3636.8 269.75 3646.87 283.58 3652.38 266.31 3636.8 269.75"/><polygon class="cls-54" points="3636.8 269.75 3630.95 258.44 3637.22 259.79 3636.8 269.75"/><polygon class="cls-59" points="3636.8 269.75 3629.43 283.58 3646.87 283.58 3636.8 269.75"/><polygon class="cls-59" points="3636.8 269.75 3620.03 264.77 3630.95 258.44 3636.8 269.75"/><polygon class="cls-59" points="3620.03 264.77 3629.43 283.58 3636.8 269.75 3620.03 264.77"/><polygon class="cls-59" points="3620.03 264.77 3608.77 267.82 3600.3 254.09 3620.03 264.77"/><polygon class="cls-59" points="3608.77 267.82 3620.03 264.77 3617.91 274.95 3608.77 267.82"/><polygon class="cls-54" points="3617.91 274.95 3629.43 283.58 3620.03 264.77 3617.91 274.95"/><polygon class="cls-59" points="3617.91 274.95 3609.45 283.58 3629.43 283.58 3617.91 274.95"/><polygon class="cls-59" points="3608.77 267.82 3609.45 283.58 3617.91 274.95 3608.77 267.82"/><polygon class="cls-59" points="3608.77 267.82 3589.13 268.69 3600.3 254.09 3608.77 267.82"/><polygon class="cls-54" points="3609.45 283.58 3600.3 276.67 3608.77 267.82 3609.45 283.58"/><polygon class="cls-59" points="3608.77 267.82 3589.13 268.69 3600.3 276.67 3608.77 267.82"/><polygon class="cls-59" points="3600.3 276.67 3592.18 283.58 3609.45 283.58 3600.3 276.67"/><polygon class="cls-54" points="3580.83 268.69 3588.11 274.95 3589.13 268.69 3580.83 268.69"/><polygon class="cls-59" points="3588.11 274.95 3600.3 276.67 3589.13 268.69 3588.11 274.95"/><polygon class="cls-59" points="3588.11 274.95 3592.18 283.58 3600.3 276.67 3588.11 274.95"/><polygon class="cls-59" points="3588.11 274.95 3565.42 279.87 3580.83 268.69 3588.11 274.95"/><polygon class="cls-54" points="3565.42 279.87 3579.39 283.58 3588.11 274.95 3565.42 279.87"/><polygon class="cls-59" points="3592.18 283.58 3579.39 283.58 3588.11 274.95 3592.18 283.58"/><polygon class="cls-59" points="3565.42 279.87 3561.61 283.58 3579.39 283.58 3565.42 279.87"/><polygon class="cls-59" points="3552.89 274.1 3555.51 281.72 3565.42 279.87 3552.89 274.1"/><polygon class="cls-54" points="3555.51 281.72 3543.4 283.58 3552.89 274.1 3555.51 281.72"/><polygon class="cls-54" points="3555.51 281.72 3561.61 283.58 3565.42 279.87 3555.51 281.72"/><polygon class="cls-59" points="3543.4 283.58 3561.61 283.58 3555.51 281.72 3543.4 283.58"/><line class="cls-66" x1="4282.64" y1="283.88" x2="3532.64" y2="283.88"/><ellipse class="cls-67" cx="3907.64" cy="283.88" rx="786.5" ry="9.09"/><ellipse class="cls-68" cx="3907.64" cy="283.88" rx="786.5" ry="5.29"/></g></g></g></g></svg>