<svg xmlns="http://www.w3.org/2000/svg" xmlns:xlink="http://www.w3.org/1999/xlink" viewBox="0 0 786.24 284.19"><defs><style>.cls-1,.cls-2,.cls-22,.cls-3,.cls-4,.cls-5{fill:none;}.cls-1,.cls-2,.cls-3,.cls-4,.cls-5{stroke:#000;}.cls-1,.cls-12,.cls-2,.cls-20,.cls-22,.cls-3,.cls-4,.cls-5,.cls-9{stroke-miterlimit:10;}.cls-1{stroke-width:3px;}.cls-2{stroke-width:4px;}.cls-3{stroke-width:8px;}.cls-4{stroke-width:16px;}.cls-5{stroke-width:2px;}.cls-6{mask:url(#mask);}.cls-7{fill:url(#Degradado_sin_nombre_73);}.cls-8{fill:#fff;}.cls-11,.cls-12,.cls-14,.cls-15,.cls-17,.cls-20,.cls-21,.cls-9{fill:#7a28a5;}.cls-10,.cls-11,.cls-12,.cls-13,.cls-14,.cls-15,.cls-16,.cls-17,.cls-18,.cls-19,.cls-20,.cls-21,.cls-9{stroke:#00fff8;}.cls-10,.cls-11,.cls-9{stroke-width:0.31px;}.cls-10,.cls-13,.cls-16,.cls-18,.cls-19{fill:#541387;}.cls-10,.cls-11,.cls-13,.cls-14,.cls-15,.cls-16,.cls-17,.cls-18,.cls-19,.cls-21{stroke-linecap:round;stroke-linejoin:round;}.cls-12,.cls-13,.cls-14{stroke-width:0.13px;}.cls-15,.cls-16{stroke-width:0.34px;}.cls-17,.cls-18{stroke-width:0.36px;}.cls-19,.cls-20,.cls-21{stroke-width:0.33px;}.cls-22{stroke:#fff;stroke-width:0.61px;}.cls-23{filter:url(#luminosity-noclip);}</style><filter id="luminosity-noclip" x="272.92" y="69.56" width="250.61" height="206.92" filterUnits="userSpaceOnUse" color-interpolation-filters="sRGB"><feFlood flood-color="#fff" result="bg"/><feBlend in="SourceGraphic" in2="bg"/></filter><mask id="mask" x="272.92" y="69.56" width="250.61" height="206.92" maskUnits="userSpaceOnUse"><g class="cls-23"><line class="cls-1" x1="272.92" y1="190.15" x2="523.53" y2="190.15"/><line class="cls-2" x1="272.92" y1="204.16" x2="523.53" y2="204.16"/><line class="cls-3" x1="272.92" y1="219.18" x2="523.53" y2="219.18"/><line class="cls-4" x1="272.92" y1="240.19" x2="523.53" y2="240.19"/><line class="cls-4" x1="272.92" y1="262.22" x2="523.53" y2="262.22"/><line class="cls-5" x1="272.92" y1="242.2" x2="523.53" y2="242.2"/></g></mask><linearGradient id="Degradado_sin_nombre_73" x1="399.93" y1="276.48" x2="399.93" y2="69.56" gradientUnits="userSpaceOnUse"><stop offset="0" stop-color="#ff0393"/><stop offset="0.09" stop-color="#ff0d8d"/><stop offset="0.23" stop-color="#ff287e"/><stop offset="0.42" stop-color="#ff5364"/><stop offset="0.64" stop-color="#ff9041"/><stop offset="0.89" stop-color="#ffdc14"/><stop offset="1" stop-color="#ff0"/></linearGradient></defs><g id="Layer_2" data-name="Layer 2"><g id="BACKGROUND_2" data-name="BACKGROUND 2"><g class="cls-6"><path class="cls-7" d="M518.12,187.75a118.19,118.19,0,1,0-196.27,88.73H478A117.89,117.89,0,0,0,518.12,187.75Z"/></g><circle class="cls-8" cx="160.1" cy="97.8" r="0.62"/><circle class="cls-8" cx="85.09" cy="103.77" r="0.62"/><circle class="cls-8" cx="226.97" cy="210.07" r="0.62"/><circle class="cls-8" cx="196.37" cy="178.03" r="0.62"/><path class="cls-8" d="M309.41,30.74a.62.62,0,0,1-.62.62.61.61,0,0,1-.61-.62.61.61,0,0,1,.61-.61A.61.61,0,0,1,309.41,30.74Z"/><circle class="cls-8" cx="253.1" cy="117.29" r="0.62"/><circle class="cls-8" cx="196.37" cy="25.33" r="0.62"/><path class="cls-8" d="M89.22,182.58a.61.61,0,0,1-.61.61.61.61,0,0,1-.62-.61.62.62,0,0,1,.62-.62A.61.61,0,0,1,89.22,182.58Z"/><path class="cls-8" d="M683.24,209.45a.62.62,0,0,1-.62.62.61.61,0,0,1-.61-.62.61.61,0,0,1,.61-.61A.61.61,0,0,1,683.24,209.45Z"/><path class="cls-8" d="M712.34,135.49a.13.13,0,0,1-.13.13.13.13,0,0,1,0-.26A.13.13,0,0,1,712.34,135.49Z"/><circle class="cls-8" cx="672.2" cy="35.54" r="0.13"/><circle class="cls-8" cx="725.25" cy="128.64" r="0.13"/><circle class="cls-8" cx="725.38" cy="110.2" r="0.13"/><path class="cls-8" d="M735.54,35.42a.12.12,0,0,1-.12.12.12.12,0,0,1-.13-.12.13.13,0,0,1,.13-.13A.12.12,0,0,1,735.54,35.42Z"/><circle class="cls-8" cx="691.34" cy="66.24" r="0.13"/><path class="cls-8" d="M754.56,29.26a.13.13,0,0,1-.13.13.13.13,0,0,1,0-.26A.13.13,0,0,1,754.56,29.26Z"/><circle class="cls-8" cx="725.13" cy="106.03" r="0.13"/><path class="cls-8" d="M757.72,214.41a.13.13,0,0,1-.26,0,.13.13,0,1,1,.26,0Z"/><path class="cls-8" d="M708.36,177.78a.12.12,0,0,1-.13.12.12.12,0,0,1-.12-.12.12.12,0,0,1,.12-.13A.13.13,0,0,1,708.36,177.78Z"/><circle class="cls-8" cx="743.84" cy="29.51" r="0.13"/><circle class="cls-8" cx="631.65" cy="177.9" r="0.13"/><circle class="cls-8" cx="578.98" cy="209.45" r="0.13"/><circle class="cls-8" cx="702.26" cy="246.24" r="0.13"/><path class="cls-8" d="M548.92,140.51a.13.13,0,0,1-.26,0,.13.13,0,0,1,.26,0Z"/><circle class="cls-8" cx="527.82" cy="79.88" r="0.13"/><path class="cls-8" d="M455.06,45a.12.12,0,0,1-.12.12.12.12,0,0,1-.13-.12.13.13,0,0,1,.13-.13A.12.12,0,0,1,455.06,45Z"/><path class="cls-8" d="M489.3,57.78a.13.13,0,0,1-.26,0,.13.13,0,1,1,.26,0Z"/><circle class="cls-8" cx="734.22" cy="240.3" r="0.13"/><path class="cls-8" d="M722.92,208.84a.13.13,0,0,1-.26,0,.13.13,0,0,1,.26,0Z"/><path class="cls-8" d="M658.69,69.56a.13.13,0,0,1-.26,0,.13.13,0,1,1,.26,0Z"/><path class="cls-8" d="M597.11,50.43a.13.13,0,0,1-.26,0,.13.13,0,0,1,.26,0Z"/><circle class="cls-8" cx="537.04" cy="26.56" r="0.13"/><circle class="cls-8" cx="484.62" cy="49.56" r="0.13"/><path class="cls-8" d="M607.91,84.05a.13.13,0,1,1-.13-.13A.13.13,0,0,1,607.91,84.05Z"/><path class="cls-8" d="M389.63,45.14a.12.12,0,0,1-.12.13.13.13,0,0,1-.13-.13.12.12,0,0,1,.13-.12A.12.12,0,0,1,389.63,45.14Z"/><circle class="cls-8" cx="363.27" cy="26.69" r="0.13"/><path class="cls-8" d="M434.35,29.39a.12.12,0,0,1-.13.12.12.12,0,0,1-.12-.12.12.12,0,0,1,.12-.13A.13.13,0,0,1,434.35,29.39Z"/><path class="cls-8" d="M739.4,105.9a.13.13,0,0,1-.12.13.13.13,0,0,1-.13-.13.12.12,0,0,1,.13-.12A.12.12,0,0,1,739.4,105.9Z"/><circle class="cls-8" cx="177.42" cy="181.96" r="0.13"/><circle class="cls-8" cx="141.17" cy="224.39" r="0.13"/><path class="cls-8" d="M236.16,158.7a.13.13,0,0,1-.13.13.12.12,0,0,1-.12-.13.12.12,0,0,1,.12-.12A.12.12,0,0,1,236.16,158.7Z"/><circle class="cls-8" cx="89.22" cy="115.12" r="0.13"/><path class="cls-8" d="M153.08,30.13a.13.13,0,0,1-.26,0,.13.13,0,1,1,.26,0Z"/><path class="cls-8" d="M171.36,143.29a.13.13,0,0,1-.13.13.13.13,0,0,1,0-.26A.13.13,0,0,1,171.36,143.29Z"/><path class="cls-8" d="M123.23,143.42a.12.12,0,0,1-.12.12.12.12,0,0,1-.13-.12.13.13,0,0,1,.13-.13A.12.12,0,0,1,123.23,143.42Z"/><circle class="cls-8" cx="126.26" cy="153.14" r="0.13"/><circle class="cls-8" cx="141.3" cy="158.7" r="0.13"/><circle class="cls-8" cx="129.17" cy="165.9" r="0.13"/><circle class="cls-8" cx="197.76" cy="135.71" r="0.13"/><path class="cls-8" d="M209.76,103a.12.12,0,0,1-.13.12.12.12,0,0,1-.12-.12.12.12,0,0,1,.12-.13A.13.13,0,0,1,209.76,103Z"/><circle class="cls-8" cx="42.9" cy="75.96" r="0.13"/><path class="cls-8" d="M232.5,49.69a.13.13,0,1,1-.13-.13A.13.13,0,0,1,232.5,49.69Z"/><path class="cls-8" d="M313,84.18a.12.12,0,0,1-.13.12.12.12,0,0,1-.12-.12.12.12,0,0,1,.12-.13A.13.13,0,0,1,313,84.18Z"/><path class="cls-8" d="M277.09,80a.13.13,0,0,1-.26,0,.13.13,0,1,1,.26,0Z"/><circle class="cls-8" cx="134.19" cy="63.71" r="0.13"/><path class="cls-8" d="M42.9,214.41a.13.13,0,0,1-.26,0,.13.13,0,0,1,.26,0Z"/><path class="cls-8" d="M80.92,248.64a.13.13,0,0,1-.26,0,.13.13,0,0,1,.26,0Z"/><path class="cls-8" d="M209.63,69.43a.12.12,0,0,1-.12.13.13.13,0,0,1-.13-.13.12.12,0,0,1,.13-.12A.12.12,0,0,1,209.63,69.43Z"/><circle class="cls-8" cx="224.54" cy="146.32" r="0.13"/><path class="cls-8" d="M83.25,240.18a.12.12,0,0,1-.12.12.12.12,0,0,1-.13-.12.13.13,0,0,1,.13-.13A.12.12,0,0,1,83.25,240.18Z"/><path class="cls-8" d="M647,219.21a.12.12,0,0,1-.12.12.12.12,0,0,1-.13-.12.13.13,0,0,1,.13-.13A.12.12,0,0,1,647,219.21Z"/><circle class="cls-8" cx="603.49" cy="234.62" r="0.62"/><path class="cls-8" d="M664.48,120.93a.61.61,0,0,1-.61.62.62.62,0,0,1-.62-.62.61.61,0,0,1,.62-.61A.61.61,0,0,1,664.48,120.93Z"/><path class="cls-8" d="M709.46,57.78a.61.61,0,0,1-.61.61.61.61,0,0,1-.62-.61.62.62,0,0,1,.62-.62A.61.61,0,0,1,709.46,57.78Z"/><path class="cls-8" d="M745.2,183.19a.62.62,0,0,1-1.24,0,.62.62,0,0,1,1.24,0Z"/><path class="cls-8" d="M583,25.94a.62.62,0,0,1-.62.62.61.61,0,0,1-.61-.62.61.61,0,0,1,.61-.61A.61.61,0,0,1,583,25.94Z"/><circle class="cls-8" cx="272.03" cy="49.82" r="0.62"/><circle class="cls-8" cx="502.92" cy="57.16" r="0.62"/><circle class="cls-8" cx="495.36" cy="20.39" r="0.62"/><circle class="cls-8" cx="64.44" cy="30.13" r="0.62"/><circle class="cls-8" cx="108.52" cy="16.74" r="0.62"/><polygon class="cls-8" points="182.57 82.53 185.35 82.88 182.57 83.23 182.22 86.01 181.88 83.23 179.1 82.88 181.88 82.53 182.22 79.76 182.57 82.53"/><polygon class="cls-8" points="51.29 210.34 54.07 210.68 51.29 211.03 50.95 213.81 50.6 211.03 47.82 210.68 50.6 210.34 50.95 207.56 51.29 210.34"/><polygon class="cls-8" points="101.5 223.91 104.28 224.26 101.5 224.6 101.16 227.38 100.81 224.6 98.03 224.26 100.81 223.91 101.16 221.13 101.5 223.91"/><polygon class="cls-8" points="46.11 44.92 48.89 45.27 46.11 45.62 45.77 48.4 45.42 45.62 42.64 45.27 45.42 44.92 45.77 42.15 46.11 44.92"/><polygon class="cls-8" points="717.07 79.53 719.85 79.88 717.07 80.23 716.73 83 716.38 80.23 713.6 79.88 716.38 79.53 716.73 76.76 717.07 79.53"/><polygon class="cls-8" points="252.83 76.41 255.61 76.76 252.83 77.1 252.49 79.88 252.14 77.1 249.36 76.76 252.14 76.41 252.49 73.63 252.83 76.41"/><polygon class="cls-8" points="629 31.01 631.78 31.36 629 31.7 628.66 34.48 628.31 31.7 625.53 31.36 628.31 31.01 628.66 28.23 629 31.01"/><polygon class="cls-8" points="637.5 169 638.76 169.15 637.5 169.31 637.34 170.57 637.18 169.31 635.92 169.15 637.18 169 637.34 167.73 637.5 169"/><polygon class="cls-8" points="604.26 137.1 605.52 137.26 604.26 137.42 604.1 138.68 603.95 137.42 602.68 137.26 603.95 137.1 604.1 135.84 604.26 137.1"/><polygon class="cls-8" points="117.3 49.05 118.56 49.2 117.3 49.36 117.14 50.62 116.98 49.36 115.72 49.2 116.98 49.05 117.14 47.78 117.3 49.05"/><polygon class="cls-8" points="201.74 76.6 203 76.76 201.74 76.91 201.58 78.18 201.42 76.91 200.16 76.76 201.42 76.6 201.58 75.34 201.74 76.6"/><polygon class="cls-8" points="153.23 193.38 154.5 193.53 153.23 193.69 153.08 194.95 152.92 193.69 151.66 193.53 152.92 193.38 153.08 192.11 153.23 193.38"/><polygon class="cls-8" points="54.23 137.1 55.49 137.26 54.23 137.42 54.07 138.68 53.91 137.42 52.65 137.26 53.91 137.1 54.07 135.84 54.23 137.1"/><polygon class="cls-8" points="572.54 164.2 573.8 164.35 572.54 164.51 572.38 165.78 572.22 164.51 570.96 164.35 572.22 164.2 572.38 162.94 572.54 164.2"/><polygon class="cls-8" points="323.35 56.39 324.61 56.54 323.35 56.7 323.19 57.96 323.03 56.7 321.77 56.54 323.03 56.39 323.19 55.12 323.35 56.39"/><path class="cls-8" d="M594.68,105a.13.13,0,0,1-.13.13.12.12,0,0,1-.12-.13.12.12,0,0,1,.12-.12A.12.12,0,0,1,594.68,105Z"/><path class="cls-8" d="M592.83,111.35a.12.12,0,0,1-.12.13.13.13,0,0,1-.13-.13.12.12,0,0,1,.13-.12A.12.12,0,0,1,592.83,111.35Z"/><path class="cls-8" d="M578.5,117.72a.12.12,0,0,1-.12.13.13.13,0,0,1,0-.26A.12.12,0,0,1,578.5,117.72Z"/><path class="cls-8" d="M571.21,114.54a.12.12,0,0,1-.13.12.12.12,0,0,1-.12-.12.12.12,0,0,1,.12-.13A.13.13,0,0,1,571.21,114.54Z"/><path class="cls-8" d="M561.9,104.76a.13.13,0,0,1-.13.13.13.13,0,0,1,0-.26A.13.13,0,0,1,561.9,104.76Z"/><path class="cls-8" d="M590.68,159.08a.12.12,0,0,1-.12.13.13.13,0,0,1,0-.26A.12.12,0,0,1,590.68,159.08Z"/><path class="cls-8" d="M603.71,157.16a.12.12,0,0,1-.13.12.12.12,0,0,1-.12-.12.12.12,0,0,1,.12-.13A.13.13,0,0,1,603.71,157.16Z"/><path class="cls-8" d="M620.46,150.18a.13.13,0,0,1-.13.13.12.12,0,0,1-.12-.13.12.12,0,0,1,.12-.12A.12.12,0,0,1,620.46,150.18Z"/><path class="cls-8" d="M625.68,141.66a.12.12,0,0,1-.12.13.13.13,0,0,1-.13-.13.12.12,0,0,1,.13-.12A.12.12,0,0,1,625.68,141.66Z"/><path class="cls-8" d="M621.55,132.34a.12.12,0,0,1-.12.12.12.12,0,0,1-.13-.12.13.13,0,0,1,.13-.13A.12.12,0,0,1,621.55,132.34Z"/><path class="cls-8" d="M621.66,101.5a.13.13,0,0,1-.26,0,.13.13,0,0,1,.26,0Z"/><path class="cls-8" d="M623.59,86.33a.13.13,0,0,1-.13.13.13.13,0,0,1,0-.26A.13.13,0,0,1,623.59,86.33Z"/><path class="cls-8" d="M610.2,71.23a.12.12,0,0,1-.13.12.12.12,0,0,1-.12-.12.12.12,0,0,1,.12-.13A.13.13,0,0,1,610.2,71.23Z"/><path class="cls-8" d="M170.48,121a.12.12,0,0,1-.13.12.12.12,0,0,1-.12-.12.12.12,0,0,1,.12-.13A.13.13,0,0,1,170.48,121Z"/><path class="cls-8" d="M165.08,127.39a.12.12,0,0,1-.12.12.12.12,0,0,1-.13-.12.13.13,0,0,1,.13-.13A.12.12,0,0,1,165.08,127.39Z"/><path class="cls-8" d="M148.85,141.07a.12.12,0,0,1-.12.13.13.13,0,0,1-.13-.13.13.13,0,0,1,.13-.12A.12.12,0,0,1,148.85,141.07Z"/><path class="cls-8" d="M145.27,141.89a.13.13,0,0,1-.13.13.12.12,0,0,1-.12-.13.12.12,0,0,1,.12-.12A.12.12,0,0,1,145.27,141.89Z"/><path class="cls-8" d="M145.33,115.67a.12.12,0,0,1-.13.12.12.12,0,0,1-.12-.12.12.12,0,0,1,.12-.13A.13.13,0,0,1,145.33,115.67Z"/><path class="cls-8" d="M127.92,105.1a.13.13,0,0,1-.26,0,.13.13,0,0,1,.26,0Z"/><path class="cls-8" d="M120.81,102.79a.13.13,0,0,1-.26,0,.13.13,0,0,1,.26,0Z"/><path class="cls-8" d="M111,130.24a.13.13,0,1,1-.26,0,.13.13,0,0,1,.26,0Z"/><path class="cls-8" d="M107.82,136.64a.13.13,0,0,1-.13.13.13.13,0,0,1,0-.26A.13.13,0,0,1,107.82,136.64Z"/><path class="cls-8" d="M88,139.53a.12.12,0,0,1-.12.13.13.13,0,1,1,0-.26A.12.12,0,0,1,88,139.53Z"/><path class="cls-8" d="M78.67,134.87a.12.12,0,0,1-.13.12.12.12,0,0,1-.12-.12.12.12,0,0,1,.12-.13A.13.13,0,0,1,78.67,134.87Z"/><path class="cls-8" d="M73.65,195.24a.12.12,0,0,1-.12.12.12.12,0,0,1-.13-.12.13.13,0,0,1,.13-.13A.12.12,0,0,1,73.65,195.24Z"/><path class="cls-8" d="M76.75,206.05a.12.12,0,0,1-.13.12.12.12,0,0,1-.12-.12.12.12,0,0,1,.12-.13A.13.13,0,0,1,76.75,206.05Z"/><path class="cls-8" d="M72.87,224.93a.13.13,0,0,1-.26,0,.13.13,0,1,1,.26,0Z"/><path class="cls-8" d="M72.8,234.3a.12.12,0,0,1-.13.12.12.12,0,0,1-.12-.12.12.12,0,0,1,.12-.13A.13.13,0,0,1,72.8,234.3Z"/><path class="cls-8" d="M83,236.53a.13.13,0,0,1-.26,0,.13.13,0,1,1,.26,0Z"/><path class="cls-8" d="M158.25,205.3a.12.12,0,0,1-.12.12.12.12,0,0,1-.13-.12.13.13,0,0,1,.13-.13A.12.12,0,0,1,158.25,205.3Z"/><path class="cls-8" d="M155.19,195.22a.13.13,0,0,1-.13.13.12.12,0,0,1-.12-.13.12.12,0,0,1,.12-.12A.12.12,0,0,1,155.19,195.22Z"/><path class="cls-8" d="M143.86,166.36a.12.12,0,0,1-.12.13.13.13,0,0,1-.13-.13.13.13,0,0,1,.13-.12A.12.12,0,0,1,143.86,166.36Z"/><path class="cls-8" d="M133.82,174a.12.12,0,0,1-.12.12.12.12,0,0,1-.13-.12.13.13,0,0,1,.13-.13A.12.12,0,0,1,133.82,174Z"/><path class="cls-8" d="M120.94,198.46a.13.13,0,0,1-.26,0,.13.13,0,1,1,.26,0Z"/><path class="cls-8" d="M114,183.09a.13.13,0,0,1-.12.13.13.13,0,0,1,0-.26A.13.13,0,0,1,114,183.09Z"/><path class="cls-8" d="M84.85,112.8a.13.13,0,0,1-.26,0,.13.13,0,1,1,.26,0Z"/><path class="cls-8" d="M96.21,90.3a.12.12,0,0,1-.12.12A.12.12,0,0,1,96,90.3a.13.13,0,0,1,.13-.13A.12.12,0,0,1,96.21,90.3Z"/><path class="cls-8" d="M91.37,72.41a.13.13,0,0,1-.13.12.12.12,0,0,1-.12-.12.12.12,0,0,1,.12-.13A.13.13,0,0,1,91.37,72.41Z"/><path class="cls-8" d="M88.26,49a.13.13,0,1,1-.13-.13A.13.13,0,0,1,88.26,49Z"/><path class="cls-8" d="M58.21,115a.13.13,0,1,1-.13-.13A.13.13,0,0,1,58.21,115Z"/><path class="cls-8" d="M54.92,138.72a.13.13,0,0,1-.26,0,.13.13,0,0,1,.26,0Z"/><path class="cls-8" d="M55.28,73A.13.13,0,0,1,55,73a.13.13,0,0,1,.26,0Z"/><path class="cls-8" d="M57.06,42.7a.13.13,0,0,1-.26,0,.13.13,0,0,1,.26,0Z"/><path class="cls-8" d="M72.68,39.75a.12.12,0,0,1-.12.13.13.13,0,0,1-.13-.13.12.12,0,0,1,.13-.12A.12.12,0,0,1,72.68,39.75Z"/><path class="cls-8" d="M164.36,60.52a.12.12,0,0,1-.12.13.13.13,0,0,1-.13-.13.12.12,0,0,1,.13-.12A.12.12,0,0,1,164.36,60.52Z"/><path class="cls-8" d="M220.73,25.68a.12.12,0,0,1-.13.12.12.12,0,0,1-.12-.12.12.12,0,0,1,.12-.13A.13.13,0,0,1,220.73,25.68Z"/><path class="cls-8" d="M225.06,24.79a.12.12,0,0,1-.12.13.13.13,0,0,1-.13-.13.12.12,0,0,1,.13-.12A.12.12,0,0,1,225.06,24.79Z"/><path class="cls-8" d="M159,72.81a.13.13,0,0,1-.13.13.13.13,0,0,1,0-.26A.13.13,0,0,1,159,72.81Z"/><path class="cls-8" d="M154.44,89.72a.12.12,0,0,1-.12.13.13.13,0,0,1,0-.26A.12.12,0,0,1,154.44,89.72Z"/><path class="cls-8" d="M169.05,83.6a.12.12,0,0,1-.13.12.12.12,0,0,1-.12-.12.12.12,0,0,1,.12-.13A.13.13,0,0,1,169.05,83.6Z"/><path class="cls-8" d="M183.54,116.32a.13.13,0,0,1-.13.13.12.12,0,0,1-.12-.13.12.12,0,0,1,.12-.12A.12.12,0,0,1,183.54,116.32Z"/><path class="cls-8" d="M183.55,125a.13.13,0,1,1-.26,0,.13.13,0,0,1,.26,0Z"/><path class="cls-8" d="M185.08,132.91a.13.13,0,0,1-.13.13.13.13,0,0,1,0-.26A.13.13,0,0,1,185.08,132.91Z"/><path class="cls-8" d="M217,95.14a.13.13,0,0,1-.13.13.12.12,0,0,1-.12-.13.12.12,0,0,1,.12-.12A.12.12,0,0,1,217,95.14Z"/><path class="cls-8" d="M219.5,95.16a.13.13,0,0,1-.26,0,.13.13,0,1,1,.26,0Z"/><path class="cls-8" d="M38.5,119.1a.13.13,0,1,1-.13-.13A.13.13,0,0,1,38.5,119.1Z"/><path class="cls-8" d="M38.55,104.75a.12.12,0,0,1-.12.13.13.13,0,1,1,0-.26A.12.12,0,0,1,38.55,104.75Z"/><path class="cls-8" d="M38.44,111.17a.12.12,0,0,1-.12.13.13.13,0,0,1-.13-.13.12.12,0,0,1,.13-.12A.12.12,0,0,1,38.44,111.17Z"/><path class="cls-8" d="M33.12,168a.13.13,0,0,1-.26,0,.13.13,0,0,1,.26,0Z"/><path class="cls-8" d="M33.79,174.7a.12.12,0,0,1-.12.13.13.13,0,0,1,0-.26A.12.12,0,0,1,33.79,174.7Z"/><path class="cls-8" d="M45.77,112.66a.12.12,0,0,1-.12.13.13.13,0,0,1,0-.26A.12.12,0,0,1,45.77,112.66Z"/><path class="cls-8" d="M64,53.93a.13.13,0,1,1-.13-.13A.13.13,0,0,1,64,53.93Z"/><path class="cls-8" d="M78.24,43.66a.13.13,0,0,1-.13.13.12.12,0,0,1-.12-.13.12.12,0,0,1,.12-.12A.12.12,0,0,1,78.24,43.66Z"/><path class="cls-8" d="M116.45,33.76a.12.12,0,0,1-.12.13.13.13,0,0,1-.13-.13.12.12,0,0,1,.13-.12A.12.12,0,0,1,116.45,33.76Z"/><path class="cls-8" d="M178,25.52a.13.13,0,0,1-.13.13.12.12,0,0,1-.12-.13.12.12,0,0,1,.12-.12A.12.12,0,0,1,178,25.52Z"/><path class="cls-8" d="M180,25.54a.13.13,0,0,1-.26,0,.13.13,0,1,1,.26,0Z"/><path class="cls-8" d="M127.89,26.06a.13.13,0,0,1-.13.13.12.12,0,0,1-.12-.13.12.12,0,0,1,.12-.12A.12.12,0,0,1,127.89,26.06Z"/><path class="cls-8" d="M98.14,26.12a.13.13,0,0,1-.13.13.12.12,0,0,1-.12-.13A.12.12,0,0,1,98,26,.12.12,0,0,1,98.14,26.12Z"/><path class="cls-8" d="M87.07,19.83a.13.13,0,0,1-.13.13.13.13,0,0,1,0-.26A.13.13,0,0,1,87.07,19.83Z"/><path class="cls-8" d="M91.88,15.75a.12.12,0,0,1-.12.13.13.13,0,0,1-.13-.13.13.13,0,0,1,.13-.12A.12.12,0,0,1,91.88,15.75Z"/><path class="cls-8" d="M101.27,15.88a.12.12,0,0,1-.12.13.13.13,0,0,1-.13-.13.12.12,0,0,1,.13-.12A.12.12,0,0,1,101.27,15.88Z"/><path class="cls-8" d="M155.06,17a.13.13,0,0,1-.26,0,.13.13,0,0,1,.26,0Z"/><path class="cls-8" d="M257.26,22a.13.13,0,0,1-.13.13.13.13,0,0,1,0-.26A.13.13,0,0,1,257.26,22Z"/><path class="cls-8" d="M322.72,24.2a.13.13,0,0,1-.13.13.13.13,0,0,1,0-.26A.13.13,0,0,1,322.72,24.2Z"/><path class="cls-8" d="M423.29,21.35a.12.12,0,0,1-.13.12.12.12,0,0,1-.12-.12.12.12,0,0,1,.12-.13A.13.13,0,0,1,423.29,21.35Z"/><path class="cls-8" d="M376.18,23.3a.13.13,0,0,1-.13.13.13.13,0,0,1,0-.26A.13.13,0,0,1,376.18,23.3Z"/><path class="cls-8" d="M293.7,33.54a.13.13,0,0,1-.12.13.13.13,0,0,1,0-.26A.13.13,0,0,1,293.7,33.54Z"/><path class="cls-8" d="M231,38.07a.13.13,0,0,1-.13.12.12.12,0,0,1-.12-.12.12.12,0,0,1,.12-.13A.13.13,0,0,1,231,38.07Z"/><path class="cls-8" d="M265.08,20.39a.13.13,0,0,1-.13.13.12.12,0,0,1-.12-.13.12.12,0,0,1,.12-.12A.12.12,0,0,1,265.08,20.39Z"/><path class="cls-8" d="M300.91,2.83a.12.12,0,0,1-.13.12.12.12,0,0,1-.12-.12.12.12,0,0,1,.12-.13A.13.13,0,0,1,300.91,2.83Z"/><path class="cls-8" d="M303.83.13a.13.13,0,0,1-.26,0,.13.13,0,0,1,.26,0Z"/><path class="cls-8" d="M303.76,6.29a.12.12,0,0,1-.12.12.12.12,0,0,1-.13-.12.13.13,0,0,1,.13-.13A.12.12,0,0,1,303.76,6.29Z"/><path class="cls-8" d="M504.91,26.32a.13.13,0,0,1-.26,0,.13.13,0,0,1,.26,0Z"/><path class="cls-8" d="M594.72,34.73a.13.13,0,0,1-.26,0,.13.13,0,1,1,.26,0Z"/><path class="cls-8" d="M697.34,33.93a.12.12,0,0,1-.12.13.13.13,0,1,1,0-.26A.12.12,0,0,1,697.34,33.93Z"/><path class="cls-8" d="M577.92,46.34a.12.12,0,0,1-.12.12.12.12,0,0,1-.13-.12.13.13,0,0,1,.13-.13A.12.12,0,0,1,577.92,46.34Z"/><path class="cls-8" d="M547.57,46.47a.13.13,0,0,1-.13.12.12.12,0,0,1-.12-.12.12.12,0,0,1,.12-.13A.13.13,0,0,1,547.57,46.47Z"/><path class="cls-8" d="M710.31,28a.13.13,0,0,1-.26,0,.13.13,0,0,1,.26,0Z"/><path class="cls-8" d="M725.16,26.26a.13.13,0,0,1-.13.13.13.13,0,0,1,0-.26A.13.13,0,0,1,725.16,26.26Z"/><path class="cls-8" d="M726.06,20.45a.12.12,0,0,1-.13.12.12.12,0,0,1-.12-.12.12.12,0,0,1,.12-.13A.13.13,0,0,1,726.06,20.45Z"/><path class="cls-8" d="M635.13,18.4a.13.13,0,0,1-.26,0,.13.13,0,0,1,.26,0Z"/><path class="cls-8" d="M628,16.87a.13.13,0,0,1-.26,0,.13.13,0,1,1,.26,0Z"/><path class="cls-8" d="M666.61,18.46a.12.12,0,0,1-.12.13.13.13,0,1,1,0-.26A.12.12,0,0,1,666.61,18.46Z"/><path class="cls-8" d="M716.75,20.67a.13.13,0,0,1-.12.13.13.13,0,0,1-.13-.13.12.12,0,0,1,.13-.12A.12.12,0,0,1,716.75,20.67Z"/><path class="cls-8" d="M726.68,32.65a.13.13,0,0,1-.26,0,.13.13,0,0,1,.26,0Z"/><path class="cls-8" d="M727.76,75a.13.13,0,1,1-.13-.13A.13.13,0,0,1,727.76,75Z"/><path class="cls-8" d="M758.66,13.88a.12.12,0,0,1-.12.12.12.12,0,0,1-.13-.12.13.13,0,0,1,.13-.13A.12.12,0,0,1,758.66,13.88Z"/><path class="cls-8" d="M758.69,29.83a.12.12,0,0,1-.12.13.13.13,0,0,1-.13-.13.12.12,0,0,1,.13-.12A.12.12,0,0,1,758.69,29.83Z"/><path class="cls-8" d="M761.11,36.17a.13.13,0,0,1-.26,0,.13.13,0,0,1,.26,0Z"/><path class="cls-8" d="M739.78,120a.13.13,0,1,1-.13-.13A.13.13,0,0,1,739.78,120Z"/><path class="cls-8" d="M731.94,80.11a.12.12,0,0,1-.13.12.12.12,0,0,1-.12-.12.12.12,0,0,1,.12-.13A.13.13,0,0,1,731.94,80.11Z"/><path class="cls-8" d="M706,67.51a.13.13,0,0,1-.13.13.13.13,0,0,1,0-.26A.13.13,0,0,1,706,67.51Z"/><path class="cls-8" d="M693.69,67.46a.13.13,0,0,1-.26,0,.13.13,0,1,1,.26,0Z"/><path class="cls-8" d="M723.51,93.07a.12.12,0,0,1-.12.13.13.13,0,0,1-.13-.13.12.12,0,0,1,.13-.12A.12.12,0,0,1,723.51,93.07Z"/><path class="cls-8" d="M733,74.91a.13.13,0,1,1-.26,0,.13.13,0,0,1,.26,0Z"/><path class="cls-8" d="M741.87,38.54a.13.13,0,0,1-.13.13.12.12,0,0,1-.12-.13.12.12,0,0,1,.12-.12A.12.12,0,0,1,741.87,38.54Z"/><path class="cls-8" d="M741.78,163.08a.13.13,0,0,1-.13.13.13.13,0,0,1,0-.26A.13.13,0,0,1,741.78,163.08Z"/><path class="cls-8" d="M736,204.75a.12.12,0,0,1-.12.12.12.12,0,0,1-.13-.12.13.13,0,0,1,.13-.13A.12.12,0,0,1,736,204.75Z"/><path class="cls-8" d="M733.22,177.61a.12.12,0,0,1-.12.13.13.13,0,0,1,0-.26A.12.12,0,0,1,733.22,177.61Z"/><path class="cls-8" d="M730.46,130.66a.12.12,0,0,1-.12.13.13.13,0,0,1,0-.26A.12.12,0,0,1,730.46,130.66Z"/><path class="cls-8" d="M718.24,118.43a.13.13,0,0,1-.13.13.12.12,0,0,1-.12-.13.12.12,0,0,1,.12-.12A.12.12,0,0,1,718.24,118.43Z"/><path class="cls-8" d="M694.63,111.66a.13.13,0,0,1-.13.13.13.13,0,0,1,0-.26A.13.13,0,0,1,694.63,111.66Z"/><path class="cls-8" d="M686.33,106.14a.12.12,0,0,1-.12.13.13.13,0,0,1-.13-.13.12.12,0,0,1,.13-.12A.12.12,0,0,1,686.33,106.14Z"/><path class="cls-8" d="M697.31,181.57a.12.12,0,0,1-.12.13.13.13,0,1,1,0-.26A.12.12,0,0,1,697.31,181.57Z"/><path class="cls-8" d="M710.16,209a.12.12,0,0,1-.13.12.12.12,0,0,1-.12-.12.12.12,0,0,1,.12-.13A.13.13,0,0,1,710.16,209Z"/><path class="cls-8" d="M655.42,182.47a.12.12,0,0,1-.12.13.13.13,0,0,1,0-.26A.12.12,0,0,1,655.42,182.47Z"/><path class="cls-8" d="M613.42,129.79a.13.13,0,0,1-.13.13.12.12,0,0,1-.12-.13.12.12,0,0,1,.12-.12A.12.12,0,0,1,613.42,129.79Z"/><path class="cls-8" d="M601.56,109.15a.13.13,0,0,1-.13.13.12.12,0,0,1-.12-.13.12.12,0,0,1,.12-.12A.12.12,0,0,1,601.56,109.15Z"/><path class="cls-8" d="M580.87,168.69a.13.13,0,0,1-.13.13.13.13,0,0,1,0-.26A.13.13,0,0,1,580.87,168.69Z"/><path class="cls-8" d="M576.1,173.46a.13.13,0,0,1-.13.13.12.12,0,0,1-.12-.13.12.12,0,0,1,.12-.12A.12.12,0,0,1,576.1,173.46Z"/><path class="cls-8" d="M530.66,125.27a.12.12,0,0,1-.13.12.12.12,0,0,1-.12-.12.12.12,0,0,1,.12-.13A.13.13,0,0,1,530.66,125.27Z"/><path class="cls-8" d="M502.63,83.38a.12.12,0,0,1-.12.13.13.13,0,0,1,0-.26A.12.12,0,0,1,502.63,83.38Z"/><path class="cls-8" d="M467.78,68.73a.13.13,0,0,1-.13.13.13.13,0,0,1,0-.26A.13.13,0,0,1,467.78,68.73Z"/><path class="cls-8" d="M410.44,55a.12.12,0,0,1-.12.12.12.12,0,0,1-.13-.12.13.13,0,0,1,.13-.13A.13.13,0,0,1,410.44,55Z"/><path class="cls-8" d="M351.41,58.06a.12.12,0,0,1-.12.13.13.13,0,0,1-.13-.13.12.12,0,0,1,.13-.12A.12.12,0,0,1,351.41,58.06Z"/><path class="cls-8" d="M329.45,73.33a.13.13,0,0,1-.26,0,.13.13,0,1,1,.26,0Z"/><path class="cls-8" d="M296.94,100.64a.12.12,0,0,1-.12.13.13.13,0,0,1,0-.26A.12.12,0,0,1,296.94,100.64Z"/><path class="cls-8" d="M270.53,121.06a.12.12,0,0,1-.12.13.13.13,0,1,1,0-.26A.12.12,0,0,1,270.53,121.06Z"/><path class="cls-8" d="M259.62,133.48a.12.12,0,0,1-.12.13.13.13,0,0,1-.13-.13.12.12,0,0,1,.13-.12A.12.12,0,0,1,259.62,133.48Z"/><path class="cls-8" d="M747.6,205.7a.12.12,0,0,1-.13.12.12.12,0,0,1-.12-.12.12.12,0,0,1,.12-.13A.13.13,0,0,1,747.6,205.7Z"/><path class="cls-8" d="M751.93,205.74a.12.12,0,0,1-.13.12.12.12,0,0,1-.12-.12.12.12,0,0,1,.12-.13A.13.13,0,0,1,751.93,205.74Z"/><path class="cls-8" d="M765.52,201.92a.12.12,0,0,1-.13.12.12.12,0,0,1-.12-.12.12.12,0,0,1,.12-.13A.13.13,0,0,1,765.52,201.92Z"/><path class="cls-8" d="M766.23,187.31a.12.12,0,0,1-.12.13.13.13,0,0,1,0-.26A.12.12,0,0,1,766.23,187.31Z"/><path class="cls-8" d="M763.22,166a.13.13,0,0,1-.26,0,.13.13,0,1,1,.26,0Z"/><path class="cls-8" d="M763.37,59a.12.12,0,0,1-.12.13.13.13,0,0,1-.13-.13.12.12,0,0,1,.13-.12A.12.12,0,0,1,763.37,59Z"/><path class="cls-8" d="M763.27,48.75a.12.12,0,0,1-.12.13.13.13,0,0,1-.13-.13.12.12,0,0,1,.13-.12A.12.12,0,0,1,763.27,48.75Z"/><path class="cls-8" d="M741.35,111.4a.12.12,0,0,1-.12.12.12.12,0,0,1-.13-.12.13.13,0,0,1,.13-.13A.12.12,0,0,1,741.35,111.4Z"/><path class="cls-8" d="M741.18,86a.13.13,0,0,1-.26,0,.13.13,0,0,1,.26,0Z"/><path class="cls-8" d="M742,91.15a.12.12,0,0,1-.13.12.12.12,0,0,1-.12-.12.12.12,0,0,1,.12-.13A.13.13,0,0,1,742,91.15Z"/><path class="cls-8" d="M747.76,87.79a.12.12,0,0,1-.12.13.13.13,0,0,1-.13-.13.12.12,0,0,1,.13-.12A.12.12,0,0,1,747.76,87.79Z"/><path class="cls-8" d="M751.58,82.1a.13.13,0,0,1-.26,0,.13.13,0,0,1,.26,0Z"/><path class="cls-8" d="M764.33,55.46a.13.13,0,0,1-.13.13.13.13,0,0,1,0-.26A.13.13,0,0,1,764.33,55.46Z"/><path class="cls-8" d="M764.37,45.82a.12.12,0,0,1-.12.13.13.13,0,0,1-.13-.13.12.12,0,0,1,.13-.12A.12.12,0,0,1,764.37,45.82Z"/><path class="cls-8" d="M671.23,28.38a.13.13,0,1,1-.13-.13A.13.13,0,0,1,671.23,28.38Z"/><path class="cls-8" d="M668.83,29.56a.13.13,0,1,1-.13-.13A.13.13,0,0,1,668.83,29.56Z"/><path class="cls-8" d="M708.4,19.91a.12.12,0,0,1-.12.13.13.13,0,0,1-.13-.13.12.12,0,0,1,.13-.12A.12.12,0,0,1,708.4,19.91Z"/><path class="cls-8" d="M712,18a.13.13,0,0,1-.13.13.12.12,0,0,1-.12-.13.12.12,0,0,1,.12-.12A.13.13,0,0,1,712,18Z"/><path class="cls-8" d="M635.8,27.86a.12.12,0,0,1-.12.12.12.12,0,0,1-.13-.12.13.13,0,0,1,.13-.13A.12.12,0,0,1,635.8,27.86Z"/><path class="cls-8" d="M578.12,22.44a.13.13,0,1,1-.13-.13A.13.13,0,0,1,578.12,22.44Z"/><path class="cls-8" d="M546,17.85a.13.13,0,0,1-.26,0,.13.13,0,1,1,.26,0Z"/><path class="cls-8" d="M524.45,17.92a.13.13,0,1,1-.13-.13A.13.13,0,0,1,524.45,17.92Z"/><path class="cls-8" d="M528.1,17a.13.13,0,0,1-.13.13.13.13,0,0,1,0-.26A.13.13,0,0,1,528.1,17Z"/><path class="cls-8" d="M561.33,13.77a.13.13,0,0,1-.13.13.12.12,0,0,1-.12-.13.12.12,0,0,1,.12-.12A.12.12,0,0,1,561.33,13.77Z"/><path class="cls-8" d="M605.33,9.34a.12.12,0,0,1-.13.12.12.12,0,0,1-.12-.12.13.13,0,0,1,.12-.13A.13.13,0,0,1,605.33,9.34Z"/><path class="cls-8" d="M563,22.54a.12.12,0,0,1-.12.12.12.12,0,0,1-.13-.12.13.13,0,0,1,.13-.13A.12.12,0,0,1,563,22.54Z"/><path class="cls-8" d="M558,24.23a.12.12,0,0,1-.12.12.12.12,0,0,1-.13-.12.13.13,0,0,1,.13-.13A.12.12,0,0,1,558,24.23Z"/><path class="cls-8" d="M669.54,16.55a.12.12,0,0,1-.13.12.12.12,0,0,1-.12-.12.12.12,0,0,1,.12-.13A.13.13,0,0,1,669.54,16.55Z"/><path class="cls-8" d="M664.61,52.19a.13.13,0,0,1-.13.13.12.12,0,0,1-.12-.13.12.12,0,0,1,.12-.12A.12.12,0,0,1,664.61,52.19Z"/><path class="cls-8" d="M667,74.15a.13.13,0,0,1-.13.13.13.13,0,0,1,0-.26A.13.13,0,0,1,667,74.15Z"/><path class="cls-8" d="M676.84,82.56a.12.12,0,0,1-.12.13.13.13,0,0,1-.13-.13.12.12,0,0,1,.13-.12A.12.12,0,0,1,676.84,82.56Z"/><path class="cls-8" d="M670.5,96.2a.12.12,0,0,1-.12.13.13.13,0,0,1-.13-.13.12.12,0,0,1,.13-.12A.12.12,0,0,1,670.5,96.2Z"/><path class="cls-8" d="M667.43,114a.12.12,0,0,1-.12.13.13.13,0,0,1-.13-.13.12.12,0,0,1,.13-.12A.12.12,0,0,1,667.43,114Z"/><path class="cls-8" d="M692.21,122.54a.13.13,0,0,1-.13.13.12.12,0,0,1-.12-.13.12.12,0,0,1,.12-.12A.13.13,0,0,1,692.21,122.54Z"/><path class="cls-8" d="M736.8,209.81a.12.12,0,0,1-.12.13.13.13,0,0,1-.13-.13.13.13,0,0,1,.13-.12A.12.12,0,0,1,736.8,209.81Z"/><path class="cls-8" d="M744.6,246.5a.12.12,0,0,1-.13.12.12.12,0,0,1-.12-.12.12.12,0,0,1,.12-.13A.13.13,0,0,1,744.6,246.5Z"/><path class="cls-8" d="M743.07,245.68a.13.13,0,0,1-.26,0,.13.13,0,1,1,.26,0Z"/><path class="cls-8" d="M736,254.63a.12.12,0,0,1-.12.12.12.12,0,0,1-.13-.12.13.13,0,0,1,.13-.13A.12.12,0,0,1,736,254.63Z"/><path class="cls-8" d="M742.33,219a.13.13,0,0,1-.26,0,.13.13,0,0,1,.26,0Z"/><path class="cls-8" d="M689.58,205.2a.13.13,0,0,1-.26,0,.13.13,0,0,1,.26,0Z"/><path class="cls-8" d="M681.37,156.59a.12.12,0,0,1-.13.12.12.12,0,0,1-.12-.12.12.12,0,0,1,.12-.13A.13.13,0,0,1,681.37,156.59Z"/><path class="cls-8" d="M677.51,114.84a.12.12,0,0,1-.12.13.13.13,0,0,1-.13-.13.12.12,0,0,1,.13-.12A.12.12,0,0,1,677.51,114.84Z"/><path class="cls-8" d="M652.43,133.79a.12.12,0,0,1-.12.12.12.12,0,0,1-.13-.12.13.13,0,0,1,.13-.13A.12.12,0,0,1,652.43,133.79Z"/><path class="cls-8" d="M640.87,98.48a.12.12,0,0,1-.12.12.12.12,0,0,1-.13-.12.13.13,0,0,1,.13-.13A.12.12,0,0,1,640.87,98.48Z"/><path class="cls-8" d="M630.4,81.29a.13.13,0,0,1-.13.13.12.12,0,0,1-.12-.13.12.12,0,0,1,.12-.12A.13.13,0,0,1,630.4,81.29Z"/><path class="cls-8" d="M520.85,98.57a.13.13,0,1,1-.13-.13A.13.13,0,0,1,520.85,98.57Z"/><path class="cls-8" d="M497.24,73.28a.13.13,0,0,1-.26,0,.13.13,0,0,1,.26,0Z"/><path class="cls-8" d="M396.69,55.8a.12.12,0,0,1-.13.12.12.12,0,0,1-.12-.12.12.12,0,0,1,.12-.13A.13.13,0,0,1,396.69,55.8Z"/><path class="cls-8" d="M310.44,55.74a.13.13,0,0,1-.26,0,.13.13,0,0,1,.26,0Z"/><path class="cls-8" d="M265.33,131.89a.13.13,0,1,1-.13-.13A.13.13,0,0,1,265.33,131.89Z"/><path class="cls-8" d="M255.31,178.25a.13.13,0,0,1-.13.13.12.12,0,0,1-.12-.13.12.12,0,0,1,.12-.12A.12.12,0,0,1,255.31,178.25Z"/><path class="cls-8" d="M254.53,189.86a.13.13,0,0,1-.26,0,.13.13,0,0,1,.26,0Z"/><path class="cls-8" d="M202.27,186.8a.13.13,0,0,1-.26,0,.13.13,0,0,1,.26,0Z"/><path class="cls-8" d="M141.81,143.68a.12.12,0,0,1-.12.12.12.12,0,0,1-.13-.12.13.13,0,0,1,.13-.13A.12.12,0,0,1,141.81,143.68Z"/><path class="cls-8" d="M140.62,128.73a.13.13,0,0,1-.13.13.13.13,0,0,1-.12-.13.13.13,0,0,1,.12-.12A.13.13,0,0,1,140.62,128.73Z"/><path class="cls-8" d="M90.5,189.93a.13.13,0,0,1-.13.13.12.12,0,0,1-.12-.13.12.12,0,0,1,.12-.12A.12.12,0,0,1,90.5,189.93Z"/><path class="cls-8" d="M92,161.71a.12.12,0,0,1-.12.13.13.13,0,1,1,0-.26A.12.12,0,0,1,92,161.71Z"/><path class="cls-8" d="M82.59,160.11a.12.12,0,0,1-.13.12.12.12,0,0,1-.12-.12.12.12,0,0,1,.12-.13A.13.13,0,0,1,82.59,160.11Z"/><path class="cls-8" d="M61.48,185.08a.12.12,0,0,1-.13.12.12.12,0,0,1-.12-.12.12.12,0,0,1,.12-.13A.13.13,0,0,1,61.48,185.08Z"/><path class="cls-8" d="M58.84,188.57a.13.13,0,0,1-.26,0,.13.13,0,0,1,.26,0Z"/><path class="cls-8" d="M59.1,169.09a.12.12,0,0,1-.13.12.12.12,0,0,1-.12-.12A.13.13,0,0,1,59,169,.13.13,0,0,1,59.1,169.09Z"/><path class="cls-8" d="M45.34,233.63a.13.13,0,0,1-.26,0,.13.13,0,0,1,.26,0Z"/><path class="cls-8" d="M43.83,224.13a.12.12,0,0,1-.13.12.12.12,0,0,1-.12-.12.12.12,0,0,1,.12-.13A.13.13,0,0,1,43.83,224.13Z"/><path class="cls-8" d="M42.94,201.33a.12.12,0,0,1-.12.13.13.13,0,0,1,0-.26A.12.12,0,0,1,42.94,201.33Z"/><path class="cls-8" d="M38.8,228.16a.12.12,0,0,1-.12.13.13.13,0,0,1-.13-.13.12.12,0,0,1,.13-.12A.12.12,0,0,1,38.8,228.16Z"/><path class="cls-8" d="M37.33,216.48a.12.12,0,0,1-.12.13.13.13,0,0,1,0-.26A.12.12,0,0,1,37.33,216.48Z"/><path class="cls-8" d="M35.64,201.3a.13.13,0,0,1-.26,0,.13.13,0,1,1,.26,0Z"/><path class="cls-8" d="M35.69,188.3a.12.12,0,0,1-.12.13.13.13,0,0,1-.13-.13.12.12,0,0,1,.13-.12A.12.12,0,0,1,35.69,188.3Z"/><path class="cls-8" d="M37.47,172.92a.13.13,0,1,1-.13-.13A.13.13,0,0,1,37.47,172.92Z"/><path class="cls-8" d="M46.14,167.41a.12.12,0,0,1-.12.13.13.13,0,1,1,0-.26A.12.12,0,0,1,46.14,167.41Z"/><path class="cls-8" d="M48.64,167.46a.13.13,0,1,1-.26,0,.13.13,0,0,1,.26,0Z"/><path class="cls-8" d="M51.88,120.57a.13.13,0,0,1-.13.13.12.12,0,0,1-.12-.13.12.12,0,0,1,.12-.12A.12.12,0,0,1,51.88,120.57Z"/><path class="cls-8" d="M59,71.27a.12.12,0,0,1-.12.13.13.13,0,0,1-.13-.13.12.12,0,0,1,.13-.12A.12.12,0,0,1,59,71.27Z"/><path class="cls-8" d="M57.12,39a.12.12,0,0,1-.12.12.12.12,0,0,1-.13-.12.13.13,0,0,1,.13-.13A.12.12,0,0,1,57.12,39Z"/><path class="cls-8" d="M52.65,29a.12.12,0,0,1-.12.12A.12.12,0,0,1,52.4,29a.13.13,0,0,1,.13-.13A.12.12,0,0,1,52.65,29Z"/><path class="cls-8" d="M31.7,59.94a.13.13,0,0,1-.26,0,.13.13,0,0,1,.26,0Z"/><path class="cls-8" d="M27,70a.12.12,0,0,1-.13.12.12.12,0,0,1-.12-.12.13.13,0,0,1,.12-.13A.13.13,0,0,1,27,70Z"/><path class="cls-8" d="M30.86,42.38a.12.12,0,0,1-.12.13.13.13,0,0,1-.13-.13.12.12,0,0,1,.13-.12A.12.12,0,0,1,30.86,42.38Z"/><path class="cls-8" d="M37.68,27.16a.12.12,0,0,1-.12.13.13.13,0,0,1-.13-.13.12.12,0,0,1,.13-.12A.12.12,0,0,1,37.68,27.16Z"/><path class="cls-8" d="M37.78,21.22a.13.13,0,0,1-.13.13.12.12,0,0,1-.12-.13.12.12,0,0,1,.12-.12A.12.12,0,0,1,37.78,21.22Z"/><path class="cls-8" d="M39.52,21.08a.13.13,0,0,1-.26,0,.13.13,0,0,1,.26,0Z"/><path class="cls-8" d="M47.77,28.3a.13.13,0,1,1-.13-.13A.13.13,0,0,1,47.77,28.3Z"/><path class="cls-8" d="M59,28.81a.12.12,0,0,1-.12.12.12.12,0,0,1-.13-.12.13.13,0,0,1,.13-.13A.12.12,0,0,1,59,28.81Z"/><path class="cls-8" d="M67.46,31.15a.12.12,0,0,1-.12.12.12.12,0,0,1-.13-.12.13.13,0,0,1,.13-.13A.12.12,0,0,1,67.46,31.15Z"/><path class="cls-8" d="M77.25,53.13a.12.12,0,0,1-.12.13.13.13,0,0,1-.13-.13.12.12,0,0,1,.13-.12A.12.12,0,0,1,77.25,53.13Z"/><path class="cls-8" d="M46.13,79.24a.13.13,0,0,1-.13.13.12.12,0,0,1-.12-.13.12.12,0,0,1,.12-.12A.12.12,0,0,1,46.13,79.24Z"/><path class="cls-8" d="M57.21,78.75a.12.12,0,0,1-.12.12.12.12,0,0,1-.13-.12.13.13,0,0,1,.13-.13A.12.12,0,0,1,57.21,78.75Z"/><path class="cls-8" d="M98.54,83.83a.13.13,0,0,1-.26,0,.13.13,0,1,1,.26,0Z"/><path class="cls-8" d="M112.88,72.82a.12.12,0,0,1-.12.13.13.13,0,0,1-.13-.13.13.13,0,0,1,.13-.12A.12.12,0,0,1,112.88,72.82Z"/><path class="cls-8" d="M114.35,62.67a.12.12,0,0,1-.12.13.13.13,0,0,1-.13-.13.12.12,0,0,1,.13-.12A.12.12,0,0,1,114.35,62.67Z"/><path class="cls-8" d="M105.14,82.27a.13.13,0,1,1-.13-.13A.13.13,0,0,1,105.14,82.27Z"/><path class="cls-8" d="M105.26,83.75a.12.12,0,0,1-.13.12.12.12,0,0,1-.12-.12.12.12,0,0,1,.12-.13A.13.13,0,0,1,105.26,83.75Z"/><path class="cls-8" d="M88.47,74.13a.13.13,0,0,1-.13.13.12.12,0,0,1-.12-.13.12.12,0,0,1,.12-.12A.12.12,0,0,1,88.47,74.13Z"/><path class="cls-8" d="M89.64,75.31a.13.13,0,1,1-.13-.13A.13.13,0,0,1,89.64,75.31Z"/><path class="cls-8" d="M99.66,64.19a.13.13,0,0,1-.13.13.13.13,0,0,1,0-.26A.13.13,0,0,1,99.66,64.19Z"/><path class="cls-8" d="M662.74,76.75a.13.13,0,0,1-.12.13.13.13,0,0,1,0-.26A.13.13,0,0,1,662.74,76.75Z"/><path class="cls-8" d="M674.43,89.16a.13.13,0,0,1-.13.13.13.13,0,0,1,0-.26A.13.13,0,0,1,674.43,89.16Z"/><path class="cls-8" d="M681.08,86a.13.13,0,0,1-.26,0,.13.13,0,0,1,.26,0Z"/><path class="cls-8" d="M617.42,59.89a.12.12,0,0,1-.12.12.12.12,0,0,1-.13-.12.13.13,0,0,1,.13-.13A.12.12,0,0,1,617.42,59.89Z"/><path class="cls-8" d="M511.74,34.9a.12.12,0,0,1-.13.12.12.12,0,0,1-.12-.12.12.12,0,0,1,.12-.13A.13.13,0,0,1,511.74,34.9Z"/><path class="cls-8" d="M423.28,22.61a.12.12,0,0,1-.12.12.12.12,0,0,1-.13-.12.13.13,0,0,1,.13-.13A.12.12,0,0,1,423.28,22.61Z"/><path class="cls-8" d="M399.8,23.51a.13.13,0,0,1-.13.13.13.13,0,0,1,0-.26A.13.13,0,0,1,399.8,23.51Z"/><path class="cls-8" d="M446.77,25a.13.13,0,0,1-.13.13.12.12,0,0,1-.12-.13.12.12,0,0,1,.12-.12A.12.12,0,0,1,446.77,25Z"/><path class="cls-8" d="M492,24.78a.12.12,0,0,1-.12.12.12.12,0,0,1-.13-.12.13.13,0,0,1,.13-.13A.12.12,0,0,1,492,24.78Z"/><path class="cls-8" d="M433.84,67.24a.12.12,0,0,1-.13.12.12.12,0,0,1-.12-.12.12.12,0,0,1,.12-.13A.13.13,0,0,1,433.84,67.24Z"/><path class="cls-8" d="M487.29,31.21a.12.12,0,0,1-.12.13.13.13,0,0,1-.13-.13.12.12,0,0,1,.13-.12A.12.12,0,0,1,487.29,31.21Z"/><path class="cls-8" d="M513.13,49.58a.13.13,0,0,1-.26,0,.13.13,0,0,1,.26,0Z"/><path class="cls-8" d="M580.25,72.16a.12.12,0,0,1-.12.13.13.13,0,0,1-.13-.13.13.13,0,0,1,.13-.12A.12.12,0,0,1,580.25,72.16Z"/><path class="cls-8" d="M625,37a.12.12,0,0,1-.12.12.12.12,0,0,1-.13-.12.13.13,0,0,1,.13-.13A.12.12,0,0,1,625,37Z"/><path class="cls-8" d="M649.35,94.51a.13.13,0,0,1-.13.13.13.13,0,0,1,0-.26A.13.13,0,0,1,649.35,94.51Z"/><path class="cls-8" d="M682.69,105.24a.13.13,0,1,1-.26,0,.13.13,0,0,1,.26,0Z"/><path class="cls-8" d="M700,103.69a.12.12,0,0,1-.12.12.12.12,0,0,1-.13-.12.13.13,0,0,1,.13-.13A.12.12,0,0,1,700,103.69Z"/><path class="cls-8" d="M714.25,151.92a.12.12,0,0,1-.13.12.12.12,0,0,1-.12-.12.12.12,0,0,1,.12-.13A.13.13,0,0,1,714.25,151.92Z"/><path class="cls-8" d="M708.45,101.4a.12.12,0,0,1-.13.12.12.12,0,0,1-.12-.12.12.12,0,0,1,.12-.13A.13.13,0,0,1,708.45,101.4Z"/><path class="cls-8" d="M576.84,75.59a.12.12,0,0,1-.12.13.13.13,0,0,1,0-.26A.12.12,0,0,1,576.84,75.59Z"/><path class="cls-8" d="M527.81,67.27a.13.13,0,1,1-.26,0,.13.13,0,0,1,.26,0Z"/><path class="cls-8" d="M519.48,54.29a.13.13,0,1,1-.13-.13A.13.13,0,0,1,519.48,54.29Z"/><path class="cls-8" d="M522.58,39.5a.12.12,0,0,1-.12.13.13.13,0,0,1-.13-.13.12.12,0,0,1,.13-.12A.12.12,0,0,1,522.58,39.5Z"/><path class="cls-8" d="M347.6,35.79a.12.12,0,0,1-.12.12.12.12,0,0,1-.13-.12.13.13,0,0,1,.13-.13A.12.12,0,0,1,347.6,35.79Z"/><path class="cls-8" d="M318,30.57a.13.13,0,0,1-.26,0,.13.13,0,1,1,.26,0Z"/><path class="cls-8" d="M378.69,27.59a.13.13,0,0,1-.13.13.12.12,0,0,1-.12-.13.12.12,0,0,1,.12-.12A.12.12,0,0,1,378.69,27.59Z"/><polygon class="cls-9" points="399.64 271.49 451.39 216.35 478.25 236.41 503 229.43 542.02 241.4 596.17 227.43 619.17 234.08 642.75 221.78 685.26 271.49 399.64 271.49"/><polygon class="cls-10" points="642.75 221.78 645.08 252.82 619.17 234.08 642.75 221.78"/><polygon class="cls-11" points="645.08 252.82 670.46 254.18 642.75 221.78 645.08 252.82"/><polygon class="cls-10" points="670.46 254.18 668.74 271.49 645.08 252.82 670.46 254.18"/><polygon class="cls-11" points="645.08 252.82 633.47 271.49 668.74 271.49 645.08 252.82"/><polygon class="cls-11" points="645.08 252.82 627.36 253.53 619.17 234.08 645.08 252.82"/><polygon class="cls-10" points="627.36 253.53 602.25 263.13 619.17 234.08 627.36 253.53"/><polygon class="cls-10" points="633.47 271.49 627.36 253.53 645.08 252.82 633.47 271.49"/><polygon class="cls-10" points="602.25 263.13 580.74 247.55 556.87 263.84 602.25 263.13"/><polygon class="cls-10" points="602.25 263.13 588.45 271.49 610.14 271.49 602.25 263.13"/><polygon class="cls-11" points="633.47 271.49 602.25 263.13 627.36 253.53 633.47 271.49"/><polygon class="cls-11" points="556.87 263.84 559.19 248.61 580.74 247.55 556.87 263.84"/><polygon class="cls-11" points="580.74 247.55 600.54 243.81 602.25 263.13 580.74 247.55"/><polygon class="cls-11" points="619.17 234.08 596.17 227.43 600.54 243.81 619.17 234.08"/><polygon class="cls-10" points="596.17 227.43 580.74 247.55 600.54 243.81 596.17 227.43"/><polygon class="cls-11" points="559.19 248.61 596.17 227.43 580.74 247.55 559.19 248.61"/><polygon class="cls-10" points="559.19 248.61 542.02 241.4 596.17 227.43 559.19 248.61"/><polygon class="cls-11" points="588.45 271.49 576.23 263.54 602.25 263.13 588.45 271.49"/><polygon class="cls-11" points="576.23 263.54 556.87 263.84 566.54 271.49 576.23 263.54"/><polygon class="cls-10" points="556.87 263.84 527.57 271.49 566.54 271.49 556.87 263.84"/><polygon class="cls-11" points="556.87 263.84 542.02 241.4 559.19 248.61 556.87 263.84"/><polygon class="cls-11" points="542.02 241.4 527.57 271.49 556.87 263.84 542.02 241.4"/><polygon class="cls-11" points="527.57 271.49 497.32 255.69 481.17 271.49 527.57 271.49"/><polygon class="cls-11" points="497.32 255.69 518.87 251.2 527.57 271.49 497.32 255.69"/><polygon class="cls-10" points="518.87 251.2 542.02 241.4 527.57 271.49 518.87 251.2"/><polygon class="cls-11" points="518.87 251.2 503 229.43 542.02 241.4 518.87 251.2"/><polygon class="cls-10" points="503 229.43 497.32 255.69 518.87 251.2 503 229.43"/><polygon class="cls-11" points="497.32 255.69 478.25 236.41 503 229.43 497.32 255.69"/><polygon class="cls-11" points="478.25 236.41 446.23 252.62 451.39 216.35 478.25 236.41"/><polygon class="cls-10" points="497.32 255.69 469.38 252.62 478.25 236.41 497.32 255.69"/><polygon class="cls-11" points="481.17 271.49 469.38 252.62 497.32 255.69 481.17 271.49"/><polygon class="cls-11" points="469.38 252.62 446.23 252.62 478.25 236.41 469.38 252.62"/><polygon class="cls-10" points="469.38 252.62 452.05 271.49 481.17 271.49 469.38 252.62"/><polygon class="cls-11" points="452.05 271.49 446.23 252.62 469.38 252.62 452.05 271.49"/><polygon class="cls-11" points="446.23 252.62 399.64 271.49 452.05 271.49 446.23 252.62"/><polygon class="cls-10" points="400.59 270.74 451.39 216.35 446.23 252.62 400.59 270.74"/><polygon class="cls-12" points="0.23 283.79 24.93 267.8 34.66 268.42 46.1 258.74 62.6 270.6 86.32 260.71 96.4 267.4 110.39 268.07 125.35 283.79 0.23 283.79"/><polygon class="cls-13" points="110.39 268.07 107.75 275.61 96.4 267.4 110.39 268.07"/><polygon class="cls-14" points="107.75 275.61 118.87 276.21 110.39 268.07 107.75 275.61"/><polygon class="cls-13" points="118.87 276.21 118.11 283.79 107.75 275.61 118.87 276.21"/><polygon class="cls-14" points="107.75 275.61 102.66 283.79 118.11 283.79 107.75 275.61"/><polygon class="cls-14" points="107.75 275.61 99.98 275.92 96.4 267.4 107.75 275.61"/><polygon class="cls-13" points="99.98 275.92 88.98 280.13 96.4 267.4 99.98 275.92"/><polygon class="cls-13" points="102.66 283.79 99.98 275.92 107.75 275.61 102.66 283.79"/><polygon class="cls-13" points="88.98 280.13 79.56 273.3 69.1 280.44 88.98 280.13"/><polygon class="cls-13" points="88.98 280.13 82.94 283.79 92.44 283.79 88.98 280.13"/><polygon class="cls-14" points="102.66 283.79 88.98 280.13 99.98 275.92 102.66 283.79"/><polygon class="cls-14" points="69.1 280.44 70.12 273.76 79.56 273.3 69.1 280.44"/><polygon class="cls-14" points="79.56 273.3 88.23 271.66 88.98 280.13 79.56 273.3"/><polygon class="cls-14" points="96.4 267.4 86.32 260.71 88.23 271.66 96.4 267.4"/><polygon class="cls-13" points="86.32 260.71 79.56 273.3 88.23 271.66 86.32 260.71"/><polygon class="cls-14" points="70.12 273.76 86.32 260.71 79.56 273.3 70.12 273.76"/><polygon class="cls-13" points="70.12 273.76 62.6 270.6 86.32 260.71 70.12 273.76"/><polygon class="cls-14" points="82.94 283.79 77.58 280.3 88.98 280.13 82.94 283.79"/><polygon class="cls-14" points="77.58 280.3 69.1 280.44 73.34 283.79 77.58 280.3"/><polygon class="cls-13" points="69.1 280.44 56.27 283.79 73.34 283.79 69.1 280.44"/><polygon class="cls-14" points="69.1 280.44 62.6 270.6 70.12 273.76 69.1 280.44"/><polygon class="cls-14" points="62.6 270.6 56.27 283.79 69.1 280.44 62.6 270.6"/><polygon class="cls-14" points="56.27 283.79 43.02 276.87 35.94 283.79 56.27 283.79"/><polygon class="cls-14" points="43.02 276.87 52.46 274.9 56.27 283.79 43.02 276.87"/><polygon class="cls-13" points="52.46 274.9 62.6 270.6 56.27 283.79 52.46 274.9"/><polygon class="cls-14" points="52.46 274.9 46.1 258.74 62.6 270.6 52.46 274.9"/><polygon class="cls-13" points="46.1 258.74 43.02 276.87 52.46 274.9 46.1 258.74"/><polygon class="cls-14" points="43.02 276.87 34.66 268.42 46.1 258.74 43.02 276.87"/><polygon class="cls-14" points="34.66 268.42 20.64 275.52 24.93 267.8 34.66 268.42"/><polygon class="cls-13" points="43.02 276.87 30.77 275.52 34.66 268.42 43.02 276.87"/><polygon class="cls-14" points="35.94 283.79 30.77 275.52 43.02 276.87 35.94 283.79"/><polygon class="cls-14" points="30.77 275.52 20.64 275.52 34.66 268.42 30.77 275.52"/><polygon class="cls-13" points="30.77 275.52 23.19 283.79 35.94 283.79 30.77 275.52"/><polygon class="cls-14" points="23.19 283.79 20.64 275.52 30.77 275.52 23.19 283.79"/><polygon class="cls-14" points="20.64 275.52 0.23 283.79 23.19 283.79 20.64 275.52"/><polygon class="cls-13" points="0.64 283.46 24.93 267.8 20.64 275.52 0.64 283.46"/><polygon class="cls-15" points="786.07 283.22 767.52 272.13 777.43 270.6 786.07 283.22"/><polygon class="cls-16" points="767.52 272.13 765.05 283.22 786.07 283.22 767.52 272.13"/><polygon class="cls-15" points="765.05 283.22 754.25 272.13 767.52 272.13 765.05 283.22"/><polygon class="cls-15" points="754.25 272.13 750 259.43 767.52 272.13 754.25 272.13"/><polygon class="cls-16" points="754.25 272.13 743.96 283.22 765.05 283.22 754.25 272.13"/><polygon class="cls-15" points="754.25 272.13 742 273.02 743.96 283.22 754.25 272.13"/><polygon class="cls-16" points="742 273.02 750 259.43 754.25 272.13 742 273.02"/><polygon class="cls-15" points="742 273.02 731.45 264.41 750 259.43 742 273.02"/><polygon class="cls-15" points="742 273.02 729.61 275.17 731.45 264.41 742 273.02"/><polygon class="cls-15" points="743.96 283.22 729.61 275.17 742 273.02 743.96 283.22"/><polygon class="cls-16" points="729.61 275.17 720.53 254.6 731.45 264.41 729.61 275.17"/><polygon class="cls-15" points="729.61 275.17 721.48 283.22 743.96 283.22 729.61 275.17"/><polygon class="cls-15" points="729.61 275.17 708.59 258.21 720.53 254.6 729.61 275.17"/><polygon class="cls-16" points="721.48 283.22 708.59 258.21 729.61 275.17 721.48 283.22"/><polygon class="cls-15" points="708.59 258.21 706.31 270.71 721.48 283.22 708.59 258.21"/><polygon class="cls-15" points="706.31 270.71 698.26 283.22 721.48 283.22 706.31 270.71"/><polygon class="cls-15" points="694.11 246.63 696.1 262.58 682.42 257.05 694.11 246.63"/><polygon class="cls-15" points="696.1 262.58 708.59 258.21 694.11 246.63 696.1 262.58"/><polygon class="cls-16" points="706.31 270.71 696.1 262.58 708.59 258.21 706.31 270.71"/><polygon class="cls-15" points="696.1 262.58 698.26 283.22 706.31 270.71 696.1 262.58"/><polygon class="cls-16" points="696.1 262.58 679.38 283.22 698.26 283.22 696.1 262.58"/><polygon class="cls-15" points="682.42 257.05 671.67 265.33 669.13 253.63 682.42 257.05"/><polygon class="cls-15" points="679.38 283.22 682 266.23 696.1 262.58 679.38 283.22"/><polygon class="cls-15" points="682 266.23 682.42 257.05 696.1 262.58 682 266.23"/><polygon class="cls-15" points="682 266.23 671.67 265.33 682.42 257.05 682 266.23"/><polygon class="cls-15" points="671.67 265.33 658.13 269.79 669.13 253.63 671.67 265.33"/><polygon class="cls-15" points="671.67 265.33 679.38 283.22 682 266.23 671.67 265.33"/><polygon class="cls-16" points="679.38 283.22 660.58 283.22 671.67 265.33 679.38 283.22"/><polygon class="cls-15" points="658.13 269.79 660.58 283.22 671.67 265.33 658.13 269.79"/><polygon class="cls-16" points="658.13 269.79 651.69 249.14 669.13 253.63 658.13 269.79"/><polygon class="cls-15" points="658.13 269.79 646.93 264.3 651.69 249.14 658.13 269.79"/><polygon class="cls-16" points="646.93 264.3 634.48 261.85 651.69 249.14 646.93 264.3"/><polygon class="cls-15" points="634.48 261.85 637.09 271.62 624.26 269.39 634.48 261.85"/><polygon class="cls-15" points="637.09 271.62 646.93 264.3 634.48 261.85 637.09 271.62"/><polygon class="cls-15" points="658.13 269.79 646.1 274.28 646.93 264.3 658.13 269.79"/><polygon class="cls-16" points="646.1 274.28 637.09 271.62 646.93 264.3 646.1 274.28"/><polygon class="cls-16" points="646.1 274.28 653.6 279.04 658.13 269.79 646.1 274.28"/><polygon class="cls-15" points="660.58 283.22 653.6 279.04 658.13 269.79 660.58 283.22"/><polygon class="cls-15" points="653.6 279.04 645.85 283.22 660.58 283.22 653.6 279.04"/><polygon class="cls-15" points="646.1 274.28 645.85 283.22 653.6 279.04 646.1 274.28"/><polygon class="cls-15" points="624.26 269.39 632.45 276.26 637.09 271.62 624.26 269.39"/><polygon class="cls-15" points="632.45 276.26 646.1 274.28 637.09 271.62 632.45 276.26"/><polygon class="cls-15" points="645.85 283.22 632.45 276.26 646.1 274.28 645.85 283.22"/><polygon class="cls-15" points="632.45 276.26 622.99 283.22 645.85 283.22 632.45 276.26"/><polygon class="cls-15" points="624.26 269.39 614.35 273.94 611.24 264.41 624.26 269.39"/><polygon class="cls-15" points="614.35 273.94 632.45 276.26 624.26 269.39 614.35 273.94"/><polygon class="cls-15" points="623.26 283.22 614.35 273.94 632.45 276.26 623.26 283.22"/><polygon class="cls-15" points="614.35 273.94 587.14 282.92 611.24 264.41 614.35 273.94"/><polygon class="cls-15" points="614.35 273.94 607.91 283.22 623.4 282.92 614.35 273.94"/><polygon class="cls-15" points="607.91 283.22 614.35 273.94 586.6 283.22 607.91 283.22"/><polygon class="cls-17" points="119.08 283.88 140.26 272.79 128.94 271.26 119.08 283.88"/><polygon class="cls-18" points="140.26 272.79 143.09 283.88 119.08 283.88 140.26 272.79"/><polygon class="cls-17" points="143.09 283.88 155.41 272.79 140.26 272.79 143.09 283.88"/><polygon class="cls-17" points="155.41 272.79 160.72 251.2 140.26 272.79 155.41 272.79"/><polygon class="cls-18" points="155.41 272.79 167.16 283.88 143.09 283.88 155.41 272.79"/><polygon class="cls-17" points="155.41 272.79 169.41 273.68 167.16 283.88 155.41 272.79"/><polygon class="cls-18" points="169.41 273.68 160.72 251.2 155.41 272.79 169.41 273.68"/><polygon class="cls-17" points="169.41 273.68 181.45 265.07 160.72 251.2 169.41 273.68"/><polygon class="cls-17" points="169.41 273.68 183.55 275.83 181.45 265.07 169.41 273.68"/><polygon class="cls-17" points="167.16 283.88 183.55 275.83 169.41 273.68 167.16 283.88"/><polygon class="cls-18" points="183.55 275.83 193.93 255.26 181.45 265.07 183.55 275.83"/><polygon class="cls-17" points="183.55 275.83 192.84 283.88 167.16 283.88 183.55 275.83"/><polygon class="cls-17" points="183.55 275.83 207.56 258.87 193.93 255.26 183.55 275.83"/><polygon class="cls-18" points="192.84 283.88 207.56 258.87 183.55 275.83 192.84 283.88"/><polygon class="cls-17" points="207.56 258.87 210.17 271.37 192.84 283.88 207.56 258.87"/><polygon class="cls-17" points="210.17 271.37 219.36 283.88 192.84 283.88 210.17 271.37"/><polygon class="cls-17" points="224.1 247.29 221.83 263.24 237.45 257.71 224.1 247.29"/><polygon class="cls-17" points="221.83 263.24 207.56 258.87 224.1 247.29 221.83 263.24"/><polygon class="cls-18" points="210.17 271.37 221.83 263.24 207.56 258.87 210.17 271.37"/><polygon class="cls-17" points="221.83 263.24 219.36 283.88 210.17 271.37 221.83 263.24"/><polygon class="cls-18" points="221.83 263.24 240.92 283.88 219.36 283.88 221.83 263.24"/><polygon class="cls-17" points="237.45 257.71 249.72 265.99 252.62 254.29 237.45 257.71"/><polygon class="cls-17" points="240.92 283.88 237.92 266.88 221.83 263.24 240.92 283.88"/><polygon class="cls-17" points="237.92 266.88 237.45 257.71 221.83 263.24 237.92 266.88"/><polygon class="cls-17" points="237.92 266.88 249.72 265.99 237.45 257.71 237.92 266.88"/><polygon class="cls-17" points="249.72 265.99 265.19 270.45 252.62 254.29 249.72 265.99"/><polygon class="cls-17" points="249.72 265.99 240.92 283.88 237.92 266.88 249.72 265.99"/><polygon class="cls-18" points="240.92 283.88 262.39 283.88 249.72 265.99 240.92 283.88"/><polygon class="cls-17" points="265.19 270.45 262.39 283.88 249.72 265.99 265.19 270.45"/><polygon class="cls-18" points="265.19 270.45 272.54 249.8 252.62 254.29 265.19 270.45"/><polygon class="cls-17" points="265.19 270.45 277.98 264.96 272.54 249.8 265.19 270.45"/><polygon class="cls-18" points="277.98 264.96 292.2 262.51 272.54 249.8 277.98 264.96"/><polygon class="cls-17" points="292.2 262.51 289.22 272.28 303.87 270.05 292.2 262.51"/><polygon class="cls-17" points="289.22 272.28 277.98 264.96 292.2 262.51 289.22 272.28"/><polygon class="cls-17" points="265.19 270.45 278.93 274.94 277.98 264.96 265.19 270.45"/><polygon class="cls-18" points="278.93 274.94 289.22 272.28 277.98 264.96 278.93 274.94"/><polygon class="cls-18" points="278.93 274.94 270.37 279.7 265.19 270.45 278.93 274.94"/><polygon class="cls-17" points="262.39 283.88 270.37 279.7 265.19 270.45 262.39 283.88"/><polygon class="cls-17" points="270.37 279.7 279.21 283.88 262.39 283.88 270.37 279.7"/><polygon class="cls-17" points="278.93 274.94 279.21 283.88 270.37 279.7 278.93 274.94"/><polygon class="cls-17" points="303.87 270.05 294.52 276.92 289.22 272.28 303.87 270.05"/><polygon class="cls-17" points="294.52 276.92 278.93 274.94 289.22 272.28 294.52 276.92"/><polygon class="cls-17" points="279.21 283.88 294.52 276.92 278.93 274.94 279.21 283.88"/><polygon class="cls-17" points="294.52 276.92 305.32 283.88 279.21 283.88 294.52 276.92"/><polygon class="cls-17" points="303.87 270.05 315.19 274.6 318.75 265.07 303.87 270.05"/><polygon class="cls-17" points="315.19 274.6 294.52 276.92 303.87 270.05 315.19 274.6"/><polygon class="cls-17" points="305.01 283.88 315.19 274.6 294.52 276.92 305.01 283.88"/><polygon class="cls-17" points="315.19 274.6 346.27 283.58 318.75 265.07 315.19 274.6"/><polygon class="cls-17" points="315.19 274.6 322.54 283.88 304.85 283.58 315.19 274.6"/><polygon class="cls-17" points="322.54 283.88 315.19 274.6 346.88 283.88 322.54 283.88"/><polygon class="cls-17" points="523.29 264.93 520.39 277.6 501.24 283.88 523.29 264.93"/><polygon class="cls-17" points="520.39 277.6 525.57 283.88 501.24 283.88 520.39 277.6"/><polygon class="cls-17" points="544.37 255.26 537.5 266.61 523.29 264.93 544.37 255.26"/><polygon class="cls-17" points="520.39 277.6 537.5 266.61 523.29 264.93 520.39 277.6"/><polygon class="cls-17" points="525.57 283.88 537.5 266.61 520.39 277.6 525.57 283.88"/><polygon class="cls-17" points="537.5 266.61 554.81 260.09 544.37 255.26 537.5 266.61"/><polygon class="cls-17" points="537.5 266.61 543.79 283.88 525.57 283.88 537.5 266.61"/><polygon class="cls-17" points="554.81 260.09 555.29 270.05 537.5 266.61 554.81 260.09"/><polygon class="cls-19" points="555.29 270.05 543.79 283.88 537.5 266.61 555.29 270.05"/><polygon class="cls-19" points="555.29 270.05 561.97 258.74 554.81 260.09 555.29 270.05"/><polygon class="cls-17" points="555.29 270.05 563.71 283.88 543.79 283.88 555.29 270.05"/><polygon class="cls-17" points="555.29 270.05 574.44 265.07 561.97 258.74 555.29 270.05"/><polygon class="cls-17" points="574.44 265.07 563.71 283.88 555.29 270.05 574.44 265.07"/><polygon class="cls-17" points="574.44 265.07 587.3 268.12 596.97 254.39 574.44 265.07"/><polygon class="cls-17" points="587.3 268.12 574.44 265.07 576.86 275.25 587.3 268.12"/><polygon class="cls-19" points="576.86 275.25 563.71 283.88 574.44 265.07 576.86 275.25"/><polygon class="cls-17" points="576.86 275.25 586.53 283.88 563.71 283.88 576.86 275.25"/><polygon class="cls-17" points="587.3 268.12 586.53 283.88 576.86 275.25 587.3 268.12"/><polygon class="cls-17" points="587.3 268.12 609.74 268.99 596.97 254.39 587.3 268.12"/><polygon class="cls-19" points="586.53 283.88 596.97 276.97 587.3 268.12 586.53 283.88"/><polygon class="cls-17" points="587.3 268.12 609.74 268.99 596.97 276.97 587.3 268.12"/><polygon class="cls-17" points="596.97 276.97 606.26 283.88 586.53 283.88 596.97 276.97"/><polygon class="cls-19" points="619.21 268.99 610.9 275.25 609.74 268.99 619.21 268.99"/><polygon class="cls-17" points="610.9 275.25 596.97 276.97 609.74 268.99 610.9 275.25"/><polygon class="cls-17" points="610.9 275.25 606.26 283.88 596.97 276.97 610.9 275.25"/><polygon class="cls-17" points="610.9 275.25 636.81 280.17 619.21 268.99 610.9 275.25"/><polygon class="cls-19" points="636.81 280.17 620.86 283.88 610.9 275.25 636.81 280.17"/><polygon class="cls-17" points="606.26 283.88 620.86 283.88 610.9 275.25 606.26 283.88"/><polygon class="cls-17" points="636.81 280.17 641.16 283.88 620.86 283.88 636.81 280.17"/><polygon class="cls-17" points="651.13 274.4 648.13 282.02 636.81 280.17 651.13 274.4"/><polygon class="cls-19" points="648.13 282.02 661.96 283.88 651.13 274.4 648.13 282.02"/><polygon class="cls-19" points="648.13 282.02 641.16 283.88 636.81 280.17 648.13 282.02"/><polygon class="cls-17" points="661.96 283.88 641.16 283.88 648.13 282.02 661.96 283.88"/><polygon class="cls-20" points="555.29 283.88 494.78 241.82 465.52 248.8 437.25 241.82 392.7 253.79 329.45 229.43 304.58 246.47 257.46 245.55 229.1 283.88 555.29 283.88"/><polygon class="cls-19" points="257.46 245.55 274.99 265.21 304.58 246.47 257.46 245.55"/><polygon class="cls-21" points="274.99 265.21 246 266.58 257.46 245.55 274.99 265.21"/><polygon class="cls-19" points="246 266.58 247.97 283.88 274.99 265.21 246 266.58"/><polygon class="cls-21" points="274.99 265.21 288.25 283.88 247.97 283.88 274.99 265.21"/><polygon class="cls-21" points="274.99 265.21 295.23 265.93 304.58 246.47 274.99 265.21"/><polygon class="cls-19" points="295.23 265.93 323.91 275.53 304.58 246.47 295.23 265.93"/><polygon class="cls-19" points="288.25 283.88 295.23 265.93 274.99 265.21 288.25 283.88"/><polygon class="cls-19" points="323.91 275.53 348.47 259.94 375.74 276.23 323.91 275.53"/><polygon class="cls-19" points="323.91 275.53 339.66 283.88 314.89 283.88 323.91 275.53"/><polygon class="cls-21" points="288.25 283.88 323.91 275.53 295.23 265.93 288.25 283.88"/><polygon class="cls-21" points="375.74 276.23 373.08 261 348.47 259.94 375.74 276.23"/><polygon class="cls-21" points="348.47 259.94 325.86 256.2 323.91 275.53 348.47 259.94"/><polygon class="cls-21" points="304.58 246.47 329.45 229.43 325.86 256.2 304.58 246.47"/><polygon class="cls-19" points="329.45 229.43 348.47 259.94 325.86 256.2 329.45 229.43"/><polygon class="cls-21" points="373.08 261 329.45 229.43 348.47 259.94 373.08 261"/><polygon class="cls-19" points="373.08 261 392.7 253.79 329.45 229.43 373.08 261"/><polygon class="cls-21" points="339.66 283.88 353.63 275.93 323.91 275.53 339.66 283.88"/><polygon class="cls-21" points="353.63 275.93 375.74 276.23 364.69 283.88 353.63 275.93"/><polygon class="cls-19" points="375.74 276.23 409.2 283.88 364.69 283.88 375.74 276.23"/><polygon class="cls-21" points="375.74 276.23 392.7 253.79 373.08 261 375.74 276.23"/><polygon class="cls-21" points="392.7 253.79 409.2 283.88 375.74 276.23 392.7 253.79"/><polygon class="cls-21" points="409.2 283.88 443.74 268.09 462.19 283.88 409.2 283.88"/><polygon class="cls-21" points="443.74 268.09 419.13 263.6 409.2 283.88 443.74 268.09"/><polygon class="cls-19" points="419.13 263.6 392.7 253.79 409.2 283.88 419.13 263.6"/><polygon class="cls-21" points="419.13 263.6 437.25 241.82 392.7 253.79 419.13 263.6"/><polygon class="cls-19" points="437.25 241.82 443.74 268.09 419.13 263.6 437.25 241.82"/><polygon class="cls-21" points="443.74 268.09 465.52 248.8 437.25 241.82 443.74 268.09"/><polygon class="cls-21" points="465.52 248.8 502.09 265.01 494.78 241.82 465.52 248.8"/><polygon class="cls-19" points="443.74 268.09 475.66 265.01 465.52 248.8 443.74 268.09"/><polygon class="cls-21" points="462.19 283.88 475.66 265.01 443.74 268.09 462.19 283.88"/><polygon class="cls-21" points="475.66 265.01 502.09 265.01 465.52 248.8 475.66 265.01"/><polygon class="cls-19" points="475.66 265.01 495.44 283.88 462.19 283.88 475.66 265.01"/><polygon class="cls-21" points="495.44 283.88 502.09 265.01 475.66 265.01 495.44 283.88"/><polygon class="cls-21" points="502.09 265.01 555.29 283.88 495.44 283.88 502.09 265.01"/><polygon class="cls-19" points="554.21 283.13 494.78 241.82 502.09 265.01 554.21 283.13"/><polygon class="cls-15" points="157.11 264.63 159.65 277.29 176.42 283.58 157.11 264.63"/><polygon class="cls-15" points="159.65 277.29 155.12 283.58 176.42 283.58 159.65 277.29"/><polygon class="cls-15" points="138.66 254.96 144.67 266.31 157.11 264.63 138.66 254.96"/><polygon class="cls-15" points="159.65 277.29 144.67 266.31 157.11 264.63 159.65 277.29"/><polygon class="cls-15" points="155.12 283.58 144.67 266.31 159.65 277.29 155.12 283.58"/><polygon class="cls-15" points="144.67 266.31 129.51 259.79 138.66 254.96 144.67 266.31"/><polygon class="cls-15" points="144.67 266.31 139.16 283.58 155.12 283.58 144.67 266.31"/><polygon class="cls-15" points="129.51 259.79 129.09 269.75 144.67 266.31 129.51 259.79"/><polygon class="cls-10" points="129.09 269.75 139.16 283.58 144.67 266.31 129.09 269.75"/><polygon class="cls-10" points="129.09 269.75 123.25 258.44 129.51 259.79 129.09 269.75"/><polygon class="cls-15" points="129.09 269.75 121.72 283.58 139.16 283.58 129.09 269.75"/><polygon class="cls-15" points="129.09 269.75 112.32 264.77 123.25 258.44 129.09 269.75"/><polygon class="cls-15" points="112.32 264.77 121.72 283.58 129.09 269.75 112.32 264.77"/><polygon class="cls-15" points="112.32 264.77 101.06 267.82 92.59 254.09 112.32 264.77"/><polygon class="cls-15" points="101.06 267.82 112.32 264.77 110.2 274.95 101.06 267.82"/><polygon class="cls-10" points="110.2 274.95 121.72 283.58 112.32 264.77 110.2 274.95"/><polygon class="cls-15" points="110.2 274.95 101.74 283.58 121.72 283.58 110.2 274.95"/><polygon class="cls-15" points="101.06 267.82 101.74 283.58 110.2 274.95 101.06 267.82"/><polygon class="cls-15" points="101.06 267.82 81.42 268.69 92.59 254.09 101.06 267.82"/><polygon class="cls-10" points="101.74 283.58 92.59 276.67 101.06 267.82 101.74 283.58"/><polygon class="cls-15" points="101.06 267.82 81.42 268.69 92.59 276.67 101.06 267.82"/><polygon class="cls-15" points="92.59 276.67 84.47 283.58 101.74 283.58 92.59 276.67"/><polygon class="cls-10" points="73.12 268.69 80.4 274.95 81.42 268.69 73.12 268.69"/><polygon class="cls-15" points="80.4 274.95 92.59 276.67 81.42 268.69 80.4 274.95"/><polygon class="cls-15" points="80.4 274.95 84.47 283.58 92.59 276.67 80.4 274.95"/><polygon class="cls-15" points="80.4 274.95 57.71 279.87 73.12 268.69 80.4 274.95"/><polygon class="cls-10" points="57.71 279.87 71.68 283.58 80.4 274.95 57.71 279.87"/><polygon class="cls-15" points="84.47 283.58 71.68 283.58 80.4 274.95 84.47 283.58"/><polygon class="cls-15" points="57.71 279.87 53.9 283.58 71.68 283.58 57.71 279.87"/><polygon class="cls-15" points="45.18 274.1 47.8 281.72 57.71 279.87 45.18 274.1"/><polygon class="cls-10" points="47.8 281.72 35.69 283.58 45.18 274.1 47.8 281.72"/><polygon class="cls-10" points="47.8 281.72 53.9 283.58 57.71 279.87 47.8 281.72"/><polygon class="cls-15" points="35.69 283.58 53.9 283.58 47.8 281.72 35.69 283.58"/><line class="cls-22" x1="774.93" y1="283.88" x2="24.93" y2="283.88"/></g></g></svg>