<svg xmlns="http://www.w3.org/2000/svg" xmlns:xlink="http://www.w3.org/1999/xlink" width="766" height="105.76" viewBox="0 0 766 105.76"><defs><filter id="a" x="0" y="0" width="766" height="105.76" filterUnits="userSpaceOnUse"><feOffset dy="3" input="SourceAlpha"/><feGaussianBlur stdDeviation="3" result="b"/><feFlood flood-color="#3a00ff"/><feComposite operator="in" in2="b"/><feComposite in="SourceGraphic"/></filter></defs><g transform="matrix(1, 0, 0, 1, 0, 0)" filter="url(#a)"><path d="M73.32,71.04v.12A35.179,35.179,0,0,1,57,81.6a42.416,42.416,0,0,1-11.88,1.68C23.4,83.28,7.56,67.2,7.56,45S23.4,6.72,45.12,6.72c11.4,0,21.24,4.32,28.2,12.12l-12,7.8a22.453,22.453,0,0,0-16.2-6.36C29.88,20.28,21.84,32.64,21.84,45s8.04,24.84,23.28,24.84a26.223,26.223,0,0,0,7.56-1.2,20.86,20.86,0,0,0,8.28-4.92l.48-.48a20.319,20.319,0,0,0,3.24-3.84l-4.32-2.88-.24.24-1.2,1.68c-.12.24-.36.36-.48.6A16,16,0,0,1,51,63.84a18.3,18.3,0,0,1-5.88.96C32.64,64.8,27,54.48,27,45s5.64-19.68,18.12-19.68c7.32,0,11.52,3.36,13.8,6.24l1.44,1.8L80.64,20.04l-1.56-2.16C71.16,7.56,58.92,1.68,45.12,1.68a42.572,42.572,0,0,0-30.6,12.36C6.84,21.96,2.52,33,2.52,45s4.32,23.04,12,30.96a42.188,42.188,0,0,0,30.6,12.48c13.56,0,25.8-5.88,33.6-15.96a1.656,1.656,0,0,0,.36-.48l1.56-2.04-4.2-2.76A48.372,48.372,0,0,1,73.32,71.04Zm83.04-57.12A39.986,39.986,0,0,0,136.2,2.76a34.027,34.027,0,0,0-5.04-.96V25.92a14.018,14.018,0,0,1,5.04,2.4c5.28,3.72,7.8,10.2,7.8,16.56,0,9.48-5.76,19.68-18.24,19.68s-18.12-10.2-18.12-19.68c0-6.36,2.52-12.96,7.92-16.68a14.018,14.018,0,0,1,5.04-2.4V20.64a20.725,20.725,0,0,0-5.04,1.68c-8.64,4.2-13.08,13.32-13.08,22.56,0,12.24,8.04,24.72,23.28,24.72s23.28-12.48,23.28-24.72c0-9.12-4.32-18.36-12.84-22.44V7.92c16.2,4.2,27.12,18.48,27.12,36.96,0,22.2-15.72,38.28-37.56,38.28-21.72,0-37.56-16.08-37.56-38.28,0-18.6,11.04-32.76,27.36-37.08a31.535,31.535,0,0,1,5.04-.84V1.8c-1.8.24-3.48.48-5.04.84a40.9,40.9,0,0,0-20.4,11.28c-7.68,7.92-12,18.96-12,30.96s4.32,23.04,12,30.96c7.8,8.04,18.72,12.36,30.6,12.36,12,0,22.8-4.32,30.6-12.36,7.8-7.92,12-18.96,12-30.96S164.16,21.84,156.36,13.92Zm68.28-10.8V43.2L201.36,8.52l-3.6-5.4h-1.44V81.96H182.04V3.12H177V87h24.48V46.8L228.24,87h20.88V3.12ZM231,81.96,201.36,37.68V17.64l28.32,42.24V8.16h14.4v73.8ZM255.96,3.12V26.4h18.48V87.24h5.04V21.36H261V8.16h51.12v13.2H293.64V87.24h5.04V26.4h18.48V3.12Zm137.4,69.24-1.08-3-.84-2.04H338.52l-4.56,14.64H319.08l26.64-73.8h19.2l15.96,44.52H367.44L355.32,14.04,341.4,57.72h46.68l-1.8-5.04L368.4,3.12H342.12L311.88,87h25.8l4.56-14.64H368.4L372.96,87h25.68Zm-45-19.68,6.96-21.96,6.84,21.96Zm28.32,29.28-3-9.6h14.28l3.48,9.6Zm91.08-10.92v.12A35.179,35.179,0,0,1,451.44,81.6a42.416,42.416,0,0,1-11.88,1.68C417.84,83.28,402,67.2,402,45S417.84,6.72,439.56,6.72c11.4,0,21.24,4.32,28.2,12.12l-12,7.8a22.453,22.453,0,0,0-16.2-6.36c-15.24,0-23.28,12.36-23.28,24.72s8.04,24.84,23.28,24.84a26.222,26.222,0,0,0,7.56-1.2,20.86,20.86,0,0,0,8.28-4.92l.48-.48a20.319,20.319,0,0,0,3.24-3.84l-4.32-2.88-.24.24-1.2,1.68c-.12.24-.36.36-.48.6a16,16,0,0,1-7.44,4.8,18.3,18.3,0,0,1-5.88.96c-12.48,0-18.12-10.32-18.12-19.8s5.64-19.68,18.12-19.68c7.32,0,11.52,3.36,13.8,6.24l1.44,1.8,20.28-13.32-1.56-2.16c-7.92-10.32-20.16-16.2-33.96-16.2a42.572,42.572,0,0,0-30.6,12.36c-7.68,7.92-12,18.96-12,30.96s4.32,23.04,12,30.96a42.188,42.188,0,0,0,30.6,12.48c13.56,0,25.8-5.88,33.6-15.96a1.656,1.656,0,0,0,.36-.48l1.56-2.04-4.2-2.76A48.373,48.373,0,0,1,467.76,71.04ZM480.48,3.12V26.4h18.48V87.24H504V21.36H485.52V8.16h51.12v13.2H518.16V87.24h5.04V26.4h18.48V3.12Zm197.76,0V81.96h-14.4V3.12h-4.92l-.12.12L637.2,38.88,615.72,3.24l-.12-.12h-4.92V28.56h-.12v53.4H596.4V3.12h-5.04V87h24.36V46.68L632.4,74.04h9.84L658.8,46.68V87h24.48V3.12ZM658.8,36.84,639.48,69h-4.32L615.72,36.96v-24L637.2,48.72l21.6-35.76ZM719.28,55.8h25.68V33.48H719.28V26.4h29.28V3.12H694.92v35.4h45V50.76h-45V87h54.6V63.84H719.28Zm-5.04-22.32H699.96V8.16h43.56v13.2H714.24Zm30.24,48.48H699.96V55.8h14.28V68.88h30.24Z" transform="translate(6.98 4.82)" fill="#fb0834" stroke="#fff" stroke-width="1"/></g></svg>