<svg xmlns="http://www.w3.org/2000/svg" xmlns:xlink="http://www.w3.org/1999/xlink" width="606.52" height="105.76" viewBox="0 0 606.52 105.76"><defs><filter id="a" x="0" y="0" width="606.52" height="105.76" filterUnits="userSpaceOnUse"><feOffset dy="3" input="SourceAlpha"/><feGaussianBlur stdDeviation="3" result="b"/><feFlood flood-color="#3a00ff"/><feComposite operator="in" in2="b"/><feComposite in="SourceGraphic"/></filter></defs><g transform="matrix(1, 0, 0, 1, 0, 0)" filter="url(#a)"><path d="M37.56,3.12H5.64V46.44H37.56c8.88,0,14.28-4.68,14.28-12.6,0-7.56-5.64-12.48-14.28-12.48H24.96V41.4H10.68V8.16H37.56c17.76,0,28.8,9.84,28.8,25.68,0,23.04-22.08,24.72-28.8,24.72H5.64V87H30V63.6h7.56c9.48,0,17.64-2.4,23.64-7.2,6.72-5.16,10.2-13.08,10.2-22.56C71.4,15.12,58.08,3.12,37.56,3.12ZM30,26.4h7.56c5.88,0,9.24,2.76,9.24,7.44,0,5.04-3.12,7.56-9.24,7.56H30ZM24.96,81.96H10.68V63.72H24.96ZM133.32,54.6A25.405,25.405,0,0,0,144.6,32.88c0-18.36-12.6-29.76-32.76-29.76H78.96V44.4h32.88c8.28,0,13.32-4.32,13.32-11.52,0-7.08-5.28-11.52-13.32-11.52H98.16v18H84V8.16h27.84c17.28,0,27.72,9.24,27.72,24.72,0,8.16-3.72,14.64-10.92,18.6l-2.16,1.2,15.96,29.28H127.8l-13.32-26.4H78.96V87h24.36V60.6h8.04L124.68,87h26.28Zm-30-28.2h8.52c3,0,8.28.84,8.28,6.48,0,4.32-2.88,6.48-8.28,6.48h-8.52ZM98.16,81.96H84V60.6H98.16ZM226.32,13.92A39.986,39.986,0,0,0,206.16,2.76a34.026,34.026,0,0,0-5.04-.96V25.92a14.018,14.018,0,0,1,5.04,2.4c5.28,3.72,7.8,10.2,7.8,16.56,0,9.48-5.76,19.68-18.24,19.68S177.6,54.36,177.6,44.88c0-6.36,2.52-12.96,7.92-16.68a14.018,14.018,0,0,1,5.04-2.4V20.64a20.725,20.725,0,0,0-5.04,1.68c-8.64,4.2-13.08,13.32-13.08,22.56,0,12.24,8.04,24.72,23.28,24.72S219,57.12,219,44.88c0-9.12-4.32-18.36-12.84-22.44V7.92c16.2,4.2,27.12,18.48,27.12,36.96,0,22.2-15.72,38.28-37.56,38.28-21.72,0-37.56-16.08-37.56-38.28,0-18.6,11.04-32.76,27.36-37.08a31.536,31.536,0,0,1,5.04-.84V1.8c-1.8.24-3.48.48-5.04.84a40.9,40.9,0,0,0-20.4,11.28c-7.68,7.92-12,18.96-12,30.96s4.32,23.04,12,30.96c7.8,8.04,18.72,12.36,30.6,12.36,12,0,22.8-4.32,30.6-12.36,7.8-7.92,12-18.96,12-30.96S234.12,21.84,226.32,13.92ZM299.88,2.28v53.4c0,17.88-8.88,27-26.52,27-14.4,0-24.84-7.92-26.64-19.8L261,60.36c1.32,4.44,4.92,8.76,12.24,8.76,9.24,0,12.48-6.96,12.48-13.44V2.28h-5.04v53.4c0,5.52-2.52,8.4-7.44,8.4-6.48,0-7.56-4.8-7.68-6.96l-.24-2.76-24,4.44.12,2.16c.84,15.72,14.04,26.76,31.92,26.76,20.4,0,31.56-11.4,31.56-32.04V2.28Zm40.2,53.52h25.68V33.48H340.08V26.4h29.28V3.12H315.72v35.4h45V50.76h-45V87h54.6V63.84H340.08Zm-5.04-22.32H320.76V8.16h43.56v13.2H335.04Zm30.24,48.48H320.76V55.8h14.28V68.88h30.24Zm82.8-10.92v.12A35.179,35.179,0,0,1,431.76,81.6a42.416,42.416,0,0,1-11.88,1.68c-21.72,0-37.56-16.08-37.56-38.28S398.16,6.72,419.88,6.72c11.4,0,21.24,4.32,28.2,12.12l-12,7.8a22.453,22.453,0,0,0-16.2-6.36c-15.24,0-23.28,12.36-23.28,24.72s8.04,24.84,23.28,24.84a26.222,26.222,0,0,0,7.56-1.2,20.86,20.86,0,0,0,8.28-4.92l.48-.48a20.318,20.318,0,0,0,3.24-3.84l-4.32-2.88-.24.24-1.2,1.68c-.12.24-.36.36-.48.6a16,16,0,0,1-7.44,4.8,18.3,18.3,0,0,1-5.88.96c-12.48,0-18.12-10.32-18.12-19.8s5.64-19.68,18.12-19.68c7.32,0,11.52,3.36,13.8,6.24l1.44,1.8L455.4,20.04l-1.56-2.16c-7.92-10.32-20.16-16.2-33.96-16.2a42.572,42.572,0,0,0-30.6,12.36c-7.68,7.92-12,18.96-12,30.96s4.32,23.04,12,30.96a42.188,42.188,0,0,0,30.6,12.48c13.56,0,25.8-5.88,33.6-15.96a1.656,1.656,0,0,0,.36-.48l1.56-2.04-4.2-2.76A48.373,48.373,0,0,1,448.08,71.04ZM460.8,3.12V26.4h18.48V87.24h5.04V21.36H465.84V8.16h51.12v13.2H498.48V87.24h5.04V26.4H522V3.12ZM566.4,35.04a19.182,19.182,0,0,1-2.52-.6c-6-1.56-11.04-3.12-11.04-6.24,0-3.72,3.48-5.04,6.84-5.04,6.24,0,8.16,3.6,8.64,5.76l.72,2.4L591.6,25.8l-.6-2.52c-3.12-13.08-15.12-21.6-30.48-21.6-18.84,0-31.44,10.68-31.44,26.64,0,14.28,7.68,22.56,24.72,26.76,1.32.36,2.52.6,3.72.84,7.68,1.92,11.04,3,11.04,5.76,0,4.8-6.84,5.16-9,5.16-7.08,0-10.44-3.72-11.28-7.32l-.6-2.64L543,58.32a22.038,22.038,0,0,0,1.2,4.92c2.04,4.44,6.96,8.64,15.36,8.64,8.76,0,14.16-3.84,14.16-10.2,0-7.08-7.32-8.76-15.12-10.68-1.08-.24-2.28-.48-3.48-.84-14.88-3.6-21-9.96-21-21.84,0-12.96,10.68-21.6,26.4-21.6,12,0,21.48,6,24.84,15.36L572.4,25.32c-2.16-4.56-6.72-7.2-12.72-7.2-6.96,0-11.88,4.08-11.88,10.08,0,7.32,8.52,9.48,14.76,11.16.96.24,1.68.36,2.52.6,19.56,5.52,23.04,11.28,23.04,21.36,0,10.92-9.72,21.96-28.32,21.96-7.2,0-23.64-1.56-28.68-15.96h0a22.5,22.5,0,0,1-1.2-4.92L525,63.84l.6,2.28c3.36,14.16,15.84,22.32,34.2,22.32,21.84,0,33.36-13.68,33.36-27.12C593.16,47.52,586.2,40.68,566.4,35.04Z" transform="translate(3.86 4.82)" fill="#fb0834" stroke="#fff" stroke-width="1"/></g></svg>