<svg xmlns="http://www.w3.org/2000/svg" xmlns:xlink="http://www.w3.org/1999/xlink" width="770.56" height="103.84" viewBox="0 0 770.56 103.84"><defs><filter id="a" x="0" y="0" width="770.56" height="103.84" filterUnits="userSpaceOnUse"><feOffset dy="3" input="SourceAlpha"/><feGaussianBlur stdDeviation="3" result="b"/><feFlood flood-color="#fb0834"/><feComposite operator="in" in2="b"/><feComposite in="SourceGraphic"/></filter></defs><g transform="matrix(1, 0, 0, 1, 0, 0)" filter="url(#a)"><path d="M60,54.6A25.405,25.405,0,0,0,71.28,32.88c0-18.36-12.6-29.76-32.76-29.76H5.64V44.4H38.52c8.28,0,13.32-4.32,13.32-11.52,0-7.08-5.28-11.52-13.32-11.52H24.84v18H10.68V8.16H38.52c17.28,0,27.72,9.24,27.72,24.72,0,8.16-3.72,14.64-10.92,18.6l-2.16,1.2L69.12,81.96H54.48L41.16,55.56H5.64V87H30V60.6h8.04L51.36,87H77.64ZM30,26.4h8.52c3,0,8.28.84,8.28,6.48,0,4.32-2.88,6.48-8.28,6.48H30ZM24.84,81.96H10.68V60.6H24.84ZM105.96,66V58.8h23.28V38.52H105.96V32.16h26.52V11.04H84V43.2h40.68V54.12H84V87h49.44V66ZM101.4,38.52H88.56V15.6h39.36v12H101.4Zm27.48,43.92H88.56V58.8H101.4V70.56h27.48Zm9.84-71.4V32.16H155.4V87.12h4.56V27.6H143.28v-12H189.6v12H172.8V87.12h4.68V32.16h16.68V11.04Zm103.44-.72V54.48c0,7.8-3.36,11.64-10.08,11.64-6.84,0-10.08-3.72-10.08-11.64V10.32h-4.56V54.48c0,10.44,5.16,16.2,14.64,16.2,9.24,0,14.64-5.88,14.64-16.2V14.88h12.84V56.16c0,17.52-9.48,26.76-27.48,26.76s-27.6-9.24-27.6-26.76V10.32h-4.56V56.16c0,20.28,11.4,31.44,32.16,31.44,20.64,0,32.04-11.16,32.04-31.44V10.32Zm81.6,47.4a23.2,23.2,0,0,0,10.2-19.68c0-16.68-11.4-27-29.64-27H274.56V48.48h29.76c7.56,0,12-3.96,12-10.44,0-6.36-4.68-10.44-12-10.44H291.96V43.92H279.12V15.6h25.2c15.72,0,25.08,8.4,25.08,22.44a18.312,18.312,0,0,1-9.84,16.8l-1.92,1.2,14.4,26.4H318.72l-12-23.88H274.56V87h21.96V63.12h7.32L315.96,87h23.76ZM296.52,32.16h7.8c2.76,0,7.44.72,7.44,5.88,0,3.84-2.52,5.88-7.44,5.88h-7.8Zm-17.4,50.28V63.12h12.84V82.44Zm110.64-71.4V47.4l-21-31.44-3.24-4.92H364.2v71.4H351.24V11.04h-4.56V87h22.08V50.64L393.12,87h18.84V11.04Zm17.64,71.4H395.52L368.76,42.36V24.24l25.56,38.28V15.6H407.4ZM530.28,26.4,534,20.88l8.52-12.24,3.84-5.52H463.92V26.4h39.6L477.84,63.6,474,69.12l-8.4,12.36L461.76,87h6.36l3.84-5.52,8.4-12.36,3.84-5.52,25.68-37.2,3.84-5.52H468.96V8.64h67.2l-8.4,12.24-3.84,5.52L498.24,63.6l-3.84,5.52L486,81.48,482.16,87h60.6V63.6H504.6Zm7.44,42.72V81.48H492.24l8.52-12.36ZM574.68,66V58.8h23.28V38.52H574.68V32.16H601.2V11.04H552.72V43.2H593.4V54.12H552.72V87h49.44V66Zm-4.56-27.48H557.28V15.6h39.36v12H570.12ZM597.6,82.44H557.28V58.8h12.84V70.56H597.6Zm63.6-24.72a23.2,23.2,0,0,0,10.2-19.68c0-16.68-11.4-27-29.64-27H612V48.48h29.76c7.56,0,12-3.96,12-10.44,0-6.36-4.68-10.44-12-10.44H629.4V43.92H616.56V15.6h25.2c15.72,0,25.08,8.4,25.08,22.44A18.312,18.312,0,0,1,657,54.84l-1.92,1.2,14.4,26.4H656.16l-12-23.88H612V87h21.96V63.12h7.32L653.4,87h23.76ZM633.96,32.16h7.8c2.76,0,7.44.72,7.44,5.88,0,3.84-2.52,5.88-7.44,5.88h-7.8Zm-17.4,50.28V63.12H629.4V82.44ZM746.28,20.76a37.259,37.259,0,0,0-18.24-10.2c-1.44-.36-3-.6-4.56-.84V31.56a14.541,14.541,0,0,1,4.56,2.16c4.8,3.36,7.08,9.36,7.08,15,0,8.64-5.16,17.88-16.56,17.88-11.28,0-16.44-9.24-16.44-17.88,0-5.76,2.28-11.76,7.2-15.12a14.541,14.541,0,0,1,4.56-2.16V26.76a25.449,25.449,0,0,0-4.56,1.56c-7.8,3.72-11.76,12.12-11.76,20.4,0,11.16,7.2,22.44,21,22.44,13.92,0,21.12-11.28,21.12-22.44,0-8.28-3.96-16.56-11.64-20.28V15.24c14.64,3.84,24.6,16.8,24.6,33.48,0,20.04-14.28,34.68-34.08,34.68-19.68,0-33.96-14.64-33.96-34.68,0-16.8,9.96-29.64,24.72-33.48a27.847,27.847,0,0,1,4.56-.84V9.72c-1.56.24-3.12.48-4.56.84a35.83,35.83,0,0,0-18.36,10.2c-7.08,7.2-10.92,17.04-10.92,27.96,0,10.8,3.84,20.76,10.92,27.96a37.933,37.933,0,0,0,27.6,11.28c10.8,0,20.64-3.96,27.72-11.28,7.08-7.2,10.92-17.16,10.92-27.96C757.2,37.8,753.36,27.96,746.28,20.76Z" transform="translate(3.86 3.38)" fill="#240c76" stroke="#fff" stroke-width="1"/></g></svg>