<svg xmlns="http://www.w3.org/2000/svg" xmlns:xlink="http://www.w3.org/1999/xlink" width="397.827" height="105.76" viewBox="0 0 397.827 105.76"><defs><filter id="a" x="0" y="0" width="397.827" height="105.76" filterUnits="userSpaceOnUse"><feOffset dy="3" input="SourceAlpha"/><feGaussianBlur stdDeviation="3" result="b"/><feFlood flood-color="#3a00ff"/><feComposite operator="in" in2="b"/><feComposite in="SourceGraphic"/></filter></defs><g transform="matrix(1, 0, 0, 1, 0, 0)" filter="url(#a)"><path d="M43.44,35.04a19.182,19.182,0,0,1-2.52-.6c-6-1.56-11.04-3.12-11.04-6.24,0-3.72,3.48-5.04,6.84-5.04,6.24,0,8.16,3.6,8.64,5.76l.72,2.4L68.64,25.8l-.6-2.52C64.92,10.2,52.92,1.68,37.56,1.68,18.72,1.68,6.12,12.36,6.12,28.32c0,14.28,7.68,22.56,24.72,26.76,1.32.36,2.52.6,3.72.84,7.68,1.92,11.04,3,11.04,5.76,0,4.8-6.84,5.16-9,5.16-7.08,0-10.44-3.72-11.28-7.32l-.6-2.64-4.68,1.44a22.038,22.038,0,0,0,1.2,4.92c2.04,4.44,6.96,8.64,15.36,8.64,8.76,0,14.16-3.84,14.16-10.2,0-7.08-7.32-8.76-15.12-10.68-1.08-.24-2.28-.48-3.48-.84-14.88-3.6-21-9.96-21-21.84,0-12.96,10.68-21.6,26.4-21.6,12,0,21.48,6,24.84,15.36L49.44,25.32c-2.16-4.56-6.72-7.2-12.72-7.2-6.96,0-11.88,4.08-11.88,10.08,0,7.32,8.52,9.48,14.76,11.16.96.24,1.68.36,2.52.6,19.56,5.52,23.04,11.28,23.04,21.36,0,10.92-9.72,21.96-28.32,21.96-7.2,0-23.64-1.56-28.68-15.96h0a22.5,22.5,0,0,1-1.2-4.92L2.04,63.84l.6,2.28C6,80.28,18.48,88.44,36.84,88.44c21.84,0,33.36-13.68,33.36-27.12C70.2,47.52,63.24,40.68,43.44,35.04Zm78.6,8.76L151.2,3.12H123.36L103.2,32.52V3.12H78.84V37.56h27l3.48-5.16,16.8-24.24h15.24L115.92,43.8l27.36,38.16H126.96L109.32,56.52l-3.48-5.16h-27V87H103.2V56.52L124.32,87h28.8Zm-24-11.28H83.88V8.16H98.04Zm0,49.44H83.88V56.52H98.04ZM178.08,3.12V81.96H163.8V3.12h-5.04V87h24.36V3.12ZM219.6,63.84V3.12H195.12V87h5.04V8.16h14.28V87H249V63.84Zm24.24,18.12H219.6V68.88h24.24Zm36.48-18.12V3.12H255.84V87h5.04V8.16h14.28V87h34.56V63.84Zm24.24,18.12H280.32V68.88h24.24ZM354,35.04a19.182,19.182,0,0,1-2.52-.6c-6-1.56-11.04-3.12-11.04-6.24,0-3.72,3.48-5.04,6.84-5.04,6.24,0,8.16,3.6,8.64,5.76l.72,2.4L379.2,25.8l-.6-2.52c-3.12-13.08-15.12-21.6-30.48-21.6-18.84,0-31.44,10.68-31.44,26.64,0,14.28,7.68,22.56,24.72,26.76,1.32.36,2.52.6,3.72.84,7.68,1.92,11.04,3,11.04,5.76,0,4.8-6.84,5.16-9,5.16-7.08,0-10.44-3.72-11.28-7.32l-.6-2.64-4.68,1.44a22.038,22.038,0,0,0,1.2,4.92c2.04,4.44,6.96,8.64,15.36,8.64,8.76,0,14.16-3.84,14.16-10.2,0-7.08-7.32-8.76-15.12-10.68-1.08-.24-2.28-.48-3.48-.84-14.88-3.6-21-9.96-21-21.84,0-12.96,10.68-21.6,26.4-21.6,12,0,21.48,6,24.84,15.36L360,25.32c-2.16-4.56-6.72-7.2-12.72-7.2-6.96,0-11.88,4.08-11.88,10.08,0,7.32,8.52,9.48,14.76,11.16.96.24,1.68.36,2.52.6,19.56,5.52,23.04,11.28,23.04,21.36,0,10.92-9.72,21.96-28.32,21.96-7.2,0-23.64-1.56-28.68-15.96h0a22.5,22.5,0,0,1-1.2-4.92l-4.92,1.44.6,2.28c3.36,14.16,15.84,22.32,34.2,22.32,21.84,0,33.36-13.68,33.36-27.12C380.76,47.52,373.8,40.68,354,35.04Z" transform="translate(7.57 4.82)" fill="#fb0834" stroke="#fff" stroke-width="1"/></g></svg>