<svg xmlns="http://www.w3.org/2000/svg" xmlns:xlink="http://www.w3.org/1999/xlink" width="1256.978" height="231.08" viewBox="0 0 1256.978 231.08"><defs><filter id="a" x="0" y="0" width="1256.978" height="231.08" filterUnits="userSpaceOnUse"><feOffset dy="3" input="SourceAlpha"/><feGaussianBlur stdDeviation="3" result="b"/><feFlood flood-color="#3a00ff"/><feComposite operator="in" in2="b"/><feComposite in="SourceGraphic"/></filter></defs><g transform="matrix(1, 0, 0, 1, 0, 0)" filter="url(#a)"><path d="M1308.6,3441.72c-7.68-7.92-12-18.96-12-30.96s4.32-23.04,12-30.96a40.9,40.9,0,0,1,20.4-11.28c1.56-.36,3.24-.6,5.04-.841v5.161a31.5,31.5,0,0,0-5.04.84c-16.321,4.32-27.36,18.48-27.36,37.08,0,22.2,15.84,38.28,37.56,38.28,21.84,0,37.56-16.079,37.56-38.28,0-18.48-10.92-32.76-27.12-36.96v14.521c8.52,4.08,12.84,13.32,12.84,22.44,0,12.24-8.041,24.72-23.28,24.72s-23.28-12.48-23.28-24.72c0-9.24,4.441-18.36,13.081-22.559a20.73,20.73,0,0,1,5.04-1.68v5.16a14.008,14.008,0,0,0-5.04,2.4c-5.4,3.72-7.92,10.319-7.92,16.68,0,9.481,5.639,19.68,18.12,19.68s18.24-10.2,18.24-19.68c0-6.36-2.52-12.84-7.8-16.56a14.03,14.03,0,0,0-5.04-2.4v-24.12a34.076,34.076,0,0,1,5.04.96,39.98,39.98,0,0,1,20.16,11.16c7.8,7.92,12,18.96,12,30.96s-4.2,23.04-12,30.96c-7.8,8.04-18.6,12.36-30.6,12.36C1327.32,3454.08,1316.4,3449.76,1308.6,3441.72Zm-187.44,0c-7.68-7.92-12-18.96-12-30.96s4.32-23.04,12-30.96a40.9,40.9,0,0,1,20.4-11.28c1.56-.36,3.24-.6,5.04-.841v5.161a31.5,31.5,0,0,0-5.04.84c-16.32,4.32-27.36,18.48-27.36,37.08,0,22.2,15.84,38.28,37.56,38.28,21.84,0,37.561-16.079,37.561-38.28,0-18.48-10.921-32.76-27.121-36.96v14.521c8.52,4.08,12.84,13.32,12.84,22.44,0,12.24-8.04,24.72-23.28,24.72s-23.279-12.48-23.279-24.72c0-9.24,4.44-18.36,13.08-22.559a20.73,20.73,0,0,1,5.04-1.68v5.16a14.014,14.014,0,0,0-5.04,2.4c-5.4,3.72-7.92,10.319-7.92,16.68,0,9.481,5.64,19.68,18.12,19.68s18.24-10.2,18.24-19.68c0-6.36-2.52-12.84-7.8-16.56a14.023,14.023,0,0,0-5.04-2.4v-24.12a34.073,34.073,0,0,1,5.04.96,39.98,39.98,0,0,1,20.16,11.16c7.8,7.92,12,18.96,12,30.96s-4.2,23.04-12,30.96c-7.8,8.04-18.6,12.36-30.6,12.36C1139.88,3454.08,1128.96,3449.76,1121.16,3441.72Zm-293.639,0c-7.681-7.92-12-18.96-12-30.96s4.32-23.04,12-30.96a40.9,40.9,0,0,1,20.4-11.28c1.561-.36,3.24-.6,5.04-.841v5.161a31.52,31.52,0,0,0-5.04.84c-16.32,4.32-27.36,18.48-27.36,37.08,0,22.2,15.84,38.28,37.561,38.28,21.839,0,37.56-16.079,37.56-38.28,0-18.48-10.92-32.76-27.12-36.96v14.521c8.519,4.08,12.839,13.32,12.839,22.44,0,12.24-8.04,24.72-23.279,24.72s-23.28-12.48-23.28-24.72c0-9.24,4.44-18.36,13.08-22.559a20.731,20.731,0,0,1,5.04-1.68v5.16a14.015,14.015,0,0,0-5.04,2.4c-5.4,3.72-7.92,10.319-7.92,16.68,0,9.481,5.64,19.68,18.121,19.68s18.239-10.2,18.239-19.68c0-6.36-2.52-12.84-7.8-16.56a14.031,14.031,0,0,0-5.04-2.4v-24.12a34.12,34.12,0,0,1,5.04.96,39.984,39.984,0,0,1,20.16,11.16c7.8,7.92,12,18.96,12,30.96s-4.2,23.04-12,30.96c-7.8,8.04-18.6,12.36-30.6,12.36C846.24,3454.08,835.32,3449.76,827.52,3441.72Zm192,11.4v-65.88H1038v-13.2H986.88v13.2h18.481v65.88h-5.04v-60.84H981.84V3369h61.2v23.28h-18.48v60.84Zm244.2-.24V3369h5.04v78.84h14.28V3369h5.04v83.88Zm-41.4,0v-78.84H1208.04v78.84H1203V3369h24.48v60.72h29.4v23.16Zm5.161-5.04h24.24v-13.08h-24.24Zm-177.961,5.04v-32.52h45.841V3407.28H1049.52V3369h54.121v23.28h-29.76v9.96h26.52v23.16h-26.52v27.48Zm5.04-5.04h14.161V3425.4H1054.56Zm0-45.72h14.161v-14.88h29.88v-13.2H1054.56Zm-99.84,50.76-13.32-26.4h-8.04v26.4H909v-31.44h35.52l13.32,26.4H972.48l-15.96-29.28,2.16-1.2c7.2-3.96,10.92-10.44,10.92-18.6,0-15.48-10.44-24.72-27.72-24.72H914.04v31.2H928.2v-18h13.68c8.041,0,13.32,4.44,13.32,11.52,0,7.2-5.04,11.52-13.32,11.52H909V3369h32.88c20.16,0,32.76,11.4,32.76,29.76a25.406,25.406,0,0,1-11.28,21.72l17.64,32.4Zm-40.68-5.04H928.2v-21.36H914.04Zm19.32-42.6h8.519c5.4,0,8.28-2.16,8.28-6.48,0-5.64-5.279-6.48-8.28-6.48H933.36ZM745.32,3452.88v-28.44h31.92c6.72,0,28.8-1.68,28.8-24.719,0-15.841-11.04-25.681-28.8-25.681H750.36v33.24h14.28v-20.04h12.6c8.64,0,14.28,4.919,14.28,12.48,0,7.919-5.4,12.6-14.28,12.6H745.32V3369h31.92c20.52,0,33.84,12,33.84,30.721,0,9.48-3.48,17.4-10.2,22.559-6,4.8-14.161,7.2-23.64,7.2h-7.56v23.4Zm5.04-5.04h14.28V3429.6H750.36Zm19.32-40.56h7.56c6.12,0,9.24-2.52,9.24-7.559,0-4.681-3.361-7.44-9.24-7.44h-7.56Zm-126.48,45.6v-31.56L612.96,3369H639.6l15.84,30.48L671.16,3369h5.76l-28.679,55.44v23.4H662.52V3420l26.64-45.96h-.12l3-5.04h5.76l-30.119,52.32v31.56Zm3.24-36,6.12-11.88-16.08-30.96H621.72Zm-63,36v-40.32l-16.56,27.36H557.04l-16.68-27.36v40.32H516V3369h5.04v78.84H535.2v-53.4h.12V3369h4.92l.12.12,21.48,35.64,21.6-35.64.12-.12h4.92v78.84h14.4V3369h5.04v83.88Zm-43.08-50.04,19.44,32.04h4.32l19.32-32.16v-23.88l-21.6,35.76-21.48-35.76Zm-151.2-87.16c-7.08-7.2-10.92-17.16-10.92-27.96,0-10.92,3.839-20.76,10.92-27.96a37.935,37.935,0,0,1,27.6-11.28c12.479,0,23.639,5.4,30.72,14.64l1.44,2.04-18.36,12-1.32-1.68c-2.039-2.52-5.76-5.64-12.479-5.64-11.281,0-16.44,9.24-16.44,17.88,0,8.52,5.16,17.88,16.44,17.88a15.914,15.914,0,0,0,5.4-.841,13.027,13.027,0,0,0,6.6-4.32,2.094,2.094,0,0,0,.48-.6l1.2-1.44.12-.24,3.96,2.52a21.683,21.683,0,0,1-3,3.6,1.661,1.661,0,0,1-.481.36,17.387,17.387,0,0,1-7.439,4.44,21.491,21.491,0,0,1-6.84,1.08c-13.8,0-21-11.28-21-22.44s7.2-22.44,21-22.44a20.074,20.074,0,0,1,14.76,5.88l10.8-7.08c-6.241-7.2-15.241-11.039-25.56-11.039-19.68,0-33.961,14.639-33.961,34.68s14.28,34.68,33.961,34.68a35.092,35.092,0,0,0,10.8-1.56,31.752,31.752,0,0,0,14.76-9.48,42.441,42.441,0,0,0,2.88-3.6l3.72,2.52-1.44,1.92c-.12.12-.24.24-.24.36-7.079,9.12-18.12,14.4-30.479,14.4A37.934,37.934,0,0,1,389.16,3315.68Zm410.64-.121c-7.08-7.2-10.921-17.159-10.921-27.959,0-10.92,3.84-20.76,10.921-27.96a35.827,35.827,0,0,1,18.36-10.2c1.44-.36,3-.6,4.559-.841v4.68a27.924,27.924,0,0,0-4.559.841c-14.76,3.839-24.72,16.68-24.72,33.48,0,20.04,14.28,34.68,33.96,34.68,19.8,0,34.08-14.64,34.08-34.68,0-16.68-9.96-29.641-24.6-33.48v13.2c7.68,3.721,11.64,12,11.64,20.281,0,11.16-7.2,22.44-21.12,22.44-13.8,0-21-11.28-21-22.44,0-8.28,3.96-16.68,11.76-20.4a25.44,25.44,0,0,1,4.559-1.56v4.68a14.522,14.522,0,0,0-4.559,2.16c-4.92,3.36-7.2,9.36-7.2,15.12,0,8.64,5.16,17.879,16.439,17.879,11.4,0,16.56-9.239,16.56-17.879,0-5.64-2.28-11.641-7.079-15a14.532,14.532,0,0,0-4.56-2.16V3248.6c1.56.24,3.12.48,4.56.841a37.253,37.253,0,0,1,18.239,10.2c7.08,7.2,10.921,17.04,10.921,27.96,0,10.8-3.84,20.76-10.921,27.959-7.079,7.321-16.92,11.281-27.72,11.281A37.93,37.93,0,0,1,799.8,3315.56Zm-336.84,0c-7.08-7.2-10.92-17.159-10.92-27.959,0-10.92,3.839-20.76,10.92-27.96a35.83,35.83,0,0,1,18.36-10.2c1.44-.36,3-.6,4.56-.841v4.68a27.917,27.917,0,0,0-4.56.841c-14.76,3.839-24.72,16.68-24.72,33.48,0,20.04,14.28,34.68,33.961,34.68,19.8,0,34.079-14.64,34.079-34.68,0-16.68-9.959-29.641-24.6-33.48v13.2c7.68,3.721,11.64,12,11.64,20.281,0,11.16-7.2,22.44-21.119,22.44-13.8,0-21-11.28-21-22.44,0-8.28,3.96-16.68,11.76-20.4a25.425,25.425,0,0,1,4.56-1.56v4.68a14.527,14.527,0,0,0-4.56,2.16c-4.92,3.36-7.2,9.36-7.2,15.12,0,8.64,5.16,17.879,16.44,17.879,11.4,0,16.56-9.239,16.56-17.879,0-5.64-2.281-11.641-7.08-15a14.532,14.532,0,0,0-4.56-2.16V3248.6c1.561.24,3.12.48,4.56.841a37.256,37.256,0,0,1,18.24,10.2c7.079,7.2,10.92,17.04,10.92,27.96,0,10.8-3.84,20.76-10.92,27.959-7.08,7.321-16.92,11.281-27.72,11.281A37.932,37.932,0,0,1,462.96,3315.56ZM763.92,3326v-59.52h16.8v-12H734.4v12h16.68V3326H746.52V3271.04H729.84v-21.12h55.44v21.12H768.6V3326Zm-131.52-.12V3293h40.68V3282.08H632.4v-32.16H680.88v21.12H654.36v6.359H677.64v20.281H654.36v7.2h27.48v21Zm4.559-4.56h40.32v-11.88H649.8v-11.76H636.96Zm0-43.92H649.8v-10.92h26.52v-12H636.96Zm-38.16,48.48V3289.4l-15,24.719h-9L559.68,3289.4v36.48H537.72v-75.96h4.559v71.4h12.84v-71.4h4.56v.12l19.56,32.28,19.56-32.28.121-.12h4.44v71.4h12.96v-71.4h4.56v75.96Zm-39-45.36,17.64,29.041h3.84L598.8,3280.52v-21.6l-19.56,32.28-19.44-32.28Zm-216.36,45.36v-71.4H330.48v71.4h-4.56v-75.96H348v54.96h26.64v21Zm4.56-4.56h22.08v-11.88H348Zm-81.72,4.56V3293h40.68V3282.08H266.28v-32.16H314.76v21.12H288.24v6.359H311.52v20.281H288.24v7.2h27.48v21Zm4.559-4.56h40.32v-11.88H283.68v-11.76H270.84Zm0-43.92h12.84v-10.92H310.2v-12H270.84Zm-56.759,48.48-.24-.72-11.16-39.72-11.16,39.839-.12.6h-4.92l-1.32-5.04-3.96-15-5.4-20.28-10.2-38.52H150.84l22.08,71.4.72,2.4,1.561,5.04h-5.28l-1.8-5.88L144,3242h25.56l11.04,42.24.72,2.4,12.6-44.64h17.64l12.479,44.64.6-2.04,9.72-36.959,1.44-5.64h5.28l-1.32,5.04-.6,1.92-9.72,36.96-.12.6-5.16,19.319v.121l-3.84,14.88h11.4l22.68-73.32.239-.48L256.2,3242h5.279l-2.16,6.959-23.88,76.92Zm-30.24-29.64,5.16,19.44,13.68-48.84,13.8,48.6,5.04-19.2-13.8-49.2h-9.96Z" transform="translate(-134.32 -3235.5)" fill="#fb0834" stroke="#fff" stroke-width="1"/></g></svg>